<svg version="1.2" baseProfile="tiny-ps" xmlns="http://www.w3.org/2000/svg" viewBox="0 0 2431 4437" width="2431" height="4437">
	<title>&lt;Clip Group&gt;</title>
	<defs>
		<radialGradient id="grd1" gradientUnits="userSpaceOnUse"  cx="1979.911" cy="1205.747" r="26.217">
			<stop offset="0" stop-color="#fff"  />
			<stop offset="1" stop-color="#fff"  />
		</radialGradient>
		<radialGradient id="grd2" gradientUnits="userSpaceOnUse"  cx="1770.372" cy="1670.186" r="26.217">
			<stop offset="0" stop-color="#fff"  />
			<stop offset="1" stop-color="#fff"  />
		</radialGradient>
		<radialGradient id="grd3" gradientUnits="userSpaceOnUse"  cx="1914.679" cy="2468.962" r="26.217">
			<stop offset="0" stop-color="#fff"  />
			<stop offset="1" stop-color="#fff"  />
		</radialGradient>
		<radialGradient id="grd4" gradientUnits="userSpaceOnUse"  cx="1198.803" cy="852.188" r="26.217">
			<stop offset="0" stop-color="#fff"  />
			<stop offset="1" stop-color="#fff"  />
		</radialGradient>
		<radialGradient id="grd5" gradientUnits="userSpaceOnUse"  cx="1314.049" cy="1699.937" r="26.217">
			<stop offset="0" stop-color="#fff"  />
			<stop offset="1" stop-color="#fff"  />
		</radialGradient>
		<radialGradient id="grd6" gradientUnits="userSpaceOnUse"  cx="1423.165" cy="2399.922" r="26.217">
			<stop offset="0" stop-color="#fff"  />
			<stop offset="1" stop-color="#fff"  />
		</radialGradient>
		<radialGradient id="grd7" gradientUnits="userSpaceOnUse"  cx="2256.258" cy="785.944" r="26.217">
			<stop offset="0" stop-color="#fff"  />
			<stop offset="1" stop-color="#fff"  />
		</radialGradient>
		<radialGradient id="grd8" gradientUnits="userSpaceOnUse"  cx="1399.046" cy="1449.231" r="26.217">
			<stop offset="0" stop-color="#fff"  />
			<stop offset="1" stop-color="#fff"  />
		</radialGradient>
	</defs>
	<style>
		tspan { white-space:pre }
		.shp0 { fill: #fff }
		.shp1 { fill: url(#grd1) }
		.shp2 { fill: url(#grd2) }
		.shp3 { fill: url(#grd3) }
		.shp4 { fill: url(#grd4) }
		.shp5 { fill: url(#grd5) }
		.shp6 { fill: url(#grd6) }
		.shp7 { fill: url(#grd7) }
		.shp8 { fill: url(#grd8) }
	</style>
	<g id="&lt;Clip Group&gt;">
		<g id="&lt;Group&gt;" style="opacity: 0.2">
			<path id="&lt;Compound Path&gt;" fill-rule="evenodd" class="shp0" d="M2429.27 868.78C2425.41 880.16 2413.05 886.25 2401.68 882.39C2400.99 882.15 2400.32 881.89 2399.67 881.59L2056.36 1482.4L2057.5 1483.44L2055.23 1484.38L2051.22 1491.4L2051.6 1485.9L1674.72 1642.79C1676.05 1647.04 1676.11 1651.72 1674.58 1656.25C1671.52 1665.26 1663.13 1670.93 1654.12 1670.99L1626.39 1992.55C1627.44 1992.74 1628.49 1992.98 1629.53 1993.34C1640.9 1997.2 1646.99 2009.55 1643.13 2020.93C1639.52 2031.57 1628.47 2037.58 1617.75 2035.15L1816.72 2890.11C1819.96 2889.66 1823.35 2889.92 1826.66 2891.04C1838.04 2894.9 1844.13 2907.26 1840.27 2918.63C1836.41 2930.01 1824.05 2936.1 1812.68 2932.24C1808.06 2930.67 1804.34 2927.69 1801.78 2923.96L1168.26 3278.76C1170.4 3283.58 1170.83 3289.18 1169 3294.57C1167.31 3299.55 1164 3303.51 1159.85 3306.07L1296.78 3581.12C1301.38 3579.33 1306.59 3579.09 1311.63 3580.8C1323 3584.66 1329.09 3597.01 1325.23 3608.39C1322.44 3616.6 1315.22 3622.03 1307.15 3622.98L1313.74 3902.63C1315.57 3902.76 1317.42 3903.09 1319.24 3903.71C1330.61 3907.57 1336.7 3919.93 1332.84 3931.3C1328.98 3942.68 1316.63 3948.77 1305.25 3944.9C1304.12 3944.52 1303.07 3944.04 1302.05 3943.5L1025.77 4364.46C1032.73 4370.02 1035.84 4379.52 1032.81 4388.44C1028.95 4399.82 1016.6 4405.91 1005.22 4402.05C997.54 4399.44 992.29 4392.96 990.86 4385.52L703.5 4413.22C703.64 4415.9 703.3 4418.65 702.38 4421.35C698.52 4432.72 686.17 4438.81 674.79 4434.95C663.42 4431.09 657.33 4418.74 661.19 4407.36C661.29 4407.07 661.42 4406.79 661.53 4406.51L386.49 4263.21C380.91 4270.03 371.5 4273.06 362.67 4270.06C351.29 4266.2 345.2 4253.84 349.06 4242.47C352 4233.82 359.85 4228.24 368.44 4227.75L420.02 3823.89C419.94 3823.86 419.85 3823.85 419.77 3823.82C408.4 3819.95 402.31 3807.6 406.17 3796.23C410.03 3784.85 422.38 3778.76 433.76 3782.62C437.33 3783.84 440.38 3785.89 442.77 3788.49L714.08 3573.27C710.73 3567.92 709.71 3561.16 711.9 3554.71C714.81 3546.16 722.52 3540.6 731 3540L753.16 3035.91C751.94 3035.72 750.73 3035.45 749.53 3035.04C738.16 3031.18 732.07 3018.83 735.93 3007.45C737.72 3002.18 741.34 2998.06 745.84 2995.53L633.19 2744.42C628.8 2745.92 623.9 2746.06 619.17 2744.45C607.79 2740.59 601.7 2728.24 605.57 2716.86C607.46 2711.29 611.39 2707 616.24 2704.52L448.95 2287.33C444.78 2288.57 440.2 2288.59 435.76 2287.09C424.39 2283.23 418.3 2270.87 422.16 2259.5C426.02 2248.12 438.37 2242.03 449.75 2245.89C454.49 2247.5 458.29 2250.6 460.86 2254.47L722.96 2113.5C720.95 2108.75 720.58 2103.29 722.37 2098.03C725.84 2087.8 736.16 2081.88 746.48 2083.57L925.84 1394.78L927.77 1395.28C920.37 1392.76 915.23 1386.64 913.59 1379.54L636.13 1416.63C636.24 1419.22 635.9 1421.88 635.01 1424.49C631.15 1435.87 618.8 1441.96 607.42 1438.1C596.05 1434.24 589.96 1421.88 593.82 1410.51C596.18 1403.54 601.74 1398.57 608.3 1396.64L492.32 802.64C489.52 802.84 486.64 802.5 483.82 801.54C475.13 798.59 469.55 790.69 469.1 782.05L213.2 777.47C213.01 778.62 212.75 779.76 212.36 780.89C208.5 792.27 196.15 798.36 184.77 794.5C173.4 790.63 167.31 778.28 171.17 766.91C173.33 760.56 178.13 755.86 183.93 753.61L25.36 43.4C22.17 43.81 18.85 43.54 15.61 42.44C4.23 38.58 -1.86 26.23 2 14.85C5.87 3.48 18.22 -2.61 29.59 1.25C38.82 4.38 44.56 13.09 44.35 22.34L538.22 79.54C538.4 78.7 538.61 77.86 538.9 77.03C542.76 65.65 555.11 59.56 566.49 63.43C577.86 67.29 583.95 79.64 580.09 91.02C577.38 99.01 570.47 104.37 562.66 105.53L580.75 442.13C582.8 442.21 584.86 442.57 586.9 443.26C594.75 445.93 600.07 452.63 601.36 460.26L822.49 443.91C822.59 441.92 822.94 439.9 823.61 437.92C827.48 426.54 839.83 420.45 851.2 424.31C862.5 428.15 868.57 440.35 864.88 451.65L1131.87 578.9C1136.81 569.71 1147.79 565.14 1158 568.61C1161.1 569.66 1163.8 571.37 1166.02 573.5L1384.24 384.06C1380.29 378.55 1378.95 371.3 1381.3 364.4C1385.16 353.02 1397.51 346.93 1408.89 350.79C1420.26 354.66 1426.35 367.01 1422.49 378.38C1421.6 381.02 1420.23 383.36 1418.54 385.37L1601.84 570.68C1607.45 566.08 1615.23 564.37 1622.62 566.88C1628.12 568.75 1632.37 572.61 1634.87 577.38L1973.34 438.13C1972.04 433.91 1971.98 429.26 1973.51 424.76C1977.37 413.38 1989.73 407.29 2001.1 411.16C2012.48 415.02 2018.57 427.37 2014.71 438.75C2012.27 445.93 2006.45 450.99 1999.62 452.79L2085.74 973.5C2088.55 973.3 2091.45 973.64 2094.29 974.61C2094.86 974.8 2095.4 975.03 2095.94 975.26L2387.66 867.42C2386.58 863.4 2386.64 859.03 2388.07 854.8C2391.94 843.42 2404.29 837.33 2415.66 841.19C2427.04 845.06 2433.13 857.41 2429.27 868.78ZM1803.22 2897.42L1489.58 2570.95L1439.1 2782.43C1439.11 2782.43 1439.11 2782.43 1439.12 2782.44C1449.47 2785.95 1455.42 2796.49 1453.5 2806.94L1799.38 2903.87C1800.31 2901.45 1801.61 2899.28 1803.22 2897.42ZM390.69 4243.95L588.06 4201.06L430.19 3824.69C428.16 3825.02 426.06 3825.06 423.96 3824.79L395.64 4046.51L372.47 4227.89C373.87 4228.08 375.27 4228.39 376.65 4228.86C383.83 4231.3 388.9 4237.13 390.69 4243.95ZM1002.3 2758.54C1002.48 2757.58 1002.71 2756.61 1003.04 2755.65C1003.73 2753.62 1004.69 2751.77 1005.87 2750.11L785.09 2561.54L642.61 2709.66C646.01 2713.6 647.93 2718.67 647.9 2723.96L1002.3 2758.54ZM761.83 2115.83L795.64 2139.6L1086.27 2036.85L764.57 2102.65C764.91 2105.72 764.62 2108.9 763.56 2112.01C763.11 2113.36 762.52 2114.64 761.83 2115.83ZM633.62 1407.34L1123.79 1203.5C1122.47 1199.26 1122.41 1194.58 1123.94 1190.05C1124.29 1189.03 1124.73 1188.06 1125.21 1187.12L921.18 1057.25L629.91 1402.26C631.4 1403.77 632.64 1405.48 633.62 1407.34ZM213.49 773.46L469.26 778.04C469.45 776.67 469.76 775.3 470.22 773.95C471.63 769.78 474.2 766.32 477.43 763.8L328.25 521.69L203.46 755.58C209.61 759.5 213.35 766.26 213.49 773.46ZM480.82 761.64C483.67 760.16 486.85 759.32 490.12 759.22L555.35 105.35C554.4 105.17 553.44 104.94 552.5 104.62C552.01 104.45 551.55 104.25 551.08 104.06L330.44 517.59L480.82 761.64ZM35.67 39.23L328 513.63L547.54 102.17C541.28 98.05 537.57 90.97 537.74 83.52L43.87 26.33C43.69 27.17 43.48 28.01 43.2 28.84C41.74 33.14 39.05 36.69 35.67 39.23ZM1790.33 1241.42C1785.8 1239.41 1782.27 1235.99 1780.05 1231.86L1513.66 1344.84L1646.62 1628.8C1650.5 1627.4 1654.8 1627.09 1659.04 1628.11L1790.33 1241.42ZM1302.94 3904.66L1229.77 3704.02L917.11 4118.7C918.54 4120.01 919.78 4121.49 920.81 4123.1L1292.07 3932.41C1290.2 3927.75 1289.91 3922.44 1291.65 3917.31C1293.62 3911.51 1297.8 3907.09 1302.94 3904.66ZM1178.09 3619.9L780.92 3718.86L898.23 4113.46C901.85 4112.74 905.71 4112.91 909.46 4114.18C910.13 4114.41 910.78 4114.67 911.41 4114.95L1186.18 3630.55C1182.38 3627.91 1179.59 3624.15 1178.09 3619.9ZM1228.13 3699.53L1204.14 3633.74C1200.15 3634.8 1195.81 3634.74 1191.61 3633.31C1190.95 3633.08 1190.3 3632.82 1189.67 3632.54L919.43 4108.95L1228.13 3699.53ZM1184.1 3596.52L1019.64 3374.71L751.5 3551.16C753.31 3554.43 754.29 3558.14 754.24 3561.97L1177.31 3608.36C1177.49 3607.48 1177.71 3606.6 1178.01 3605.72C1179.26 3602.05 1181.4 3598.94 1184.1 3596.52ZM1020.6 3369.28L1129.22 3297.79C1126.5 3292.68 1125.8 3286.51 1127.81 3280.59C1128.25 3279.28 1128.81 3278.06 1129.46 3276.9L772.21 3029.49C771.54 3030.18 770.84 3030.83 770.09 3031.42L1020.6 3369.28ZM1141.44 3266.99L1059.55 2922.42L778 3011.05C778.54 3014.42 778.3 3017.97 777.12 3021.44C776.52 3023.21 775.69 3024.84 774.71 3026.33L1131.75 3273.61C1134.34 3270.53 1137.7 3268.26 1141.44 3266.99ZM1062.46 2917.29L1410.88 2807.61C1410.55 2806.08 1410.37 2804.5 1410.38 2802.9L1044.97 2766.77C1044.78 2767.73 1044.56 2768.69 1044.23 2769.64C1041.97 2776.3 1036.78 2781.13 1030.59 2783.23L1062.46 2917.29ZM955.74 1380.39L1155.83 1475.38C1158.99 1470.04 1164.25 1466.42 1170.13 1465.2L1152.32 1306.02L955.64 1368.6C956.74 1372.34 956.83 1376.4 955.74 1380.39ZM1169.75 600.24L1383.42 739.95C1387.13 735.29 1392.6 732.35 1398.5 731.82L1399.05 590.6L1172.6 591.76C1172.43 593.24 1172.1 594.73 1171.6 596.2C1171.11 597.63 1170.49 598.98 1169.75 600.24ZM1403.08 586.56L1593.98 585.58C1594.13 583.88 1594.45 582.17 1595.03 580.48C1595.92 577.85 1597.29 575.51 1598.98 573.5L1415.68 388.19C1412.32 390.94 1408.19 392.66 1403.82 393.05L1403.08 586.56ZM1403.06 590.57L1402.52 731.84C1404.16 732 1405.8 732.33 1407.42 732.88C1410.96 734.08 1413.98 736.1 1416.35 738.66L1597.26 599.11C1595.45 596.25 1594.33 592.99 1593.99 589.59L1403.06 590.57ZM1642.98 1630.51L1509.96 1346.41L1195.24 1479.88C1196.41 1483.56 1196.63 1487.57 1195.68 1491.54L1634.12 1640.39C1636.02 1636.13 1639.17 1632.74 1642.98 1630.51ZM1035.03 2744.14L1198.8 2526.21L1032.79 2327.01C1030.89 2327.41 1028.93 2327.55 1026.95 2327.42L1025.71 2741.01C1027.35 2741.17 1029 2741.49 1030.63 2742.05C1032.21 2742.58 1033.67 2743.3 1035.03 2744.14ZM1416.73 2787.69L1201.44 2529.38L1038.25 2746.54C1042.79 2750.67 1045.41 2756.58 1045.38 2762.78L1334.78 2791.39L1410.79 2798.9C1410.98 2797.95 1411.2 2796.99 1411.53 2796.04C1412.63 2792.78 1414.45 2789.98 1416.73 2787.69ZM1295.57 2397.45C1290.52 2392.68 1287.96 2385.67 1288.97 2378.61L1251.93 2369.9L1043.84 2321C1041.85 2323.01 1039.5 2324.6 1036.93 2325.71L1201.28 2522.91L1295.57 2397.45ZM1298.03 2363.85L1218.42 2219.45L1050.07 2304.13C1050.28 2306.96 1049.94 2309.87 1048.97 2312.73C1048.38 2314.46 1047.58 2316.06 1046.63 2317.53L1289.88 2374.7C1289.89 2374.68 1289.89 2374.67 1289.9 2374.66C1291.44 2370.1 1294.37 2366.41 1298.03 2363.85ZM1220.07 2214.13L1602.29 2021.87C1601.63 2020.19 1601.19 2018.42 1600.97 2016.61L1136.23 2031.04L1135.97 2031.05C1135.81 2032.72 1135.49 2034.4 1134.92 2036.06C1133.48 2040.3 1130.86 2043.8 1127.55 2046.33L1220.07 2214.13ZM1428.35 1204.01C1428.49 1203.47 1428.63 1202.92 1428.81 1202.38C1429.43 1200.58 1430.27 1198.93 1431.27 1197.41L1236.6 1041.49L1157.1 1179.3C1162.81 1183.34 1166.22 1189.92 1166.27 1196.88L1428.35 1204.01ZM1193.67 1476.18L1508.26 1342.77L1455.56 1230.22C1451.4 1231.45 1446.84 1231.47 1442.42 1229.97C1439.85 1229.1 1437.57 1227.78 1435.6 1226.15L1191.2 1472.53C1192.15 1473.66 1192.97 1474.89 1193.67 1476.18ZM1783.63 1206.4L1712.77 1123.22L1470.57 1204.4C1470.84 1205.57 1471.04 1206.77 1471.12 1207.98L1664.21 1214.8L1777.61 1218.8C1777.79 1217.39 1778.11 1215.97 1778.59 1214.57C1779.67 1211.39 1781.43 1208.65 1783.63 1206.4ZM1709.97 1119.93L1412.93 771.25C1410.48 772.97 1407.69 774.18 1404.74 774.78L1449.1 1187.64C1451.52 1187.61 1453.98 1187.95 1456.4 1188.78C1462.4 1190.81 1466.91 1195.22 1469.29 1200.59L1709.97 1119.93ZM1391.35 773.24L1238.63 1037.97L1433.78 1194.28C1436.84 1191.11 1440.8 1188.94 1445.1 1188.07L1400.75 775.2C1398.33 775.24 1395.86 774.89 1393.44 774.07C1392.72 773.83 1392.02 773.55 1391.35 773.24ZM1429.4 1217.85L1156.22 1304.77L1174.12 1464.75C1176.58 1464.7 1179.07 1465.05 1181.53 1465.88C1184.07 1466.74 1186.33 1468.05 1188.3 1469.66L1432.02 1222.44C1430.96 1221.02 1430.09 1219.47 1429.4 1217.85ZM1131.77 2016.09L1437.87 1799.62L1187.01 1504.27C1183.3 1506.86 1178.83 1508.29 1174.21 1508.22L1153.08 1704.5L1120.39 2008.2C1120.7 2008.29 1121.01 2008.36 1121.32 2008.47C1125.66 2009.94 1129.23 2012.66 1131.77 2016.09ZM1511.95 1341.2L1778.48 1228.17C1777.93 1226.44 1777.58 1224.65 1777.48 1222.82L1470.99 1212.13C1470.81 1213.55 1470.48 1214.96 1470.01 1216.37C1468.11 1221.95 1464.16 1226.25 1459.3 1228.73L1511.95 1341.2ZM1912.84 1129.84L2069.17 1007.19C2068.56 1006.27 2068.03 1005.31 2067.56 1004.31L1716.88 1121.85L1786.68 1203.79C1792.17 1199.94 1799.34 1198.65 1806.18 1200.97C1809.65 1202.15 1812.63 1204.13 1814.98 1206.62L1912.84 1129.84ZM1420.19 762.57C1419.13 764.88 1417.69 766.91 1415.99 768.65L1714.07 1118.55L2066.22 1000.53C2065.39 997.27 2065.3 993.79 2066.09 990.34L1420.19 762.57ZM1381.16 763.53L1076.87 888C1078.16 892.21 1078.21 896.84 1076.68 901.33C1076.07 903.13 1075.23 904.78 1074.23 906.29L1235.46 1035.43L1387.87 771.23C1385.01 769.21 1382.74 766.55 1381.16 763.53ZM1064.08 914.55L1140.4 1175.71C1144 1175.01 1147.81 1175.19 1151.53 1176.45C1152.25 1176.69 1152.95 1176.97 1153.62 1177.28L1233.43 1038.95L1071.72 909.43C1069.55 911.67 1066.95 913.41 1064.08 914.55ZM1146.59 1218.69L1155.77 1300.7L1428.18 1214.02C1427.76 1212.07 1427.59 1210.05 1427.72 1208.01L1165.93 1200.89C1165.73 1201.94 1165.49 1203 1165.14 1204.04C1162.3 1212.41 1154.86 1217.9 1146.59 1218.69ZM1111.46 2050.62L1036.35 2285.53C1042.92 2288.12 1047.59 2293.59 1049.35 2299.99L1216.48 2215.93L1124.14 2048.47C1120.3 2050.41 1115.9 2051.22 1111.46 2050.62ZM1424.18 2782.8L1314.22 2403.08C1310.74 2403.69 1307.07 2403.46 1303.5 2402.25C1301.78 2401.66 1300.19 2400.86 1298.73 2399.92L1203.92 2526.08L1419.82 2785.13C1421.18 2784.19 1422.64 2783.4 1424.18 2782.8ZM1322.63 2363.62L1606.99 2029.12C1605.89 2028 1604.91 2026.78 1604.09 2025.46L1222.01 2217.65L1301.52 2361.86C1306.38 2359.66 1312.04 2359.2 1317.49 2361.05C1319.35 2361.69 1321.06 2362.57 1322.63 2363.62ZM1606.99 1998.74L1440.48 1802.69L1133.87 2019.52C1135.01 2021.86 1135.72 2024.4 1135.97 2027.03L1600.84 2012.6C1600.96 2010.71 1601.3 2008.81 1601.94 2006.94C1603.02 2003.75 1604.79 2001 1606.99 1998.74ZM1441.16 1797.29L1635.15 1660.11C1632.45 1655.42 1631.49 1649.76 1632.83 1644.2L1194.39 1495.34C1193.32 1497.75 1191.84 1499.87 1190.07 1501.67L1441.16 1797.29ZM2069.6 982.56L1650.48 620.26L1420.41 744.93C1422.23 749.19 1422.71 754.02 1421.51 758.78L2066.39 986.18L2067.76 985.68C2068.29 984.58 2068.9 983.53 2069.6 982.56ZM1647.23 617.45L1630.69 603.15C1625.02 608.59 1616.59 610.77 1608.63 608.07C1605.1 606.87 1602.07 604.85 1599.7 602.29L1421.43 739.81L1647.23 617.45ZM1386.87 387.09L1168.66 576.53C1171 579.8 1172.43 583.68 1172.71 587.75L1399.06 586.58L1399.8 393.02C1398.17 392.87 1396.52 392.54 1394.9 391.99C1391.79 390.93 1389.09 389.22 1386.87 387.09ZM862.59 456.51C860.85 459.27 858.55 461.56 855.87 463.26L1048.7 873.89C1053.18 872.27 1058.22 872.09 1063.08 873.74C1068.6 875.61 1072.86 879.49 1075.35 884.28L1379.64 759.81C1378.35 755.6 1378.31 750.97 1379.83 746.48C1380.04 745.87 1380.28 745.28 1380.54 744.71L862.59 456.51ZM1148.05 610.75L1352.25 724.37L1167.4 603.49C1162.65 608.94 1155.38 611.76 1148.05 610.75ZM707.82 576.79L1041.36 878.32C1042.5 877.28 1043.75 876.37 1045.07 875.6L852.3 465.09C847.64 466.95 842.34 467.24 837.22 465.51C834.39 464.55 831.9 463.07 829.8 461.21L707.82 576.79ZM704.9 579.56L507.31 766.8C511.07 771.19 512.99 776.97 512.46 782.88L1035.27 888.1C1035.35 887.85 1035.4 887.59 1035.49 887.34C1036.25 885.11 1037.34 883.09 1038.68 881.3L704.9 579.56ZM701.91 576.86L594.63 479.88C589.69 484.41 582.79 486.51 575.93 485.22L497.81 760.35C500.29 761.19 502.5 762.45 504.43 764L701.91 576.86ZM559.31 456.87C562.02 448.88 568.93 443.51 576.74 442.36L558.89 110.27L494.27 758.13L572.07 484.12C561.25 479.94 555.55 467.95 559.31 456.87ZM510.15 790.85L920.38 1051.97L1040.59 909.58C1036.1 905 1033.76 898.57 1034.47 892.03L511.72 786.83C511.62 787.2 511.53 787.57 511.41 787.93C511.06 788.95 510.63 789.91 510.15 790.85ZM923.79 1054.15L1127.36 1183.73C1129.77 1180.62 1132.96 1178.25 1136.54 1176.83L1060.23 915.67C1056.63 916.38 1052.81 916.19 1049.09 914.93C1047.11 914.26 1045.29 913.31 1043.66 912.17L923.79 1054.15ZM952.06 1361.48C952.86 1362.54 953.57 1363.67 954.17 1364.86L1151.87 1301.95L1142.55 1218.69C1140.88 1218.53 1139.2 1218.21 1137.55 1217.64C1134.15 1216.49 1131.24 1214.57 1128.91 1212.16L952.06 1361.48ZM943.41 1394.62L1112.04 2007.45C1113.48 2007.3 1114.95 2007.29 1116.43 2007.43L1170.22 1507.78C1169.33 1507.6 1168.43 1507.38 1167.54 1507.07C1156.17 1503.21 1150.08 1490.86 1153.94 1479.48C1153.99 1479.32 1154.07 1479.17 1154.12 1479.01L954.33 1384.17C952.01 1388.98 948.07 1392.6 943.41 1394.62ZM799.67 2142.44L1011.82 2291.64C1016.82 2285.78 1024.69 2282.89 1032.49 2284.4L1107.54 2049.72C1107.47 2049.7 1107.4 2049.68 1107.33 2049.66C1101.45 2047.67 1097.01 2043.4 1094.59 2038.17L799.67 2142.44ZM795.02 2144.08L463.83 2261.17C464.23 2262.72 464.44 2264.31 464.48 2265.94L1006.92 2302.29C1007.11 2301.1 1007.38 2299.92 1007.78 2298.74C1008.24 2297.39 1008.82 2296.12 1009.51 2294.92L795.02 2144.08ZM460.52 2279.03L784.82 2556.02L1011.92 2319.94C1008.67 2316.16 1006.78 2311.34 1006.65 2306.29L464.21 2269.94C464.02 2271.13 463.75 2272.31 463.35 2273.48C462.67 2275.51 461.7 2277.36 460.52 2279.03ZM787.88 2558.64L1008.48 2747.06C1012.05 2743.6 1016.72 2741.44 1021.69 2740.99L1022.93 2326.78C1022.41 2326.64 1021.9 2326.51 1021.38 2326.33C1018.92 2325.5 1016.73 2324.25 1014.82 2322.72L787.88 2558.64ZM774.05 3001.58C775.3 3003.29 776.29 3005.16 777 3007.15L1058.62 2918.5L1026.69 2784.17C1023.41 2784.63 1019.99 2784.38 1016.64 2783.24C1013.85 2782.29 1011.37 2780.83 1009.28 2778.99L774.05 3001.58ZM757.16 3036.17L735.01 3540.11C736.51 3540.28 738.01 3540.61 739.49 3541.11C743.45 3542.46 746.76 3544.84 749.24 3547.85L1017.24 3371.49L766.73 3033.63C763.81 3035.18 760.54 3036.07 757.16 3036.17ZM740.24 3582.03L779.77 3715.01L1177.12 3616C1176.93 3614.8 1176.84 3613.58 1176.86 3612.35L753.81 3565.96C753.63 3566.88 753.4 3567.79 753.1 3568.7C750.93 3575.09 746.09 3579.8 740.24 3582.03ZM777.02 3719.84L448.47 3801.7C448.66 3804.5 448.32 3807.39 447.36 3810.21C446.55 3812.6 445.35 3814.74 443.87 3816.62L885.78 4120.85C888.11 4118.07 891.07 4115.94 894.38 4114.61L777.02 3719.84ZM592.05 4200.19L880.9 4137.41C880.51 4134.27 880.78 4130.99 881.87 4127.79C882.31 4126.51 882.86 4125.3 883.5 4124.16L441.08 3819.57C439.03 3821.37 436.67 3822.76 434.12 3823.68L592.05 4200.19ZM593.63 4203.95L673.46 4394.28C678.17 4392.33 683.57 4391.99 688.78 4393.76C689.78 4394.1 690.72 4394.52 691.63 4394.98L887.38 4150.42C884.77 4147.89 882.84 4144.77 881.75 4141.34L593.63 4203.95ZM935.18 4213.24L909.43 4155.36C905.06 4156.85 900.19 4156.98 895.48 4155.38C893.68 4154.77 892.03 4153.93 890.52 4152.93L695.05 4397.14C695.42 4397.42 695.79 4397.71 696.14 4398.02L935.18 4213.24ZM938.45 4210.71L1293.76 3936.06L922.64 4126.68C924.51 4131.33 924.81 4136.65 923.07 4141.77C921.27 4147.07 917.62 4151.2 913.1 4153.73L938.45 4210.71ZM1309.73 3902.72L1303.14 3623.07C1301.3 3622.95 1299.46 3622.61 1297.64 3621.99C1296.05 3621.45 1294.58 3620.73 1293.21 3619.89L1232.65 3700.2L1306.71 3903.28C1307.7 3903.02 1308.71 3902.84 1309.73 3902.72ZM1283.33 3605.69L1220.34 3612.41C1220.37 3614.83 1220.02 3617.29 1219.2 3619.71C1217.23 3625.51 1213.04 3629.93 1207.91 3632.36L1231.01 3695.71L1289.99 3617.48C1286.56 3614.35 1284.24 3610.2 1283.33 3605.69ZM1193.32 3591.63L1149.73 3309.28C1146.99 3309.45 1144.17 3309.11 1141.41 3308.18C1137.32 3306.79 1133.93 3304.29 1131.43 3301.15L1023 3372.5L1187.32 3594.13C1189.18 3593 1191.2 3592.16 1193.32 3591.63ZM1157.61 3267.88L1419.45 2820.71C1416.14 2818.34 1413.63 2815.1 1412.09 2811.44L1063.38 2921.21L1145.35 3266.06C1148.62 3265.59 1152.05 3265.85 1155.4 3266.98C1156.16 3267.24 1156.9 3267.55 1157.61 3267.88ZM1486.27 2567.51L1324.04 2398.65C1322.24 2400.08 1320.24 2401.22 1318.09 2402.03L1428.03 2781.68C1430.36 2781.23 1432.77 2781.16 1435.2 2781.51L1486.27 2567.51ZM1487.38 2562.87L1613.65 2033.78C1612.37 2033.21 1611.16 2032.51 1610.04 2031.73L1325.74 2366.16C1331.49 2371.83 1333.86 2380.48 1331.09 2388.64C1330.16 2391.39 1328.73 2393.81 1326.94 2395.87L1487.38 2562.87ZM1622.39 1992.2L1650.12 1670.64C1649.07 1670.45 1648.02 1670.21 1646.99 1669.85C1643.14 1668.55 1639.93 1666.26 1637.47 1663.39L1443.77 1800.37L1610.06 1996.14C1613.64 1993.63 1617.93 1992.23 1622.39 1992.2ZM1664.25 1630.11L1871.28 1317.63L1793.1 1245.73L1662.84 1629.4C1663.33 1629.62 1663.79 1629.86 1664.25 1630.11ZM1873.52 1314.24L2073.67 1012.13C2072.97 1011.57 2072.3 1010.97 2071.68 1010.32L1817.45 1209.79C1820.92 1215.17 1822 1222.02 1819.78 1228.56C1816.37 1238.62 1806.32 1244.53 1796.18 1243.1L1873.52 1314.24ZM1995.66 453.45C1992.85 453.66 1989.95 453.31 1987.12 452.35C1982.4 450.75 1978.61 447.67 1976.04 443.83L1654.25 618.21L2072.23 979.53C2074.91 976.96 2078.21 975.11 2081.78 974.17L1995.66 453.45ZM1636.4 581.1C1637.7 585.32 1637.75 589.97 1636.22 594.47C1635.52 596.54 1634.53 598.43 1633.32 600.12L1651 615.4L1959.96 447.97L1636.4 581.1ZM901.38 473.5L1134.29 603.09C1129.7 597.56 1127.96 589.91 1130.3 582.59L901.38 473.5ZM601.66 464.27C601.61 466.45 601.25 468.67 600.51 470.85C599.75 473.09 598.66 475.1 597.32 476.89L704.83 574.09L827.06 458.27C824.73 455.28 823.22 451.7 822.69 447.92L601.66 464.27ZM187.81 752.52C191.35 751.86 195.1 752.06 198.76 753.3C199.15 753.43 199.51 753.6 199.88 753.75L325.81 517.74L32.25 41.34C31.3 41.81 30.3 42.19 29.28 42.52L187.81 752.52ZM612.24 1395.87C615.25 1395.57 618.36 1395.87 621.41 1396.9C623.39 1397.58 625.21 1398.53 626.85 1399.67L917.76 1055.07L508 794.24C505.04 798.08 500.89 800.78 496.28 801.98L612.24 1395.87ZM913.06 1375.56C912.95 1372.96 913.29 1370.3 914.18 1367.69C918.04 1356.32 930.39 1350.23 941.77 1354.09C944.66 1355.07 947.2 1356.6 949.33 1358.53L1126.4 1209.02C1126.02 1208.43 1125.66 1207.83 1125.33 1207.21L635.16 1411.05C635.33 1411.57 635.47 1412.11 635.6 1412.64L913.06 1375.56ZM750.36 2084.58C757.05 2087 761.84 2092.37 763.77 2098.71L1092.72 2031.43C1092.38 2028.37 1092.67 2025.19 1093.73 2022.07C1096.08 2015.15 1101.58 2010.2 1108.09 2008.24L939.59 1395.88C936.42 1396.6 933.05 1396.64 929.71 1395.83L750.36 2084.58ZM724.86 2117.04L466.68 2255.9L790.99 2141.25L759.52 2119.11C753.91 2125.7 744.66 2128.57 735.97 2125.62C731.23 2124.01 727.43 2120.91 724.86 2117.04ZM619.97 2703.02C624.14 2701.78 628.72 2701.75 633.16 2703.26C635.61 2704.09 637.8 2705.34 639.72 2706.87L782.03 2558.92L457.91 2282.07C456.35 2283.59 454.59 2284.85 452.68 2285.83L619.97 2703.02ZM749.5 2993.88C753.89 2992.38 758.78 2992.24 763.52 2993.85C766.55 2994.88 769.19 2996.52 771.38 2998.58L1006.53 2776.07C1003.54 2772.25 1001.87 2767.48 1001.9 2762.54L647.5 2727.96C647.31 2728.93 647.09 2729.89 646.76 2730.85C644.97 2736.12 641.34 2740.24 636.85 2742.78L749.5 2993.88ZM445.2 3791.68C446.37 3793.55 447.24 3795.59 447.8 3797.73L775.87 3715.98L736.37 3583.11C732.85 3583.75 729.13 3583.53 725.51 3582.3C721.94 3581.09 718.89 3579.05 716.51 3576.46L445.2 3791.68ZM663.31 4402.9C665.01 4400.15 667.27 4397.87 669.89 4396.16L589.64 4204.82L391.36 4247.91C391.56 4250.72 391.22 4253.62 390.26 4256.45C389.85 4257.65 389.33 4258.78 388.74 4259.85L663.31 4402.9ZM990.48 4381.53C990.47 4379.18 990.82 4376.8 991.62 4374.46C993.42 4369.16 997.07 4365.03 1001.59 4362.5L936.86 4217.02L698.91 4400.95C700.82 4403.4 702.18 4406.23 702.91 4409.24L990.48 4381.53ZM1298.69 3941.3C1297.85 3940.63 1297.06 3939.92 1296.33 3939.14L940.13 4214.49L1005.26 4360.86C1009.63 4359.38 1014.5 4359.25 1019.21 4360.85C1020.33 4361.23 1021.39 4361.72 1022.41 4362.26L1298.69 3941.3ZM1156.25 3307.86C1155.42 3308.18 1154.56 3308.44 1153.69 3308.66L1197.28 3591.01C1200.02 3590.84 1202.84 3591.18 1205.6 3592.12C1213.2 3594.7 1218.42 3601.08 1219.91 3608.42L1282.9 3601.69C1282.87 3599.28 1283.21 3596.82 1284.04 3594.4C1285.72 3589.43 1289.04 3585.46 1293.18 3582.9L1156.25 3307.86ZM1799.81 2920.46C1798.08 2916.55 1797.49 2912.14 1798.3 2907.73L1452.41 2810.8C1448.26 2821.67 1436.24 2827.4 1425.13 2823.63C1424.37 2823.37 1423.63 2823.07 1422.91 2822.73L1161.08 3269.9C1163.14 3271.38 1164.89 3273.21 1166.3 3275.25L1799.81 2920.46ZM1812.81 2891.02L1615.52 2043.28L1490.69 2566.31L1806.12 2894.64C1808.13 2893.05 1810.39 2891.83 1812.81 2891.02ZM2050.16 1482.15L1874.27 1320.38L1667.6 1632.33C1669.93 1634.2 1671.81 1636.5 1673.18 1639.09L2050.16 1482.15ZM2083.81 1016.65C2082.64 1016.46 2081.46 1016.2 2080.3 1015.8C2079.15 1015.41 2078.06 1014.91 2077.02 1014.35L1876.52 1316.99L2052.11 1478.49L2083.81 1016.65ZM2396.19 879.59C2393.09 877.42 2390.65 874.51 2389.06 871.18L2100.43 977.88C2107.69 983.39 2110.98 993.1 2107.89 1002.2C2104.88 1011.08 2096.68 1016.71 2087.82 1016.93L2056.43 1474.19L2396.19 879.59Z" />
		</g>
		<g id="&lt;Group&gt;">
			<path id="&lt;Compound Path&gt;" fill-rule="evenodd" class="shp0" d="M2311.77 232.84C2309.38 233.65 2306.94 233.85 2304.59 233.55L2187.93 756.05C2192.2 757.7 2195.73 761.16 2197.32 765.83C2200.16 774.2 2195.68 783.29 2187.31 786.13C2178.94 788.97 2169.85 784.49 2167.01 776.12C2166.73 775.29 2166.54 774.45 2166.4 773.61L1978.13 776.97C1977.8 783.33 1973.69 789.14 1967.3 791.31C1965.23 792.02 1963.11 792.27 1961.05 792.12L1875.72 1229.13C1880.55 1230.55 1884.64 1234.21 1886.38 1239.33C1889.22 1247.7 1884.74 1256.79 1876.37 1259.63C1868 1262.47 1858.91 1257.99 1856.07 1249.62C1855.42 1247.7 1855.17 1245.75 1855.24 1243.83L1651.12 1216.55C1649.91 1221.77 1646.13 1226.28 1640.68 1228.13L1642.11 1227.76L1774.07 1734.51C1781.65 1733.26 1789.25 1737.62 1791.8 1745.14C1793.11 1749.01 1792.85 1753.03 1791.36 1756.52L1984.19 1860.24C1986.08 1857.39 1988.88 1855.11 1992.37 1853.93C2000.74 1851.09 2009.82 1855.57 2012.67 1863.94C2015.51 1872.31 2011.03 1881.39 2002.66 1884.23C1999.39 1885.34 1996.03 1885.32 1992.96 1884.41L1869.88 2191.34C1873.45 2193.17 1876.34 2196.32 1877.73 2200.42C1880.58 2208.79 1876.09 2217.88 1867.72 2220.72C1864.24 2221.9 1860.64 2221.8 1857.41 2220.7L1774.54 2405.44C1777.84 2407.3 1780.51 2410.33 1781.83 2414.21C1784.67 2422.58 1780.19 2431.66 1771.82 2434.51C1770.93 2434.81 1770.04 2435.01 1769.15 2435.15L1785.45 2806.01C1791.69 2806.44 1797.36 2810.54 1799.5 2816.83C1801.11 2821.57 1800.37 2826.54 1797.9 2830.48L1997.5 2988.82C1999.26 2986.91 2001.5 2985.4 2004.13 2984.5C2012.5 2981.66 2021.59 2986.14 2024.43 2994.51C2027.27 3002.88 2022.79 3011.97 2014.42 3014.81C2014.36 3014.83 2014.3 3014.84 2014.24 3014.86L2052.19 3311.99C2058.51 3312.34 2064.28 3316.45 2066.44 3322.81C2069.29 3331.18 2064.8 3340.27 2056.44 3343.11C2049.93 3345.32 2043.01 3343.09 2038.91 3338.07L1836.56 3443.5C1836.64 3443.71 1836.74 3443.91 1836.81 3444.12C1839.65 3452.49 1835.17 3461.58 1826.8 3464.42C1818.43 3467.26 1809.35 3462.78 1806.5 3454.41C1805.83 3452.43 1805.58 3450.41 1805.69 3448.43L1594.27 3428.06C1593.22 3433.53 1589.36 3438.3 1583.7 3440.21C1575.34 3443.06 1566.25 3438.57 1563.41 3430.21C1561.18 3423.64 1563.47 3416.65 1568.59 3412.56L1365.33 3102.86C1364.58 3103.25 1363.8 3103.61 1362.97 3103.89C1354.61 3106.74 1345.52 3102.25 1342.68 3093.89C1339.83 3085.52 1344.32 3076.43 1352.68 3073.59C1354.02 3073.13 1355.38 3072.89 1356.73 3072.79L1361.58 2867.05C1355.64 2866.36 1350.33 2862.36 1348.27 2856.32C1345.43 2847.95 1349.91 2838.86 1358.28 2836.02C1361.98 2834.76 1365.82 2834.94 1369.2 2836.25L1469.94 2633.9C1466.89 2632.02 1464.46 2629.1 1463.21 2625.44C1461.87 2621.48 1462.18 2617.36 1463.76 2613.81L997.68 2352.78C995.79 2355.53 993.05 2357.72 989.66 2358.87C981.29 2361.71 972.2 2357.23 969.36 2348.86C966.52 2340.49 971 2331.41 979.37 2328.57C981.8 2327.74 984.3 2327.55 986.68 2327.88L1133.07 1698.88C1125.18 1700.67 1117.05 1696.25 1114.4 1688.42C1111.55 1680.05 1116.04 1670.96 1124.4 1668.12C1125.17 1667.86 1125.94 1667.68 1126.71 1667.54L1106.31 1430.97C1099.68 1430.93 1093.51 1426.75 1091.26 1420.12C1090.13 1416.79 1090.18 1413.35 1091.15 1410.23L813.88 1294.8L814.16 1298.84L811.21 1293.68L809.54 1292.99L810.38 1292.22L557.81 850.21C557.33 850.42 556.84 850.62 556.33 850.79C547.96 853.64 538.87 849.15 536.03 840.79C533.19 832.42 537.67 823.33 546.04 820.49C554.41 817.65 563.5 822.13 566.34 830.5C567.4 833.61 567.44 836.82 566.64 839.78L781.26 919.12C781.66 918.95 782.06 918.78 782.48 918.64C784.56 917.93 786.7 917.68 788.77 917.83L852.12 534.74C847.1 533.41 842.82 529.69 841.03 524.41C838.18 516.04 842.66 506.95 851.03 504.11C859.4 501.27 868.49 505.75 871.33 514.12C872.46 517.43 872.42 520.85 871.46 523.95L1120.47 626.4C1122.31 622.89 1125.44 620.05 1129.49 618.67C1134.92 616.83 1140.64 618.08 1144.78 621.47L1279.63 485.13C1278.38 483.65 1277.38 481.94 1276.72 480C1273.88 471.63 1278.36 462.54 1286.73 459.7C1295.1 456.86 1304.18 461.34 1307.03 469.71C1308.75 474.79 1307.77 480.12 1304.86 484.17L1465.4 623.54C1467.04 621.98 1469.02 620.72 1471.31 619.95C1478.82 617.4 1486.89 620.75 1490.53 627.51L1686.96 533.9C1684.24 525.58 1688.71 516.61 1697.02 513.79C1705.39 510.95 1714.47 515.43 1717.32 523.8C1717.81 525.26 1718.07 526.74 1718.14 528.2L1880.83 540.23C1881.77 534.62 1885.69 529.69 1891.46 527.73C1892.96 527.22 1894.48 526.96 1895.99 526.9L1909.3 279.26C1903.55 278.41 1898.47 274.46 1896.47 268.58C1893.63 260.21 1898.11 251.12 1906.48 248.28C1914.85 245.44 1923.94 249.92 1926.78 258.29C1926.99 258.9 1927.15 259.52 1927.28 260.14L2290.62 218.06C2290.46 211.25 2294.69 204.84 2301.48 202.54C2309.85 199.7 2318.93 204.18 2321.77 212.55C2324.62 220.91 2320.13 230 2311.77 232.84ZM2173.57 757.5L2081.76 585.43L1972 763.55C1974.38 765.4 1976.27 767.94 1977.31 771.01C1977.65 772.01 1977.88 773.02 1978.01 774.02L2166.18 770.66C2166.29 765.36 2169.04 760.38 2173.57 757.5ZM1859.82 1233.26L1645.54 979.44L1495.43 1074.99C1495.78 1075.68 1496.11 1076.39 1496.36 1077.14C1497.49 1080.48 1497.45 1083.92 1496.47 1087.04L1857.09 1237C1857.81 1235.64 1858.73 1234.38 1859.82 1233.26ZM1760.75 1748.54L1524.07 1700.13L1737.9 1775.73L1762.77 1758.24C1762.26 1757.36 1761.83 1756.43 1761.49 1755.43C1760.72 1753.14 1760.5 1750.8 1760.75 1748.54ZM1850.48 2195.12L1745.65 2086.15L1583.23 2224.88C1584.09 2226.11 1584.81 2227.47 1585.31 2228.96C1585.55 2229.66 1585.72 2230.37 1585.86 2231.09L1846.59 2205.64C1846.57 2201.75 1847.98 2198.02 1850.48 2195.12ZM2034.04 3193.19L2011.34 3015.52C2009.8 3015.73 2008.25 3015.69 2006.75 3015.45L1890.61 3292.35L2035.82 3323.9C2037.14 3318.88 2040.86 3314.6 2046.15 3312.8C2047.16 3312.46 2048.19 3312.22 2049.22 3312.09L2034.04 3193.19ZM1253.91 2266.69C1252.5 2259.01 1256.87 2251.25 1264.49 2248.66C1264.49 2248.66 1264.49 2248.66 1264.5 2248.66L1227.36 2093.07L996.61 2333.26C997.8 2334.62 998.76 2336.22 999.44 2338L1253.91 2266.69ZM1688.64 537.47L1307.58 749.5C1307.77 749.93 1307.95 750.36 1308.1 750.81C1309.22 754.11 1309.19 757.52 1308.24 760.61L1532.11 852.19C1533.95 848.66 1537.08 845.81 1541.14 844.43C1544.72 843.22 1548.42 843.35 1551.72 844.54L1693.58 542.44C1691.62 541.19 1689.92 539.51 1688.64 537.47ZM1696.21 543.78L1554.39 845.8C1555.36 846.37 1556.28 847.03 1557.12 847.8L1802.5 625.97L1712.76 540.93C1711.22 542.3 1709.38 543.39 1707.31 544.09C1703.54 545.37 1699.64 545.16 1696.21 543.78ZM1959.62 759.38L1912.07 282.75L1898.94 527.06C1904.69 527.91 1909.77 531.86 1911.76 537.74C1914.53 545.89 1910.34 554.71 1902.38 557.79L1959.62 759.38ZM1806.85 626.02L1952.14 763.7C1953.56 762.56 1955.18 761.63 1957.01 761.01L1899.54 558.6C1894.49 559.54 1889.41 558 1885.78 554.66L1806.85 626.02ZM1804.65 628L1559.09 850C1560.08 851.31 1560.88 852.8 1561.44 854.44C1561.5 854.62 1561.54 854.81 1561.6 854.99L1946.23 777.59C1945.84 773.24 1947.26 768.98 1950.02 765.76L1804.65 628ZM1620.18 1208.5L1475.48 1162.46L1462.38 1279.57C1466.71 1280.47 1470.58 1283.13 1472.9 1287.06L1620.11 1217.18C1619.31 1214.24 1619.38 1211.25 1620.18 1208.5ZM1372.67 3094.7L1645.81 3235C1646.56 3233.81 1647.48 3232.72 1648.53 3231.76L1418.51 2926.68L1364.67 3074.29C1368.45 3076.08 1371.53 3079.33 1372.98 3083.6C1374.26 3087.37 1374.05 3091.28 1372.67 3094.7ZM1437.36 2874.97L1419.71 2923.37L1646.82 3224.58L1448.01 2874.09C1447.54 2874.29 1447.07 2874.49 1446.58 2874.65C1443.49 2875.7 1440.3 2875.75 1437.36 2874.97ZM1662.42 3227.9L1748.73 2937.6L1456.52 2864.78C1455.42 2867.91 1453.37 2870.68 1450.57 2872.62L1652.73 3229C1653.19 3228.79 1653.66 3228.6 1654.16 3228.43C1656.92 3227.49 1659.75 3227.37 1662.42 3227.9ZM1770.37 2814.22L1573.1 2684.4L1452.11 2847.59C1454.09 2849.36 1455.67 2851.65 1456.59 2854.36C1456.8 2855 1456.96 2855.65 1457.1 2856.3L1768.35 2822.17C1768.32 2819.35 1769.04 2816.62 1770.37 2814.22ZM1756.69 2431.84C1756.14 2431.41 1755.62 2430.93 1755.13 2430.42L1492.3 2612.44C1492.78 2613.3 1493.2 2614.2 1493.52 2615.15C1495 2619.51 1494.48 2624.05 1492.48 2627.81L1572.39 2680.4L1756.69 2431.84ZM1750.87 2416.85L1543.74 2351.65L1483.49 2605.15C1486.24 2606.09 1488.72 2607.76 1490.62 2610.02L1753.29 2428.1C1752.57 2427 1751.96 2425.8 1751.52 2424.5C1750.65 2421.95 1750.48 2419.34 1750.87 2416.85ZM1565.04 2249.25C1560.49 2247.71 1556.67 2244.15 1555.01 2239.25C1554.77 2238.55 1554.6 2237.84 1554.46 2237.14L1285.63 2263.72C1285.63 2264.9 1285.51 2266.06 1285.26 2267.19L1541.6 2347.88L1565.04 2249.25ZM1102.69 1399.42C1105.81 1398.67 1108.97 1398.9 1111.83 1399.93L1209.65 1191.02L1013.66 1107.9C1012.03 1110.94 1009.43 1113.45 1006.1 1114.94L1102.69 1399.42ZM1281.73 487.21L1146.88 623.54C1148.12 625.02 1149.13 626.74 1149.78 628.68C1150.21 629.92 1150.45 631.18 1150.56 632.43L1291 633.15L1290.46 490.79C1287.24 490.5 1284.2 489.24 1281.73 487.21ZM1148.14 642.38L1281.23 745.05C1282.98 743.17 1285.2 741.68 1287.81 740.8C1289 740.39 1290.21 740.15 1291.41 740.04L1291.01 636.11L1150.55 635.38C1150.3 637.89 1149.47 640.28 1148.14 642.38ZM1293.97 636.12L1294.37 740.02C1298.71 740.41 1302.74 742.57 1305.47 746L1462.66 643.21C1462.12 642.29 1461.66 641.3 1461.3 640.24C1460.93 639.16 1460.69 638.07 1460.56 636.98L1293.97 636.12ZM1530.99 854.92L1307.13 763.35C1305.97 765.57 1304.29 767.53 1302.19 769.01L1414.32 963.39L1532.94 868.38C1532.2 867.26 1531.58 866.05 1531.13 864.73C1530.01 861.43 1530.04 858.02 1530.99 854.92ZM1471.97 1069.23L1413.48 967.84L1270.26 1082.56C1271 1083.67 1271.62 1084.89 1272.07 1086.21C1272.2 1086.61 1272.31 1087.01 1272.41 1087.41L1465.22 1082.17C1465.26 1077.04 1467.76 1072.2 1471.97 1069.23ZM1568.63 2218.19L1567.72 1913.91C1566.26 1914 1564.82 1913.9 1563.42 1913.61L1441.29 2060.16L1561.77 2220.49C1562.77 2219.87 1563.85 2219.34 1565.01 2218.95C1566.21 2218.54 1567.43 2218.3 1568.63 2218.19ZM1370.1 1965.43L1439.46 2057.73L1560.38 1912.65C1558.48 1911.84 1556.76 1910.66 1555.29 1909.18L1415.91 1941.94L1374.95 1951.57C1375.69 1956.76 1373.81 1961.92 1370.1 1965.43ZM1439.34 2062.49L1280.96 2252.53C1282.63 2254.21 1283.97 2256.27 1284.79 2258.67C1285.02 2259.37 1285.19 2260.07 1285.33 2260.78L1342.21 2255.15L1554.16 2234.2C1554.14 2229.64 1556.06 2225.29 1559.41 2222.25L1439.34 2062.49ZM1550.71 1896.77L1426.86 1834.47L1368.28 1940.71C1370.98 1942.59 1373.13 1945.31 1374.27 1948.66C1374.27 1948.67 1374.28 1948.68 1374.28 1948.69L1553.24 1906.63C1552.55 1905.55 1551.95 1904.37 1551.52 1903.1C1550.81 1901 1550.56 1898.85 1550.71 1896.77ZM1493.71 1707.11C1491.27 1705.25 1489.34 1702.67 1488.28 1699.55C1487.87 1698.33 1487.63 1697.09 1487.52 1695.87L1457.58 1694.94L1145.41 1685.24C1145.25 1686.58 1144.93 1687.88 1144.44 1689.11L1425.64 1830.56L1493.71 1707.11ZM1443.58 1298.95C1442.88 1296.03 1443.05 1293.08 1443.91 1290.37L1212.37 1192.17L1114.5 1401.19C1117.31 1402.83 1119.62 1405.32 1121.02 1408.46L1443.58 1298.95ZM929.97 1043.83L987.96 1089.33C989.7 1087.5 991.88 1086.04 994.44 1085.17C999.47 1083.47 1004.75 1084.42 1008.78 1087.25L1060.14 1026.97L802.14 940.49C801.8 941.23 801.4 941.93 800.96 942.61L929.97 1043.83ZM1252.39 1106.7L1213.62 1189.5L1445.06 1287.65C1445.58 1286.7 1446.19 1285.8 1446.88 1284.96L1267.08 1103.7C1265.62 1104.9 1263.95 1105.87 1262.06 1106.51C1258.81 1107.61 1255.45 1107.6 1252.39 1106.7ZM1268.42 1080.25L1411.99 965.26L1299.63 770.49C1299.14 770.72 1298.62 770.93 1298.09 771.11C1296.31 771.71 1294.5 771.97 1292.72 771.94L1260.08 1075.68C1263.25 1076.33 1266.16 1077.92 1268.42 1080.25ZM1065.22 1025.55L1242.29 1084.9C1244.04 1080.95 1247.36 1077.7 1251.77 1076.2C1253.55 1075.6 1255.37 1075.34 1257.15 1075.37L1289.78 771.62C1287.61 771.18 1285.56 770.3 1283.75 769.03L1065.22 1025.55ZM1063.16 1027.98L1011.03 1089.17C1012.65 1090.82 1013.94 1092.84 1014.74 1095.18C1015.09 1096.21 1015.32 1097.25 1015.46 1098.29L1104.4 1095.15L1240.95 1090.33C1241 1089.44 1241.15 1088.56 1241.35 1087.7L1063.16 1027.98ZM1014.81 1105.18L1210.9 1188.34L1249.64 1105.6C1246.06 1103.77 1243.16 1100.61 1241.76 1096.5C1241.41 1095.47 1241.17 1094.43 1241.04 1093.39L1015.56 1101.25C1015.48 1102.6 1015.22 1103.92 1014.81 1105.18ZM1265.4 1525.6L1490.6 1684.86C1492.47 1682.34 1495.1 1680.34 1498.29 1679.25C1498.52 1679.18 1498.75 1679.13 1498.98 1679.06L1474.6 1452.61L1459.38 1311.22C1455.98 1311.27 1452.69 1310.22 1449.96 1308.31L1265.4 1525.6ZM1459.44 1279.24L1472.61 1161.54L1271.63 1097.59C1271.13 1098.79 1270.49 1099.92 1269.71 1100.97L1449.02 1282.85C1450.46 1281.67 1452.13 1280.71 1454 1280.07C1455.8 1279.46 1457.64 1279.2 1459.44 1279.24ZM803.22 930.21C803.81 932.75 803.74 935.31 803.13 937.71L1062.21 1024.54L1281.5 767.11C1280.25 765.83 1279.19 764.34 1278.41 762.64L803.22 930.21ZM1120.26 1422.97L1262.98 1523.89L1447.71 1306.4C1446.41 1305.07 1445.32 1303.52 1444.53 1301.74L1121.97 1411.26C1122.96 1415.35 1122.25 1419.52 1120.26 1422.97ZM1140.98 1672.1C1142.61 1673.76 1143.91 1675.78 1144.7 1678.13C1145.17 1679.51 1145.42 1680.9 1145.51 1682.29L1487.51 1692.91C1487.7 1690.98 1488.22 1689.11 1489.06 1687.39L1263.48 1527.86L1140.98 1672.1ZM1140.99 1694.45L1350.19 1940.54C1351.34 1939.77 1352.6 1939.12 1353.97 1938.65C1357.98 1937.29 1362.14 1937.62 1365.72 1939.24L1424.22 1833.15L1143.12 1691.75C1142.51 1692.72 1141.79 1693.62 1140.99 1694.45ZM1356.38 1969.57L1275.48 2248.93C1276.61 2249.37 1277.68 2249.95 1278.69 2250.64L1437.52 2060.06L1367.77 1967.25C1366.69 1967.94 1365.53 1968.53 1364.26 1968.96C1361.63 1969.85 1358.93 1970.02 1356.38 1969.57ZM1560.8 1883.09L1505.54 1710.27C1502.28 1710.7 1499.04 1710.11 1496.22 1708.68L1428.29 1831.88L1551.24 1893.73C1552.53 1889.02 1555.97 1884.99 1560.8 1883.09ZM1479.7 1098.21C1473.62 1097.63 1468.15 1093.59 1466.06 1087.43C1465.79 1086.67 1465.62 1085.89 1465.48 1085.12L1272.87 1090.36C1272.97 1091.86 1272.85 1093.34 1272.53 1094.78L1472.95 1158.55L1479.7 1098.21ZM1484.26 1066.59L1540.4 874.45C1538.29 873.62 1536.38 872.34 1534.78 870.69L1415.82 965.98L1474.53 1067.75C1475.02 1067.52 1475.54 1067.32 1476.06 1067.14C1478.8 1066.21 1481.61 1066.07 1484.26 1066.59ZM1464.39 645.61L1328.4 734.54L1478.62 650.95C1473.23 651.69 1467.89 649.62 1464.39 645.61ZM1463.47 625.77L1302.93 486.4C1301.29 487.97 1299.31 489.23 1297.02 490C1295.82 490.41 1294.62 490.65 1293.41 490.77L1293.96 633.17L1460.49 634.02C1460.69 631.03 1461.74 628.18 1463.47 625.77ZM1123.55 645.36L1111.38 655.88L1277.5 745.9L1146.35 644.73C1144.6 646.61 1142.38 648.09 1139.78 648.98C1133.92 650.97 1127.72 649.36 1123.55 645.36ZM1108.99 657.94L800.64 924.49C801.15 925.21 801.6 925.97 801.99 926.78L803 927.16L1277.44 759.85C1276.56 756.35 1276.91 752.8 1278.25 749.67L1108.99 657.94ZM797.65 946.25L944.89 1168.51L1001.8 1116.17C994.34 1117.22 986.94 1112.87 984.43 1105.47C982.8 1100.66 983.59 1095.62 986.14 1091.66L799.11 944.92C798.65 945.39 798.16 945.83 797.65 946.25ZM946.55 1171L1098.85 1400.89C1099.2 1400.71 1099.54 1400.53 1099.89 1400.37L1004.06 1118.1L946.55 1171ZM1109.25 1430.71L1129.65 1667.28C1132.93 1667.31 1136.09 1668.34 1138.73 1670.19L1261.06 1526.15L1118.56 1425.38C1116.75 1427.49 1114.38 1429.17 1111.56 1430.13C1110.79 1430.39 1110.02 1430.57 1109.25 1430.71ZM1138.74 1696.37C1137.91 1696.94 1137.03 1697.45 1136.08 1697.88L1228.98 2087.13L1347.02 1964.27C1345.7 1962.75 1344.65 1960.97 1343.96 1958.95C1341.92 1952.94 1343.67 1946.58 1347.9 1942.41L1138.74 1696.37ZM1229.8 2090.54L1267.37 2247.98C1269.16 2247.73 1270.93 2247.78 1272.64 2248.11L1353.53 1968.8C1351.95 1968.21 1350.47 1967.36 1349.15 1966.31L1229.8 2090.54ZM1278.96 2276.82L1471.59 2605.8C1472.12 2605.56 1472.66 2605.34 1473.22 2605.14C1475.68 2604.31 1478.21 2604.12 1480.62 2604.47L1540.91 2350.76L1284.37 2270C1283.24 2272.7 1281.39 2275.07 1278.96 2276.82ZM1477.39 2636.27L1445.32 2843.99C1446.88 2844.38 1448.37 2845 1449.73 2845.83L1570.63 2682.78L1490.86 2630.28C1489.01 2632.59 1486.52 2634.43 1483.51 2635.45C1481.48 2636.14 1479.41 2636.39 1477.39 2636.27ZM1425.45 2859.28L1379.1 2854.33C1378.43 2857.65 1376.72 2860.7 1374.2 2863L1417.59 2920.56L1434.59 2873.96C1430.81 2872.17 1427.73 2868.92 1426.28 2864.65C1425.67 2862.87 1425.42 2861.06 1425.45 2859.28ZM1364.53 2867.12L1359.68 3072.86C1360.43 3072.95 1361.17 3073.08 1361.9 3073.27L1416.39 2923.86L1371.84 2864.78C1370.83 2865.4 1369.74 2865.93 1368.57 2866.33C1367.23 2866.78 1365.88 2867.03 1364.53 2867.12ZM1371.43 3097.39L1632.83 3299.45L1651.48 3257.53C1648.15 3255.66 1645.47 3252.63 1644.15 3248.73C1642.87 3244.96 1643.08 3241.05 1644.46 3237.63L1371.43 3097.39ZM1635.24 3301.31L1811.1 3437.25C1811.35 3437.02 1811.63 3436.81 1811.9 3436.6L1668.09 3256.94C1666.98 3257.67 1665.77 3258.29 1664.45 3258.74C1660.98 3259.92 1657.4 3259.82 1654.18 3258.73L1635.24 3301.31ZM1827.78 3434.5L1886.52 3294.48L1674.54 3248.41C1673.74 3250.93 1672.32 3253.23 1670.4 3255.09L1814.42 3435.02C1815.09 3434.68 1815.78 3434.37 1816.51 3434.12C1820.34 3432.82 1824.32 3433.06 1827.78 3434.5ZM1887.68 3291.71L2003.87 3014.71C2001.99 3014.03 2000.25 3013.01 1998.75 3011.69L1673.26 3235.77C1673.72 3236.61 1674.13 3237.5 1674.45 3238.44C1675.25 3240.8 1675.45 3243.21 1675.17 3245.52L1887.68 3291.71ZM1993.31 2998.54L1751.6 2938.31L1665.25 3228.74C1667.69 3229.72 1669.87 3231.29 1671.58 3233.34L1996.69 3009.52C1995.61 3008.13 1994.72 3006.56 1994.12 3004.8C1993.42 3002.72 1993.17 3000.6 1993.31 2998.54ZM1778.65 2836.93C1774.35 2835.29 1770.79 2831.82 1769.19 2827.12C1768.97 2826.45 1768.8 2825.78 1768.67 2825.11L1457.43 2859.23C1457.45 2860.14 1457.38 2861.04 1457.24 2861.92L1749.57 2934.76L1778.65 2836.93ZM1782.5 2806.08L1766.2 2435.33C1763.72 2435.26 1761.32 2434.61 1759.16 2433.47L1574.86 2682.03L1772.03 2811.78C1773.86 2809.57 1776.29 2807.81 1779.2 2806.82C1780.29 2806.45 1781.4 2806.21 1782.5 2806.08ZM1753.78 2409.89L1580.72 2246.13C1579.18 2247.48 1577.36 2248.56 1575.3 2249.26C1572.84 2250.09 1570.32 2250.28 1567.91 2249.94L1544.42 2348.77L1751.61 2413.99C1752.13 2412.52 1752.86 2411.14 1753.78 2409.89ZM1743.6 2084.01L1576.65 1910.45C1575.24 1911.58 1573.62 1912.49 1571.82 1913.11C1571.44 1913.24 1571.06 1913.33 1570.67 1913.43L1571.59 2218.17C1575.25 2218.5 1578.68 2220.09 1581.31 2222.64L1743.6 2084.01ZM1745.85 2082.09L1984.44 1878.3C1983.58 1877.08 1982.86 1875.72 1982.36 1874.23C1982.07 1873.36 1981.87 1872.49 1981.73 1871.62L1582.66 1898.36C1582.56 1902.08 1581.17 1905.62 1578.77 1908.4L1745.85 2082.09ZM1982.01 1865.17L1738.35 1779.02L1580.55 1890C1581.06 1890.88 1581.49 1891.81 1581.83 1892.81C1582.12 1893.67 1582.32 1894.54 1582.46 1895.42L1981.53 1868.67C1981.56 1867.48 1981.72 1866.3 1982.01 1865.17ZM1734.93 1777.82L1517.95 1701.11C1516.18 1704.95 1512.91 1708.09 1508.58 1709.56C1508.53 1709.58 1508.48 1709.59 1508.43 1709.6L1563.64 1882.26C1569.38 1881.14 1575.18 1883.27 1578.85 1887.59L1734.93 1777.82ZM1505.12 1678.51L1629.18 1227.65C1625.75 1226.16 1622.86 1223.49 1621.15 1219.96L1474.16 1289.73C1474.2 1289.85 1474.25 1289.96 1474.29 1290.08C1477.14 1298.45 1472.66 1307.54 1464.29 1310.38C1463.63 1310.6 1462.97 1310.76 1462.32 1310.89L1501.89 1678.49C1502.97 1678.38 1504.06 1678.39 1505.12 1678.51ZM1622.82 1203.26L1492.71 1093.41C1490.99 1095.18 1488.85 1096.59 1486.35 1097.44C1485.13 1097.86 1483.9 1098.1 1482.67 1098.21L1475.82 1159.46L1621.27 1205.75C1621.71 1204.88 1622.22 1204.04 1622.82 1203.26ZM1643.61 977.16L1555.43 872.7C1554.22 873.54 1552.89 874.24 1551.43 874.74C1548.69 875.67 1545.88 875.8 1543.24 875.28L1487.09 1067.42C1489.73 1068.46 1492.07 1070.2 1493.85 1072.49L1643.61 977.16ZM1646.13 975.56L1947.93 783.45C1947.58 782.76 1947.26 782.05 1947 781.3C1946.91 781.03 1946.85 780.76 1946.77 780.49L1562.19 857.89C1562.71 862.7 1560.99 867.43 1557.68 870.8L1646.13 975.56ZM2080.15 582.41L1917.82 278.17C1917.47 278.32 1917.13 278.47 1916.77 278.59C1916.08 278.82 1915.38 278.99 1914.68 279.13L1962.66 760.18C1965.07 760.26 1967.41 760.87 1969.51 761.96L2080.15 582.41ZM2081.94 579.5L2297.01 230.48C2294.52 228.61 2292.54 226 2291.47 222.84C2291.26 222.22 2291.1 221.61 2290.97 220.99L1927.63 263.07C1927.76 268.55 1925.03 273.75 1920.43 276.78L2081.94 579.5ZM1880.61 543.18L1718 531.16C1717.61 533.94 1716.5 536.57 1714.78 538.77L1804.7 623.98L1883.8 552.47C1882.82 551.15 1882.01 549.67 1881.46 548.03C1880.91 546.42 1880.64 544.79 1880.61 543.18ZM1660.1 549.97L1491.69 630.23C1493.41 635.61 1492.12 641.25 1488.75 645.31L1660.1 549.97ZM1119.35 629.13L881.3 531.19L1108.6 654.37L1121.61 643.13C1120.72 641.88 1119.99 640.49 1119.48 638.97C1118.35 635.66 1118.39 632.24 1119.35 629.13ZM791.68 918.32C794.31 919.01 796.73 920.37 798.7 922.26L1106.21 656.44L869.47 528.14C867.58 530.97 864.79 533.24 861.32 534.41C859.24 535.12 857.1 535.38 855.04 535.23L791.68 918.32ZM810.33 1286.18L787.24 949.78C780.72 949.62 774.69 945.47 772.47 938.94C770.2 932.24 772.62 925.1 777.96 921.05L565.61 842.55C564.44 845 562.65 847.14 560.37 848.74L810.33 1286.18ZM942.69 1170.53L795.18 947.88C794.41 948.29 793.62 948.66 792.77 948.95C791.91 949.24 791.05 949.43 790.19 949.57L813.51 1289.34L942.69 1170.53ZM1092.29 1407.5C1093.29 1405.6 1094.68 1403.9 1096.39 1402.53L944.34 1173.03L814.94 1292.04L1092.29 1407.5ZM989.56 2328.55C991.34 2329.14 993.01 2330.04 994.48 2331.21L1226.55 2089.66L1134.71 1704.87L989.56 2328.55ZM1465.2 2611.23C1466.24 2609.73 1467.52 2608.38 1469.04 2607.29L1276.41 2278.31C1275.88 2278.55 1275.34 2278.78 1274.78 2278.97C1266.6 2281.74 1257.76 2277.53 1254.71 2269.53L1000.24 2340.85C1000.83 2344.09 1000.4 2347.33 999.12 2350.21L1465.2 2611.23ZM1371.85 2837.57C1374.9 2839.45 1377.34 2842.37 1378.58 2846.03C1379.19 2847.81 1379.44 2849.62 1379.42 2851.39L1425.76 2856.34C1426.85 2850.94 1430.69 2846.25 1436.29 2844.35C1438.32 2843.66 1440.39 2843.41 1442.4 2843.53L1474.48 2635.81C1473.84 2635.65 1473.2 2635.45 1472.59 2635.22L1371.85 2837.57ZM1571.06 3410.94C1571.81 3410.55 1572.59 3410.19 1573.42 3409.91C1576.88 3408.73 1580.46 3408.83 1583.68 3409.92L1631.59 3302.23L1369.53 3099.65C1369 3100.23 1368.42 3100.75 1367.8 3101.24L1571.06 3410.94ZM1806.12 3445.51C1806.66 3443.29 1807.66 3441.21 1809.06 3439.41L1634 3304.09L1586.38 3411.12C1589.71 3412.98 1592.39 3416.02 1593.71 3419.92C1594.3 3421.64 1594.56 3423.39 1594.55 3425.12L1806.12 3445.51ZM2037.25 3335.6C2036.82 3334.81 2036.44 3333.98 2036.14 3333.1C2035.43 3331.02 2035.18 3328.89 2035.33 3326.82L1889.45 3295.12L1830.41 3435.89C1832.33 3437.14 1834 3438.82 1835.25 3440.85L2037.25 3335.6ZM1796.11 2832.83C1794.36 2834.73 1792.12 2836.24 1789.49 2837.13C1786.83 2838.03 1784.09 2838.19 1781.5 2837.72L1752.44 2935.48L1993.8 2995.62C1994.21 2994.04 1994.86 2992.54 1995.71 2991.17L1796.11 2832.83ZM1854.72 2219.49C1851.41 2217.62 1848.74 2214.59 1847.43 2210.71C1847.19 2210.01 1847.02 2209.3 1846.88 2208.58L1586.15 2234.03C1586.17 2237.66 1584.94 2241.17 1582.74 2243.98L1755.74 2407.68C1757.35 2406.17 1759.3 2404.96 1761.53 2404.2C1765.01 2403.02 1768.61 2403.12 1771.84 2404.22L1854.72 2219.49ZM1990.21 1883.31C1988.81 1882.59 1987.51 1881.66 1986.36 1880.55L1747.91 2084.22L1852.61 2193.07C1854.02 2191.94 1855.63 2191.03 1857.44 2190.41C1860.7 2189.31 1864.07 2189.32 1867.14 2190.24L1990.21 1883.31ZM1789.97 1759.13C1788.08 1761.98 1785.28 1764.25 1781.79 1765.44C1775.4 1767.61 1768.6 1765.5 1764.47 1760.65L1741.31 1776.94L1979.91 1861.29L1789.97 1759.13ZM1639.26 1228.54C1636.8 1229.13 1634.33 1229.1 1631.99 1228.57L1508.03 1679.09C1512.81 1680.53 1516.86 1684.17 1518.59 1689.26C1519.37 1691.55 1519.58 1693.89 1519.33 1696.15L1761.35 1745.65C1762.77 1740.98 1766.29 1737.03 1771.2 1735.25L1639.26 1228.54ZM1855.64 1240.9C1855.73 1240.51 1855.84 1240.12 1855.96 1239.73L1495.34 1089.77C1495.1 1090.22 1494.84 1090.67 1494.55 1091.1L1624.82 1201.09C1626.39 1199.68 1628.26 1198.55 1630.39 1197.83C1638.76 1194.98 1647.85 1199.47 1650.69 1207.83C1651.34 1209.76 1651.59 1211.71 1651.51 1213.62L1855.64 1240.9ZM1958.13 791.64C1954.74 790.76 1951.69 788.77 1949.51 785.94L1648.05 977.84L1862.08 1231.36C1863.28 1230.52 1864.62 1229.82 1866.08 1229.32C1868.32 1228.56 1870.61 1228.34 1872.82 1228.57L1958.13 791.64ZM2301.71 232.9C2300.96 232.66 2300.22 232.38 2299.52 232.03L2083.55 582.52L2176.2 756.15C2176.47 756.04 2176.74 755.92 2177.02 755.83C2179.71 754.91 2182.47 754.76 2185.08 755.25L2301.71 232.9Z" />
		</g>
		<g id="&lt;Group&gt;" style="mix-blend-mode: screen">
			<path id="&lt;Path&gt;" class="shp1" d="M1953.59 1191.47C1961.47 1176.94 1979.64 1171.54 1994.18 1179.42C2008.72 1187.31 2014.12 1205.48 2006.23 1220.02C1998.35 1234.56 1980.18 1239.95 1965.64 1232.07C1951.1 1224.19 1945.7 1206.01 1953.59 1191.47Z" />
		</g>
		<g id="&lt;Group&gt;" style="mix-blend-mode: screen">
			<path id="&lt;Path&gt;" class="shp2" d="M1744.05 1655.91C1751.93 1641.38 1770.11 1635.98 1784.64 1643.86C1799.18 1651.74 1804.58 1669.92 1796.7 1684.46C1788.81 1699 1770.64 1704.39 1756.1 1696.51C1741.56 1688.63 1736.17 1670.45 1744.05 1655.91Z" />
		</g>
		<g id="&lt;Group&gt;" style="mix-blend-mode: screen">
			<path id="&lt;Path&gt;" class="shp3" d="M1888.36 2454.69C1896.24 2440.15 1914.41 2434.76 1928.95 2442.64C1943.49 2450.52 1948.89 2468.7 1941 2483.24C1933.12 2497.77 1914.94 2503.17 1900.41 2495.29C1885.87 2487.4 1880.47 2469.23 1888.36 2454.69Z" />
		</g>
		<g id="&lt;Group&gt;" style="mix-blend-mode: screen">
			<path id="&lt;Path&gt;" class="shp4" d="M1172.48 837.91C1180.36 823.38 1198.54 817.98 1213.08 825.86C1227.61 833.75 1233.01 851.92 1225.13 866.46C1217.24 881 1199.07 886.39 1184.53 878.51C1169.99 870.63 1164.6 852.45 1172.48 837.91Z" />
		</g>
		<g id="&lt;Group&gt;" style="mix-blend-mode: screen">
			<path id="&lt;Path&gt;" class="shp5" d="M1287.73 1685.66C1295.61 1671.13 1313.78 1665.73 1328.32 1673.61C1342.86 1681.5 1348.26 1699.67 1340.37 1714.21C1332.49 1728.75 1314.31 1734.14 1299.78 1726.26C1285.24 1718.38 1279.84 1700.2 1287.73 1685.66Z" />
		</g>
		<g id="&lt;Group&gt;" style="mix-blend-mode: screen">
			<path id="&lt;Path&gt;" class="shp6" d="M1396.84 2385.65C1404.72 2371.11 1422.9 2365.72 1437.44 2373.6C1451.97 2381.48 1457.37 2399.66 1449.49 2414.19C1441.61 2428.73 1423.43 2434.13 1408.89 2426.25C1394.35 2418.36 1388.96 2400.19 1396.84 2385.65Z" />
		</g>
		<g id="&lt;Group&gt;" style="mix-blend-mode: screen">
			<path id="&lt;Path&gt;" class="shp7" d="M2229.93 771.67C2237.82 757.13 2255.99 751.74 2270.53 759.62C2285.07 767.5 2290.46 785.68 2282.58 800.22C2274.7 814.75 2256.52 820.15 2241.99 812.27C2227.45 804.38 2222.05 786.21 2229.93 771.67Z" />
		</g>
		<g id="&lt;Group&gt;" style="mix-blend-mode: screen">
			<path id="&lt;Path&gt;" class="shp8" d="M1372.72 1434.96C1380.61 1420.42 1398.78 1415.02 1413.32 1422.91C1427.86 1430.79 1433.25 1448.97 1425.37 1463.5C1417.49 1478.04 1399.31 1483.44 1384.77 1475.55C1370.23 1467.67 1364.84 1449.5 1372.72 1434.96Z" />
		</g>
	</g>
</svg>
