<svg version="1.2" baseProfile="tiny-ps" xmlns="http://www.w3.org/2000/svg" viewBox="0 0 367 399" width="367" height="399">
	<title>&lt;Group&gt;</title>
	<style>
		tspan { white-space:pre }
		.shp0 { fill: #49392e } 
		.shp1 { fill: #5fa0ed } 
		.shp2 { fill: #352820 } 
		.shp3 { fill: #448ed8 } 
		.shp4 { fill: #59473b } 
		.shp5 { fill: #ffffff } 
		.shp6 { fill: #f13d3d } 
		.shp7 { fill: #c8c8c8 } 
		.shp8 { fill: #d7d7d7 } 
		.shp9 { fill: #eeeeee } 
		.shp10 { fill: #47372e } 
		.shp11 { fill: #dfdfdf } 
	</style>
	<g id="utilization">
		<g id="&lt;Group&gt;">
			<g id="&lt;Group&gt;">
				<path id="&lt;Path&gt;" class="shp0" d="M0.75 240.76L66.31 278.61L66.31 58.65L0.75 20.8L0.75 240.76Z" />
				<path id="&lt;Path&gt;" class="shp1" d="M3.29 23.99L3.29 236.66L63.68 271.52L63.68 58.86L3.29 23.99Z" />
				<path id="&lt;Path&gt;" class="shp0" d="M8.56 226.15L8.56 229.6L55.75 256.85L55.75 253.39L8.56 226.15Z" />
				<path id="&lt;Path&gt;" class="shp0" d="M8.56 219.44L8.56 222.89L55.75 250.13L55.75 246.68L8.56 219.44Z" />
				<path id="&lt;Path&gt;" class="shp0" d="M8.56 212.26L8.56 215.71L55.75 242.96L55.75 239.5L8.56 212.26Z" />
				<g id="&lt;Group&gt;">
					<path id="&lt;Path&gt;" class="shp2" d="M12.95 40.92L11.31 39.97L11.31 84.75L55.75 110.41L55.75 108.22L12.95 83.51L12.95 40.92Z" />
					<path id="&lt;Path&gt;" class="shp0" d="M12.95 40.92L12.95 83.51L55.75 108.22L55.75 65.63L12.95 40.92Z" />
				</g>
				<path id="&lt;Path&gt;" class="shp2" d="M100.3 39.03L66.31 58.65L66.31 278.61L100.3 258.99L100.3 39.03Z" />
				<path id="&lt;Path&gt;" class="shp3" d="M74.37 66.39L74.37 262.43L93.72 251.26L93.72 55.21L74.37 66.39Z" />
				<path id="&lt;Path&gt;" class="shp4" d="M100.3 39.03L34.54 0.29L0.75 20.8L66.31 58.65L100.3 39.03Z" />
			</g>
			<g id="&lt;Group&gt;">
				<path id="&lt;Path&gt;" class="shp5" d="M27.95 107.6L27.95 166.75L55.75 182.8L55.75 123.65L27.95 107.6Z" />
				<path id="&lt;Path&gt;" class="shp5" d="M23.26 104.92L10.31 97.45L10.31 115.22L23.26 122.69L23.26 104.92Z" />
				<path id="&lt;Path&gt;" class="shp0" d="M21.24 105.95L12.01 100.62L12.01 102.6L21.24 107.93L21.24 105.95Z" />
				<path id="&lt;Path&gt;" class="shp0" d="M21.24 109.6L12.01 104.28L12.01 106.26L21.24 111.59L21.24 109.6Z" />
				<path id="&lt;Path&gt;" class="shp0" d="M21.24 113.31L12.01 107.98L12.01 109.97L21.24 115.3L21.24 113.31Z" />
				<path id="&lt;Path&gt;" class="shp0" d="M21.24 116.97L12.01 111.64L12.01 113.62L21.24 118.95L21.24 116.97Z" />
				<path id="&lt;Path&gt;" class="shp6" d="M23.26 128.14L10.31 120.67L10.31 156.86L23.26 164.34L23.26 128.14Z" />
				<g id="&lt;Group&gt;">
					<path id="&lt;Path&gt;" class="shp0" d="M37.86 134.35L48.89 140.72C49.79 141.24 50.53 140.68 50.53 139.48C50.53 138.28 49.79 136.88 48.89 136.36L37.86 129.99C36.96 129.47 36.23 130.03 36.23 131.23C36.23 132.43 36.96 133.83 37.86 134.35Z" />
					<g id="&lt;Group&gt;">
						<path id="&lt;Path&gt;" class="shp0" d="M46.78 137.32C47.45 137.7 48 137.29 48 136.39L48 126.11C48 125.21 47.45 124.16 46.78 123.77C46.1 123.39 45.55 123.8 45.55 124.7L45.55 134.98C45.55 135.88 46.1 136.93 46.78 137.32Z" />
						<path id="&lt;Path&gt;" class="shp0" d="M39.98 133.39C40.65 133.78 41.2 133.37 41.2 132.47L41.2 122.19C41.2 121.29 40.65 120.24 39.98 119.85C39.31 119.46 38.76 119.88 38.76 120.78L38.76 131.06C38.76 131.95 39.31 133 39.98 133.39Z" />
					</g>
					<path id="&lt;Path&gt;" class="shp0" d="M48.53 138.71C48.53 138.71 48.53 138.72 48.53 138.73L48.53 144.78C48.53 148.56 46.21 150.32 43.38 148.68C40.54 147.04 38.22 142.61 38.22 138.83L38.22 132.77C38.22 132.77 38.23 132.76 38.23 132.76L48.53 138.71Z" />
				</g>
				<g id="&lt;Group&gt;">
					<path id="&lt;Path&gt;" class="shp0" d="M42.22 142.31L42.22 166.13C42.22 167.05 42.01 167.46 41.88 167.62C41.79 167.74 41.64 167.87 41.29 167.87C39.44 167.87 35.99 164.53 35.99 161.37L35.99 145.86C35.99 140.43 33.4 136.06 30.8 135.04L30.8 137.36C32.27 138.55 33.97 141.7 33.97 145.86L33.97 161.37C33.97 165.6 38.23 169.89 41.29 169.89C42.19 169.89 42.95 169.53 43.47 168.86C43.98 168.21 44.23 167.29 44.23 166.13L44.23 142.31L42.22 142.31Z" />
				</g>
			</g>
		</g>
		<g id="&lt;Group&gt;">
			<g id="&lt;Group&gt;">
				<g id="&lt;Group&gt;">
					<path id="&lt;Path&gt;" class="shp5" d="M128.72 213.65L119.95 208.66L119.94 208.66C117.2 207.14 113.66 207.29 109.81 209.52L95.11 218C86.48 222.98 79.43 236.47 79.43 247.97L79.43 285.96L88.37 291.05L94.73 280.35L91.79 278.82L125.49 259.36L125.49 221.38C125.49 219.73 125.33 218.22 125.06 216.83L128.72 213.65Z" />
					<path id="&lt;Path&gt;" class="shp7" d="M134.44 264.45L134.44 226.46C134.44 214.96 127.38 209.63 118.75 214.61L104.06 223.09C95.43 228.07 88.37 241.56 88.37 253.06L88.37 291.05L134.44 264.45Z" />
					<path id="&lt;Path&gt;" class="shp8" d="M88.27 282.14L105.11 292.09L105.11 272.37L88.27 282.14Z" />
				</g>
				<g id="&lt;Group&gt;">
					<g id="&lt;Group&gt;">
						<path id="&lt;Path&gt;" class="shp5" d="M172.49 221.84L173.34 220.42C173.34 220.41 171.15 219.11 169.86 218.25C169.08 217.72 168.9 216.53 169.33 214.61C169.77 212.62 171.7 204.66 172.21 203.17C173.27 200.1 171.09 199.18 167.5 197.67L166.85 199.2C171.04 200.97 171.09 201.31 170.64 202.63C170.08 204.27 168.1 212.49 167.71 214.25C167.49 215.23 166.83 218.21 168.94 219.63C169.82 220.21 171 220.95 172.49 221.84Z" />
					</g>
					<g id="&lt;Group&gt;">
						<path id="&lt;Path&gt;" class="shp2" d="M176.2 217.63C176.2 220.35 174.54 223.5 172.5 224.68C170.46 225.86 168.81 224.6 168.81 221.88C168.81 219.17 170.47 216.01 172.51 214.83C174.55 213.66 176.2 214.91 176.2 217.63Z" />
						<path id="&lt;Path&gt;" class="shp2" d="M171.6 225.73L169.99 224.81L174.94 214.65L176.29 215.45L171.6 225.73Z" />
						<path id="&lt;Path&gt;" class="shp0" d="M177.6 218.45C177.6 221.17 175.94 224.33 173.9 225.5C171.86 226.68 170.21 225.43 170.21 222.71C170.21 219.99 171.87 216.83 173.91 215.65C175.95 214.48 177.6 215.73 177.6 218.45Z" />
						<path id="&lt;Path&gt;" class="shp7" d="M174.9 220.34C174.9 220.83 174.59 221.41 174.22 221.62C173.85 221.84 173.55 221.61 173.55 221.11C173.55 220.62 173.85 220.04 174.22 219.83C174.6 219.61 174.9 219.84 174.9 220.34Z" />
					</g>
					<g id="&lt;Group&gt;">
						<path id="&lt;Path&gt;" class="shp6" d="M172.09 217.07C171.67 219.08 174.89 218.85 174.57 220.88L234.06 183.68L192.8 172.1L191.8 176.02L225.66 184.8L172.09 217.07Z" />
					</g>
					<g id="&lt;Group&gt;">
						<path id="&lt;Path&gt;" class="shp2" d="M161.54 199.8L154.17 195.55C152.42 194.54 152.64 192.76 154.66 191.6C156.67 190.44 159.75 190.31 161.5 191.32L168.87 195.57C170.61 196.58 170.39 198.36 168.38 199.52C166.36 200.68 163.29 200.81 161.54 199.8Z" />
						<path id="&lt;Path&gt;" class="shp2" d="M170.04 195.56L170.04 197.37L153 193.72L153 191.93L170.04 195.56Z" />
						<path id="&lt;Path&gt;" class="shp0" d="M161.54 197.96L154.17 193.7C152.42 192.7 152.64 190.92 154.66 189.76C156.67 188.59 159.75 188.46 161.5 189.47L168.87 193.73C170.61 194.74 170.39 196.51 168.38 197.68C166.36 198.84 163.29 198.97 161.54 197.96Z" />
					</g>
					<g id="&lt;Group&gt;">
						<path id="&lt;Compound Path&gt;" fill-rule="evenodd" class="shp4" d="M170.92 229.84C170.22 229.84 169.55 229.67 168.95 229.32C167.35 228.39 166.44 226.34 166.44 223.69C166.44 218.88 169.3 213.48 172.93 211.38C174.66 210.39 176.37 210.27 177.73 211.07C179.33 211.99 180.25 214.04 180.24 216.69L180.24 216.7C180.24 221.5 177.39 226.91 173.75 229C172.78 229.56 171.82 229.84 170.92 229.84ZM175.75 212.2C175.03 212.2 174.31 212.51 173.76 212.82C170.64 214.62 168.11 219.49 168.1 223.69C168.1 225.73 168.71 227.26 169.78 227.88C170.84 228.49 172.07 228.04 172.92 227.56C176.04 225.77 178.58 220.89 178.58 216.69C178.58 214.65 177.97 213.12 176.9 212.5C176.53 212.29 176.14 212.2 175.75 212.2Z" />
					</g>
					<g id="&lt;Group&gt;">
						<g id="&lt;Group&gt;">
							<path id="&lt;Path&gt;" class="shp6" d="M124.77 244.39L121.57 243.49L129.84 205.23C130.51 202.87 131.81 201.09 133.52 200.22C134.57 199.68 136.31 199.23 138.66 200.1L140.61 200.86L139.39 203.96L137.48 203.21C136.51 202.85 135.7 202.84 135.03 203.18C134.17 203.62 133.45 204.69 133.04 206.13L124.77 244.39Z" />
						</g>
						<g id="&lt;Group&gt;">
							<path id="&lt;Compound Path&gt;" fill-rule="evenodd" class="shp4" d="M120.87 255.17C120.19 255.17 119.55 255 118.96 254.67C117.43 253.78 116.56 251.81 116.56 249.27C116.56 244.69 119.29 239.53 122.76 237.52C124.43 236.57 126.06 236.47 127.37 237.23C128.91 238.11 129.78 240.08 129.78 242.62C129.78 247.2 127.05 252.37 123.58 254.37C122.65 254.9 121.73 255.17 120.87 255.17ZM125.46 238.38C124.78 238.38 124.11 238.67 123.59 238.96C120.63 240.67 118.22 245.29 118.22 249.27C118.22 251.21 118.79 252.65 119.8 253.23C120.8 253.81 121.95 253.38 122.75 252.93C125.7 251.22 128.11 246.6 128.12 242.62L128.12 242.62C128.12 240.69 127.54 239.25 126.54 238.66C126.19 238.46 125.83 238.38 125.46 238.38Z" />
						</g>
						<path id="&lt;Path&gt;" class="shp2" d="M127.07 243.7C127.07 246.57 125.32 249.91 123.16 251.15C121.01 252.39 119.26 251.07 119.26 248.2C119.27 245.32 121.02 241.99 123.17 240.74C125.33 239.5 127.08 240.82 127.07 243.7Z" />
						<g id="&lt;Group&gt;">
							<g id="&lt;Group&gt;">
								<path id="&lt;Path&gt;" class="shp8" d="M125.12 283.68L126.78 282.43L126.78 208.09L125.12 209.91L125.12 283.68Z" />
							</g>
							<g id="&lt;Group&gt;">
								<path id="&lt;Path&gt;" class="shp8" d="M104.26 283.54L145.73 211.55C146.16 211.93 146.58 212.3 147 212.69L105.5 284.71C105.06 284.35 104.67 283.93 104.26 283.54Z" />
							</g>
							<g id="&lt;Group&gt;">
								<path id="&lt;Path&gt;" class="shp8" d="M152.38 231.06C152.42 231.69 152.4 232.33 152.4 232.97L96.54 265.57L95.7 264.13L152.38 231.06Z" />
							</g>
							<g id="&lt;Group&gt;">
								<path id="&lt;Path&gt;" class="shp8" d="M146.22 262.47L102.15 232.67L103.08 231.29L147.14 261.09C146.86 261.57 146.56 262.03 146.22 262.47Z" />
							</g>
						</g>
						<path id="&lt;Path&gt;" class="shp2" d="M142.46 207.16L138.58 205.16C138.07 205.9 137.86 206.23 137.94 206.16C138.01 206.09 139.52 206.87 142.46 208.51L142.46 207.16Z" />
						<path id="&lt;Path&gt;" class="shp2" d="M102.87 284.12L105.76 285.66L106.1 284.28L103.91 283.24L102.87 284.12Z" />
						<path id="&lt;Compound Path&gt;" fill-rule="evenodd" class="shp2" d="M101.84 283.46C94.8 278.56 90.94 268.81 91.25 256.7C91.81 235.06 105.64 212.06 122.09 205.45C129.23 202.57 136.15 203.07 141.6 206.86C148.64 211.75 152.51 221.5 152.19 233.61C151.63 255.26 137.8 278.25 121.36 284.87C118.3 286.1 115.28 286.71 112.4 286.71C108.56 286.71 104.96 285.62 101.84 283.46ZM138.71 211.5C134.38 208.49 129 208.14 123.15 210.5C108.6 216.35 96.35 236.92 95.85 256.33C95.58 266.75 98.75 275.04 104.55 279.07C108.88 282.08 114.26 282.42 120.11 280.07C134.66 274.22 146.91 253.65 147.42 234.24C147.68 223.81 144.51 215.53 138.71 211.5Z" />
						<g id="&lt;Group&gt;">
							<path id="&lt;Compound Path&gt;" fill-rule="evenodd" class="shp0" d="M104.47 284.84C97.42 279.95 93.56 270.2 93.87 258.09C94.43 236.44 108.26 213.45 124.71 206.83C131.85 203.96 138.78 204.46 144.22 208.24C151.26 213.13 155.13 222.88 154.81 234.99C154.25 256.64 140.42 279.64 123.98 286.25C120.92 287.48 117.9 288.09 115.02 288.09C111.18 288.09 107.58 287 104.47 284.84ZM141.33 212.88C137 209.88 131.62 209.53 125.78 211.88C111.22 217.74 98.97 238.3 98.47 257.72C98.2 268.14 101.37 276.43 107.18 280.46C111.5 283.46 116.88 283.81 122.73 281.46C137.28 275.6 149.53 255.04 150.04 235.62C150.31 225.2 147.13 216.91 141.33 212.88Z" />
						</g>
					</g>
					<g id="&lt;Group&gt;">
						<path id="&lt;Path&gt;" class="shp6" d="M131.38 249.07L128.18 248.16L141.07 208.17C141.59 206.36 140.58 204.38 138.88 203.58L136.12 202.51L137.35 199.42L140.3 200.57C143.58 202.11 145.23 205.7 144.27 209.08L131.38 249.07Z" />
					</g>
					<g id="&lt;Group&gt;">
						<path id="&lt;Path&gt;" class="shp0" d="M148.81 177.27L147.99 177.17C147.99 177.13 148.47 173.09 147.99 169.2C147.56 165.75 146 163.82 144.35 161.78C143.48 160.7 142.57 159.58 141.83 158.21C139.68 154.22 142.58 147.26 142.71 146.97L143.48 147.29C143.45 147.36 140.6 154.18 142.57 157.82C143.27 159.12 144.15 160.21 145 161.26C146.65 163.3 148.36 165.41 148.81 169.1C149.31 173.09 148.83 177.1 148.81 177.27Z" />
					</g>
					<g id="&lt;Group&gt;">
						<path id="&lt;Path&gt;" class="shp0" d="M135.56 190.79L134.42 199.7C134.3 201.02 136.21 202.28 138.69 202.52C141.17 202.76 143.29 201.89 143.42 200.57L144.55 191.66L135.56 190.79Z" />
						<path id="&lt;Path&gt;" class="shp4" d="M135.56 190.79C135.43 192.11 137.34 193.38 139.82 193.62C142.3 193.86 144.42 192.98 144.55 191.66C144.68 190.34 142.77 189.07 140.28 188.83C137.8 188.59 135.68 189.47 135.56 190.79Z" />
						<path id="&lt;Path&gt;" class="shp6" d="M137.19 190.43C137.1 191.3 138.36 192.13 139.99 192.29C141.62 192.44 143 191.87 143.09 191C143.17 190.13 141.92 189.3 140.29 189.15C138.66 188.99 137.27 189.56 137.19 190.43Z" />
					</g>
					<g id="&lt;Group&gt;">
						<g id="&lt;Group&gt;">
							<path id="&lt;Compound Path&gt;" fill-rule="evenodd" class="shp4" d="M228.67 192.8C227.99 192.8 227.35 192.64 226.77 192.3C225.23 191.41 224.36 189.45 224.36 186.91C224.36 182.32 227.09 177.16 230.56 175.16C232.23 174.21 233.86 174.1 235.18 174.86C236.71 175.75 237.58 177.71 237.58 180.25C237.58 184.84 234.85 190 231.38 192C230.45 192.53 229.53 192.8 228.67 192.8ZM233.27 176.02C232.58 176.02 231.91 176.3 231.39 176.6C228.44 178.3 226.03 182.93 226.02 186.91C226.02 188.84 226.6 190.28 227.6 190.86C228.6 191.44 229.76 191.02 230.55 190.56C233.51 188.86 235.92 184.23 235.92 180.25L235.92 180.25C235.92 178.32 235.35 176.88 234.34 176.3C234 176.1 233.63 176.02 233.27 176.02Z" />
						</g>
						<path id="&lt;Path&gt;" class="shp2" d="M234.88 181.33C234.87 184.2 233.12 187.54 230.97 188.78C228.81 190.03 227.06 188.7 227.07 185.83C227.07 182.96 228.82 179.62 230.98 178.38C233.13 177.13 234.88 178.46 234.88 181.33Z" />
						<g id="&lt;Group&gt;">
							<g id="&lt;Group&gt;">
								<path id="&lt;Path&gt;" class="shp9" d="M232.92 221.31L234.58 220.06L234.58 145.72L232.92 147.55L232.92 221.31Z" />
							</g>
							<g id="&lt;Group&gt;">
								<path id="&lt;Path&gt;" class="shp9" d="M212.06 221.17L253.54 149.18C253.96 149.56 254.38 149.94 254.8 150.32L213.31 222.34C212.86 221.98 212.47 221.56 212.06 221.17Z" />
							</g>
							<g id="&lt;Group&gt;">
								<path id="&lt;Path&gt;" class="shp9" d="M260.18 168.69C260.22 169.33 260.2 169.96 260.2 170.6L204.34 203.2L203.5 201.77L260.18 168.69Z" />
							</g>
							<g id="&lt;Group&gt;">
								<path id="&lt;Path&gt;" class="shp9" d="M254.02 200.11L209.96 170.3L210.89 168.92L254.94 198.72C254.67 199.2 254.36 199.66 254.02 200.11Z" />
							</g>
						</g>
						<path id="&lt;Path&gt;" class="shp2" d="M250.27 144.8L246.38 142.79C245.87 143.53 245.66 143.87 245.74 143.79C245.82 143.72 247.33 144.5 250.27 146.14L250.27 144.8Z" />
						<path id="&lt;Path&gt;" class="shp2" d="M210.67 221.75L213.56 223.29L213.91 221.91L211.72 220.88L210.67 221.75Z" />
						<path id="&lt;Compound Path&gt;" fill-rule="evenodd" class="shp2" d="M209.65 221.09C202.6 216.2 198.74 206.45 199.05 194.34C199.61 172.69 213.44 149.7 229.89 143.08C237.03 140.21 243.96 140.71 249.4 144.49C256.45 149.38 260.31 159.13 260 171.24C259.43 192.89 245.6 215.88 229.16 222.5C226.1 223.73 223.08 224.34 220.2 224.34C216.36 224.34 212.76 223.25 209.65 221.09ZM246.51 149.13C242.18 146.13 236.81 145.78 230.96 148.13C216.4 153.99 204.15 174.55 203.65 193.97C203.38 204.39 206.55 212.67 212.36 216.7C216.69 219.71 222.06 220.06 227.91 217.71C242.46 211.85 254.72 191.29 255.22 171.87C255.49 161.45 252.31 153.16 246.51 149.13Z" />
						<g id="&lt;Group&gt;">
							<path id="&lt;Compound Path&gt;" fill-rule="evenodd" class="shp0" d="M212.27 222.48C205.22 217.58 201.36 207.83 201.68 195.72C202.23 174.07 216.07 151.08 232.51 144.46C239.65 141.59 246.58 142.09 252.02 145.87C259.07 150.77 262.93 160.52 262.62 172.63C262.06 194.28 248.22 217.27 231.78 223.88C228.72 225.11 225.7 225.73 222.82 225.73C218.98 225.73 215.38 224.64 212.27 222.48ZM249.13 150.52C244.8 147.51 239.43 147.16 233.58 149.51C219.02 155.37 206.77 175.93 206.27 195.35C206 205.77 209.18 214.06 214.98 218.09C219.31 221.09 224.68 221.44 230.53 219.09C245.08 213.23 257.34 192.67 257.84 173.25C258.11 162.83 254.94 154.55 249.13 150.52Z" />
						</g>
					</g>
					<g id="&lt;Group&gt;">
						<path id="&lt;Path&gt;" class="shp7" d="M252.29 121.57L246.03 124.24C244.05 123.44 241.38 122.86 238.2 123.42C231.26 124.66 223.08 127.6 217.29 130.94C210.41 134.92 203.66 142.51 201.17 145.77C199.48 147.98 202.27 149.92 204.24 150.94C206.01 152.08 209.38 153.69 213.2 152.72C218.85 151.28 232 147.38 238.89 143.41C244.68 140.07 249.77 135.34 251.91 131.34C252.21 130.78 252.29 130.25 252.26 129.75L252.29 129.74L252.29 121.57Z" />
						<g id="&lt;Group&gt;">
							<path id="&lt;Path&gt;" class="shp10" d="M251.91 127.05C249.77 131.06 244.68 135.78 238.89 139.12C232 143.09 218.85 146.99 213.2 148.43C209.38 149.4 206.01 147.79 204.24 146.65C202.98 146 201.4 144.97 200.85 143.74C200.02 145.7 202.45 147.39 204.24 148.32C206.01 149.46 209.38 151.07 213.2 150.09C218.85 148.65 232 144.76 238.89 140.78C244.68 137.44 249.77 132.72 251.91 128.71C252.21 128.15 252.29 127.63 252.26 127.12L252.29 127.11L252.29 125.45L252.26 125.46C252.29 125.97 252.21 126.49 251.91 127.05Z" />
						</g>
						<path id="&lt;Path&gt;" class="shp11" d="M238.2 115.26C231.26 116.5 223.08 119.44 217.29 122.78C210.41 126.76 203.66 134.35 201.17 137.61C199.48 139.82 202.27 141.76 204.24 142.78C206.01 143.92 209.38 145.53 213.2 144.56C218.85 143.12 232 139.22 238.89 135.25C244.68 131.9 249.77 127.18 251.91 123.18C253.37 120.45 250.43 118.35 248.41 117.28C246.56 116.12 242.92 114.42 238.2 115.26Z" />
						<path id="&lt;Path&gt;" class="shp5" d="M237.78 117.03C231.96 118.07 225.09 120.53 220.23 123.34C214.45 126.68 208.78 133.06 206.69 135.79C205.27 137.65 207.62 139.28 209.27 140.14C210.76 141.09 213.58 142.44 216.8 141.63C221.54 140.42 232.58 137.15 238.36 133.81C243.23 131 247.5 127.04 249.3 123.68C250.52 121.39 248.06 119.62 246.36 118.73C244.81 117.75 241.75 116.32 237.78 117.03Z" />
					</g>
					<g id="&lt;Group&gt;">
						<g id="&lt;Group&gt;">
							<path id="&lt;Path&gt;" class="shp6" d="M177.09 225.49L240.85 185.63L191.41 171.75L188.77 175.42L232.45 186.74L177.09 220.1L140.7 179.07L140.47 185.33C164.24 212.47 176.45 225.86 177.09 225.49Z" />
						</g>
						<g id="&lt;Group&gt;">
							<path id="&lt;Path&gt;" class="shp6" d="M179.7 220.12L201.91 146.15L196.03 147.16L173.82 221.14L179.7 220.12Z" />
						</g>
						<g id="&lt;Group&gt;">
							<path id="&lt;Path&gt;" class="shp6" d="M190.73 176.99L190.1 171.75L140.59 178.24L141.21 183.48L190.73 176.99Z" />
						</g>
						<g id="&lt;Group&gt;">
							<path id="&lt;Path&gt;" class="shp6" d="M137.19 190.43L143.09 191L147.21 161.16L141.59 158.75L137.19 190.43Z" />
						</g>
					</g>
					<g id="&lt;Group&gt;">
						<path id="&lt;Path&gt;" class="shp0" d="M228.48 189.19C225.55 189.19 222.59 188.33 220.31 186.25C218.32 184.44 216.9 182.47 215.54 180.56C213.94 178.34 212.29 176.04 209.7 173.99C204.48 169.86 198.65 173.66 198.59 173.7L198.13 173.01C198.19 172.96 204.53 168.84 210.21 173.34C212.9 175.46 214.58 177.81 216.21 180.08C217.55 181.95 218.94 183.88 220.87 185.64C225.02 189.41 231.61 188.87 235.72 186.43L236.14 187.15C234.02 188.41 231.26 189.19 228.48 189.19Z" />
					</g>
					<g id="&lt;Group&gt;">
						<path id="&lt;Path&gt;" class="shp0" d="M235.57 185C235.55 184.97 233.48 181.81 230.71 179.55C227.92 177.28 223.55 178 219.27 181.45C216.49 183.69 212.46 184.74 209 184.12C206.44 183.67 204.46 182.38 203.28 180.41C200.34 175.51 196.26 171.54 194.44 171.04L194.66 170.24C196.67 170.79 200.9 174.84 203.99 179.98C205.33 182.21 207.53 183.02 209.15 183.31C212.37 183.88 216.15 182.9 218.75 180.8C223.34 177.1 228.13 176.37 231.24 178.91C234.11 181.25 236.18 184.41 236.27 184.55L235.57 185Z" />
					</g>
					<g id="&lt;Group&gt;">
						<path id="&lt;Path&gt;" class="shp0" d="M241.49 184.54C241.48 187.42 239.73 190.75 237.58 191.99C235.42 193.24 233.67 191.91 233.68 189.04C233.68 186.17 235.43 182.83 237.59 181.59C239.74 180.35 241.49 181.67 241.49 184.54Z" />
						<g id="&lt;Group&gt;">
							<path id="&lt;Compound Path&gt;" fill-rule="evenodd" class="shp4" d="M235.28 196.01C234.6 196.01 233.96 195.85 233.38 195.51C231.84 194.63 230.97 192.66 230.97 190.12C230.97 185.53 233.7 180.37 237.17 178.37C238.84 177.42 240.47 177.31 241.79 178.07C243.32 178.96 244.19 180.92 244.19 183.46C244.19 188.05 241.46 193.21 237.99 195.21C237.06 195.75 236.14 196.01 235.28 196.01ZM239.88 179.23C239.19 179.23 238.52 179.51 238 179.81C235.05 181.51 232.64 186.14 232.63 190.12C232.63 192.05 233.21 193.49 234.21 194.07C235.21 194.65 236.37 194.23 237.16 193.77C240.12 192.07 242.53 187.44 242.53 183.46L242.53 183.46C242.53 181.53 241.96 180.09 240.95 179.51C240.61 179.31 240.24 179.23 239.88 179.23Z" />
						</g>
					</g>
					<g id="&lt;Group&gt;">
						<path id="&lt;Path&gt;" class="shp0" d="M178.12 229.84C177.88 229.84 177.66 229.82 177.46 229.79C175.41 229.44 173.9 228 173.44 225.94C172.78 222.96 174.28 218.24 180.49 213.92C197.15 202.36 227.87 184.81 233.06 183.45C238.06 182.14 239.2 185.88 239.21 185.91L238.45 186.14C238.42 186.01 237.5 183.1 233.26 184.21C228.24 185.53 197.17 203.3 180.94 214.57C175.05 218.66 173.6 223.04 174.21 225.77C174.61 227.53 175.84 228.71 177.6 229.01C182.08 229.73 197.86 220.7 222.13 203.5C235.21 194.24 237.58 190.51 237.61 190.47L238.28 190.88C238.19 191.03 235.87 194.73 222.59 204.15C205.87 215.99 184.88 229.84 178.12 229.84Z" />
					</g>
					<path id="&lt;Path&gt;" class="shp0" d="M133.68 246.91C133.68 249.78 131.93 253.12 129.77 254.36C127.62 255.6 125.87 254.28 125.87 251.41C125.88 248.53 127.63 245.2 129.78 243.96C131.94 242.71 133.69 244.04 133.68 246.91Z" />
					<g id="&lt;Group&gt;">
						<path id="&lt;Compound Path&gt;" fill-rule="evenodd" class="shp4" d="M127.48 258.38C126.8 258.38 126.16 258.21 125.57 257.88C124.04 256.99 123.17 255.03 123.17 252.49C123.17 247.9 125.9 242.74 129.37 240.74C131.04 239.78 132.67 239.68 133.98 240.44C135.52 241.33 136.39 243.29 136.39 245.83C136.39 250.42 133.66 255.58 130.19 257.58C129.26 258.11 128.34 258.38 127.48 258.38ZM132.07 241.59C131.39 241.59 130.72 241.88 130.2 242.18C127.24 243.88 124.83 248.51 124.83 252.49C124.83 254.42 125.4 255.86 126.41 256.44C127.4 257.02 128.56 256.6 129.36 256.14C132.31 254.44 134.72 249.81 134.73 245.83L134.73 245.83C134.73 243.9 134.15 242.46 133.15 241.88C132.8 241.68 132.44 241.59 132.07 241.59Z" />
					</g>
					<g id="&lt;Group&gt;">
						<path id="&lt;Path&gt;" class="shp2" d="M181.37 220.31C181.36 223.03 179.71 226.19 177.67 227.36C175.63 228.54 173.97 227.29 173.98 224.57C173.98 221.85 175.64 218.69 177.68 217.52C179.72 216.34 181.37 217.59 181.37 220.31Z" />
						<path id="&lt;Path&gt;" class="shp2" d="M176.76 228.42L175.15 227.49L180.1 217.33L181.45 218.14L176.76 228.42Z" />
						<path id="&lt;Path&gt;" class="shp0" d="M182.77 221.13C182.76 223.85 181.11 227.01 179.07 228.19C177.03 229.36 175.37 228.11 175.38 225.39C175.38 222.67 177.03 219.51 179.08 218.34C181.12 217.16 182.77 218.41 182.77 221.13Z" />
						<g id="&lt;Group&gt;">
							<path id="&lt;Compound Path&gt;" fill-rule="evenodd" class="shp4" d="M175.88 232.52C175.18 232.52 174.51 232.35 173.91 232C172.31 231.08 171.4 229.03 171.4 226.37C171.4 221.57 174.26 216.16 177.89 214.06C179.62 213.07 181.33 212.96 182.69 213.75C184.29 214.67 185.21 216.72 185.2 219.38L185.2 219.38C185.2 224.18 182.35 229.59 178.71 231.69C177.74 232.24 176.78 232.52 175.88 232.52ZM180.71 214.89C179.99 214.89 179.27 215.19 178.72 215.51C175.61 217.3 173.07 222.18 173.06 226.37C173.06 228.42 173.67 229.94 174.74 230.56C175.8 231.18 177.03 230.73 177.88 230.24C181 228.45 183.54 223.57 183.54 219.38C183.54 217.33 182.93 215.81 181.86 215.19C181.49 214.97 181.1 214.89 180.71 214.89Z" />
						</g>
						<path id="&lt;Path&gt;" class="shp11" d="M180.62 222.5C180.62 223.47 180.03 224.59 179.3 225.01C178.58 225.43 177.99 224.98 177.99 224.02C177.99 223.05 178.58 221.93 179.31 221.51C180.03 221.09 180.62 221.54 180.62 222.5Z" />
						<path id="&lt;Path&gt;" class="shp5" d="M180.01 223.07C180.01 223.47 179.77 223.94 179.47 224.11C179.17 224.28 178.92 224.1 178.92 223.7C178.92 223.3 179.17 222.84 179.47 222.66C179.77 222.49 180.01 222.67 180.01 223.07Z" />
					</g>
					<g id="&lt;Group&gt;">
						<path id="&lt;Path&gt;" class="shp4" d="M216.16 139.89C212.64 142.94 203.52 144.31 196.89 146.16C194.09 146.94 190.03 147.47 186.14 145.77C185.75 143.96 185.84 141.4 187.27 138.67C192.37 128.94 201.41 122.55 208.44 127.28C211.31 129.21 215.79 132.09 218.3 135.18C218.36 136.53 217.98 138.3 216.16 139.89Z" />
						<path id="&lt;Path&gt;" class="shp10" d="M218.15 143.1C213.46 146.91 206.47 147.53 195.82 150.13C192.46 150.95 188.57 149.72 187.13 148.04C186.74 147.6 186.37 146.81 186.14 145.77C190.03 147.47 194.09 146.94 196.89 146.16C203.52 144.31 212.64 142.94 216.16 139.89C217.98 138.3 218.36 136.53 218.3 135.18C220.46 137.83 221.18 140.63 218.15 143.1Z" />
					</g>
					<g id="&lt;Group&gt;">
						<g id="&lt;Group&gt;">
							<path id="&lt;Path&gt;" class="shp0" d="M126.91 119.92C126.91 121.14 126.17 122.56 125.25 123.09C124.33 123.62 123.59 123.06 123.59 121.83C123.59 120.61 124.34 119.2 125.25 118.67C126.17 118.14 126.91 118.7 126.91 119.92Z" />
							<path id="&lt;Path&gt;" class="shp0" d="M138.83 125.83L126.27 118.56L124.31 123.22L136.56 130.35L138.83 125.83Z" />
							<path id="&lt;Path&gt;" class="shp4" d="M139.38 127.14C139.37 128.36 138.63 129.78 137.71 130.31C136.8 130.84 136.05 130.28 136.06 129.05C136.06 127.83 136.8 126.41 137.72 125.89C138.63 125.36 139.38 125.92 139.38 127.14Z" />
							<path id="&lt;Path&gt;" class="shp5" d="M138.65 127.56C138.65 128.25 138.23 129.04 137.71 129.34C137.2 129.64 136.78 129.32 136.78 128.63C136.78 127.95 137.2 127.15 137.72 126.86C138.23 126.56 138.65 126.88 138.65 127.56Z" />
						</g>
						<g id="&lt;Group&gt;">
							<path id="&lt;Path&gt;" class="shp5" d="M137.06 129.36C137.37 128.41 137.87 127.69 138.17 126.75C143.65 130.33 144.48 132.42 142.04 138.55C140.46 142.52 142.75 144.12 146.95 146.6L147.77 147.1C151.53 149.35 156.1 150.88 157.68 148.41C159.13 146.13 162.98 140.09 167.11 142.6C170.45 144.62 173.03 146.13 173.04 146.13L171.79 148.29C170.05 147.28 168.06 146.09 165.82 144.74C164.42 143.9 162.46 145.54 159.78 149.75C158.76 151.35 157.1 152.15 154.98 152.15C152.64 152.15 149.73 151.18 146.49 149.23L145.68 148.75C141.74 146.42 137.27 143.77 139.72 137.63C141.48 133.22 141.11 132.06 137.06 129.36Z" />
						</g>
						<g id="&lt;Group&gt;">
							<path id="&lt;Path&gt;" class="shp0" d="M173.22 145.98C173.22 147.2 172.47 148.62 171.56 149.14C170.64 149.67 169.9 149.11 169.9 147.89C169.9 146.67 170.65 145.25 171.56 144.72C172.48 144.19 173.22 144.76 173.22 145.98Z" />
							<path id="&lt;Path&gt;" class="shp0" d="M185.14 151.88L172.58 144.62L170.62 149.27L182.87 156.4L185.14 151.88Z" />
							<path id="&lt;Path&gt;" class="shp4" d="M185.68 153.2C185.68 154.42 184.94 155.84 184.02 156.36C183.11 156.89 182.36 156.33 182.37 155.11C182.37 153.89 183.11 152.47 184.03 151.94C184.94 151.41 185.69 151.97 185.68 153.2Z" />
						</g>
					</g>
					<g id="&lt;Group&gt;">
						<g id="&lt;Group&gt;">
							<path id="&lt;Path&gt;" class="shp5" d="M190.22 244.5L190.91 242.98C190.88 242.97 187.87 241.59 186.27 240.75C185.07 240.12 184.66 239.33 184.55 235.92C184.49 233.8 184.5 231.87 184.51 230.45C184.52 229.57 184.52 228.87 184.51 228.43C184.41 225.31 182.68 224.22 179.82 222.64L179.12 224.13C182.04 225.75 182.78 226.43 182.85 228.49C182.86 228.91 182.86 229.58 182.85 230.44C182.84 231.88 182.83 233.82 182.89 235.97C183 239.4 183.4 241.11 185.5 242.22C187.14 243.08 190.1 244.44 190.22 244.5Z" />
						</g>
						<g id="&lt;Group&gt;">
							<path id="&lt;Path&gt;" class="shp2" d="M194.22 249.7L186.85 245.44C185.1 244.44 185.32 242.66 187.34 241.5C189.35 240.33 192.43 240.2 194.18 241.21L201.55 245.47C203.29 246.48 203.07 248.25 201.06 249.42C199.04 250.58 195.97 250.71 194.22 249.7Z" />
							<path id="&lt;Path&gt;" class="shp2" d="M202.72 245.46L202.72 247.27L185.68 243.61L185.68 241.82L202.72 245.46Z" />
							<path id="&lt;Path&gt;" class="shp0" d="M194.22 247.85L186.85 243.6C185.1 242.59 185.32 240.81 187.34 239.65C189.35 238.49 192.43 238.36 194.18 239.37L201.55 243.62C203.29 244.63 203.07 246.41 201.06 247.57C199.04 248.73 195.97 248.86 194.22 247.85Z" />
						</g>
					</g>
					<g id="&lt;Group&gt;">
						<path id="&lt;Path&gt;" class="shp0" d="M185.34 184.13C184.35 184.13 183.44 183.97 182.58 183.64C180.43 182.82 178.72 180.94 177.49 178.07C175.37 173.07 172.52 171.82 170.59 172.34C169.41 172.65 168.61 173.6 168.71 174.57L167.89 174.66C167.73 173.29 168.8 171.95 170.38 171.53C172.67 170.93 175.93 172.26 178.26 177.75C179.39 180.4 180.94 182.12 182.88 182.86C185.03 183.69 187.66 183.35 190.91 181.82C194.03 180.36 194.8 177.03 194.8 177L195.62 177.17C195.58 177.33 194.76 180.93 191.26 182.58C189.04 183.62 187.08 184.13 185.34 184.13Z" />
					</g>
					<g id="&lt;Group&gt;">
						<path id="&lt;Path&gt;" class="shp0" d="M174.19 183.27C173.21 183.27 172.24 183.04 171.41 182.57C170.25 181.91 169.54 180.88 169.48 179.74L170.32 179.7C170.36 180.56 170.89 181.33 171.82 181.84C173.24 182.64 175.13 182.64 176.63 181.83C178.77 180.68 180.27 177.09 181.47 174.2C181.82 173.35 182.15 172.56 182.46 171.92C184.81 167.08 189.53 168.74 189.58 168.76L189.29 169.54C189.13 169.48 185.23 168.13 183.21 172.28C182.91 172.9 182.58 173.68 182.24 174.51C180.98 177.53 179.43 181.27 177.02 182.57C176.15 183.04 175.16 183.27 174.19 183.27Z" />
					</g>
					<g id="&lt;Group&gt;">
						<path id="&lt;Path&gt;" class="shp0" d="M151.61 184.38C151.53 184.38 151.46 184.38 151.39 184.37C150.27 184.29 149.51 183.59 149.29 182.45L150.11 182.29C150.26 183.07 150.7 183.49 151.45 183.54C153.27 183.68 156.67 181.45 158.15 177.09C159.67 172.61 162.55 172.29 163.74 172.35C165.44 172.45 166.99 173.52 167.26 174.79L166.45 174.96C166.28 174.17 165.17 173.27 163.69 173.18C162.73 173.13 160.28 173.42 158.94 177.35C157.48 181.64 154.04 184.38 151.61 184.38Z" />
					</g>
					<g id="&lt;Group&gt;">
						<path id="&lt;Path&gt;" class="shp0" d="M162.02 184.11C159.77 184.11 157.46 183.21 155.55 181.58C153.48 179.8 152.24 177.47 152.14 175.19C151.81 167.23 147.03 163.97 146.98 163.93L147.44 163.24C147.65 163.38 152.62 166.75 152.97 175.15C153.05 177.17 154.22 179.34 156.09 180.94C158.09 182.65 160.54 183.48 162.84 183.23C167.66 182.69 167.73 180.06 167.73 179.95L168.56 179.95C168.56 180.09 168.54 183.42 162.94 184.05C162.63 184.09 162.32 184.11 162.02 184.11Z" />
					</g>
					<g id="&lt;Group&gt;">
						<path id="&lt;Path&gt;" class="shp0" d="M158.77 149.35C157.66 149.35 156.51 149.07 155.4 148.32C153.86 147.27 152.5 146.87 151.56 147.2C150.88 147.44 150.58 148 150.45 148.43L149.65 148.18C149.92 147.32 150.5 146.7 151.29 146.42C152.13 146.12 153.61 146.09 155.87 147.63C158.68 149.54 161.94 147.95 164.14 146.58C168.23 144.04 172.64 147.74 172.82 147.9L172.28 148.53C172.24 148.49 168.15 145.07 164.58 147.29C163.52 147.94 161.26 149.35 158.77 149.35Z" />
					</g>
					<g id="&lt;Group&gt;">
						<path id="&lt;Path&gt;" class="shp0" d="M140.29 161.29C138.85 159.87 136.7 156.49 138.88 153.89C140.83 151.56 143.55 151.55 145.74 151.53C147.57 151.52 148.62 151.48 148.89 150.59L149.69 150.83C149.22 152.35 147.54 152.36 145.75 152.37C143.63 152.38 141.21 152.39 139.52 154.42C137.28 157.09 140.84 160.66 140.88 160.7L140.29 161.29Z" />
					</g>
					<g id="&lt;Group&gt;">
						<path id="&lt;Path&gt;" class="shp0" d="M144.33 144.95L143.65 144.47C143.66 144.46 144.27 143.57 144.05 142.74C143.92 142.28 143.54 141.9 142.92 141.62C142.29 141.33 141.4 141.58 140.45 141.84C139.12 142.22 137.61 142.64 136.49 141.53C134.81 139.87 136.1 137.11 137.13 134.89C137.28 134.59 137.42 134.29 137.54 134.01C138.54 131.79 137.46 130.41 137.06 129.36L138.22 130.04C138.24 130.05 139.54 131.57 138.3 134.34C138.17 134.63 138.03 134.94 137.89 135.25C136.92 137.33 135.81 139.69 137.08 140.94C137.85 141.71 139 141.39 140.22 141.04C141.28 140.75 142.36 140.44 143.27 140.86C144.12 141.25 144.66 141.82 144.85 142.53C145.18 143.74 144.37 144.9 144.33 144.95Z" />
					</g>
					<g id="&lt;Group&gt;">
						<path id="&lt;Path&gt;" class="shp7" d="M171.39 219.89L160.86 208.41L155.69 213.91L166.23 225.38C167.04 226.14 168.85 225.53 170.27 224.01C171.7 222.49 172.2 220.65 171.39 219.89Z" />
						<path id="&lt;Path&gt;" class="shp5" d="M155.69 213.91C156.5 214.66 158.31 214.05 159.74 212.53C161.16 211.01 161.66 209.17 160.86 208.41C160.05 207.65 158.24 208.27 156.81 209.78C155.39 211.3 154.89 213.15 155.69 213.91Z" />
					</g>
					<path id="&lt;Path&gt;" class="shp0" d="M141.02 156.29L140 164.31C139.89 165.5 141.6 166.63 143.84 166.85C146.07 167.07 147.98 166.28 148.09 165.09L149.11 157.07L141.02 156.29Z" />
					<path id="&lt;Path&gt;" class="shp4" d="M141.02 156.29C140.9 157.48 142.62 158.62 144.86 158.83C147.09 159.05 149 158.26 149.11 157.07C149.23 155.88 147.51 154.74 145.27 154.53C143.04 154.31 141.13 155.1 141.02 156.29Z" />
					<path id="&lt;Path&gt;" class="shp5" d="M142.86 156.35C142.79 157 143.74 157.63 144.97 157.75C146.2 157.86 147.25 157.43 147.31 156.78C147.37 156.12 146.43 155.5 145.2 155.38C143.97 155.26 142.92 155.69 142.86 156.35Z" />
					<path id="&lt;Path&gt;" class="shp5" d="M144.55 146.68L142.86 156.35L147.31 156.78L148.4 148.68L144.55 146.68Z" />
					<g id="&lt;Group&gt;">
						<path id="&lt;Path&gt;" class="shp0" d="M158.04 211.39C157.97 211.32 156.41 209.69 155.41 208.07C153.49 204.95 155.99 202.91 156.01 202.89L156.43 203.41C156.34 203.48 154.37 205.11 155.98 207.72C156.93 209.28 158.5 210.91 158.52 210.93L158.04 211.39Z" />
					</g>
					<path id="&lt;Path&gt;" class="shp6" d="M194.44 160.49C194.69 160.11 213.11 148.75 216.44 146.93C219.76 145.12 224.89 142.79 225.44 145.69C225.77 147.44 222.56 149.03 219.37 149.78C216.19 150.53 212.55 153.38 206.25 157.77C202.06 160.69 198.12 163.49 194.44 166.17L194.44 160.49Z" />
					<path id="&lt;Path&gt;" class="shp4" d="M222.77 145.36C221.4 145.88 221.97 147.98 223.19 147.7C224.75 147.33 224.82 144.59 222.77 145.36Z" />
				</g>
				<g id="&lt;Group&gt;">
					<g id="&lt;Group&gt;">
						<path id="&lt;Path&gt;" class="shp5" d="M154.3 228.48L145.53 223.49L145.52 223.49C142.78 221.97 139.25 222.12 135.39 224.35L120.69 232.83C112.07 237.82 105.01 251.3 105.01 262.81L105.01 300.79L113.95 305.88L120.31 295.18L117.37 293.65L151.08 274.19L151.08 236.21C151.08 234.56 150.92 233.05 150.64 231.66L154.3 228.48Z" />
						<path id="&lt;Path&gt;" class="shp7" d="M160.02 279.28L160.02 241.3C160.02 229.79 152.96 224.46 144.34 229.44L129.64 237.92C121.01 242.9 113.95 256.39 113.95 267.89L113.95 305.88L160.02 279.28Z" />
					</g>
					<path id="&lt;Path&gt;" class="shp5" d="M79.43 285.96L113.95 305.88L113.95 297.22L79.43 276.82L79.43 285.96Z" />
				</g>
			</g>
			<g id="&lt;Group&gt;">
				<g id="&lt;Group&gt;">
					<path id="&lt;Path&gt;" class="shp5" d="M180.49 244.25L171.71 239.26L171.7 239.27C168.96 237.74 165.43 237.9 161.57 240.12L146.88 248.61C138.25 253.59 131.19 267.08 131.19 278.58L131.19 316.56L140.13 321.65L146.49 310.95L143.55 309.42L177.26 289.96L177.26 251.98C177.26 250.33 177.1 248.82 176.82 247.44L180.49 244.25Z" />
					<path id="&lt;Path&gt;" class="shp7" d="M186.2 295.05L186.2 257.07C186.2 245.57 179.14 240.23 170.52 245.21L155.82 253.7C147.19 258.68 140.13 272.16 140.13 283.67L140.13 321.65L186.2 295.05Z" />
					<path id="&lt;Path&gt;" class="shp8" d="M140.03 312.75L156.87 322.7L156.87 302.98L140.03 312.75Z" />
				</g>
				<g id="&lt;Group&gt;">
					<g id="&lt;Group&gt;">
						<path id="&lt;Path&gt;" class="shp5" d="M206.07 259.08L197.29 254.09L197.28 254.1C194.55 252.57 191.01 252.73 187.16 254.95L172.46 263.44C163.83 268.42 156.77 281.91 156.77 293.41L156.77 331.39L165.72 336.48L172.07 325.78L169.14 324.25L202.84 304.79L202.84 266.81C202.84 265.16 202.68 263.65 202.41 262.27L206.07 259.08Z" />
						<path id="&lt;Path&gt;" class="shp7" d="M211.79 309.88L211.79 271.9C211.79 260.4 204.73 255.06 196.1 260.04L181.4 268.53C172.78 273.51 165.72 286.99 165.72 298.5L165.72 336.48L211.79 309.88Z" />
					</g>
					<path id="&lt;Path&gt;" class="shp5" d="M131.19 316.56L165.72 336.48L165.72 327.83L131.19 307.43L131.19 316.56Z" />
				</g>
			</g>
			<g id="&lt;Group&gt;">
				<g id="&lt;Group&gt;">
					<path id="&lt;Path&gt;" class="shp5" d="M232.4 274.67L223.62 269.67L223.61 269.68C220.88 268.16 217.34 268.31 213.49 270.53L198.79 279.02C190.16 284 183.1 297.49 183.1 308.99L183.1 346.97L192.05 352.06L198.4 341.36L195.46 339.84L229.17 320.38L229.17 282.39C229.17 280.74 229.01 279.23 228.74 277.85L232.4 274.67Z" />
					<path id="&lt;Path&gt;" class="shp7" d="M238.12 325.46L238.12 287.48C238.12 275.98 231.06 270.64 222.43 275.62L207.73 284.11C199.11 289.09 192.05 302.58 192.05 314.08L192.05 352.06L238.12 325.46Z" />
					<path id="&lt;Path&gt;" class="shp8" d="M191.94 343.16L208.79 353.11L208.79 333.39L191.94 343.16Z" />
				</g>
				<g id="&lt;Group&gt;">
					<g id="&lt;Group&gt;">
						<path id="&lt;Path&gt;" class="shp5" d="M276.17 282.86L277.02 281.43C277.01 281.43 274.83 280.12 273.54 279.26C272.76 278.73 272.58 277.54 273.01 275.62C273.45 273.64 275.38 265.67 275.89 264.18C276.94 261.12 274.77 260.2 271.18 258.68L270.53 260.21C274.72 261.98 274.77 262.32 274.32 263.64C273.76 265.29 271.78 273.5 271.38 275.26C271.17 276.24 270.5 279.23 272.62 280.64C273.5 281.23 274.68 281.97 276.17 282.86Z" />
					</g>
					<g id="&lt;Group&gt;">
						<path id="&lt;Path&gt;" class="shp2" d="M279.88 278.64C279.88 281.36 278.22 284.52 276.18 285.7C274.14 286.87 272.49 285.62 272.49 282.9C272.49 280.18 274.15 277.02 276.19 275.85C278.23 274.67 279.88 275.92 279.88 278.64Z" />
						<path id="&lt;Path&gt;" class="shp2" d="M275.27 286.75L273.66 285.83L278.61 275.66L279.96 276.47L275.27 286.75Z" />
						<path id="&lt;Path&gt;" class="shp0" d="M281.28 279.46C281.28 282.18 279.62 285.34 277.58 286.52C275.54 287.69 273.88 286.44 273.89 283.72C273.89 281 275.55 277.84 277.59 276.67C279.63 275.49 281.28 276.74 281.28 279.46Z" />
						<path id="&lt;Path&gt;" class="shp7" d="M278.57 281.35C278.57 281.85 278.27 282.42 277.9 282.64C277.53 282.85 277.22 282.62 277.22 282.13C277.22 281.63 277.53 281.06 277.9 280.84C278.27 280.63 278.57 280.86 278.57 281.35Z" />
					</g>
					<g id="&lt;Group&gt;">
						<path id="&lt;Path&gt;" class="shp6" d="M275.77 278.09C275.34 280.09 278.57 279.87 278.24 281.89L337.74 244.7L296.48 233.12L295.47 237.03L329.34 245.81L275.77 278.09Z" />
					</g>
					<g id="&lt;Group&gt;">
						<path id="&lt;Path&gt;" class="shp2" d="M265.22 260.82L257.84 256.56C256.1 255.56 256.32 253.78 258.34 252.62C260.35 251.45 263.43 251.33 265.17 252.33L272.55 256.59C274.29 257.6 274.07 259.37 272.05 260.54C270.04 261.7 266.96 261.83 265.22 260.82Z" />
						<path id="&lt;Path&gt;" class="shp2" d="M273.71 256.58L273.71 258.39L256.67 254.73L256.67 252.94L273.71 256.58Z" />
						<path id="&lt;Path&gt;" class="shp0" d="M265.22 258.98L257.84 254.72C256.1 253.71 256.32 251.93 258.34 250.77C260.35 249.61 263.43 249.48 265.17 250.49L272.55 254.74C274.29 255.75 274.07 257.53 272.05 258.69C270.04 259.86 266.96 259.98 265.22 258.98Z" />
					</g>
					<g id="&lt;Group&gt;">
						<path id="&lt;Compound Path&gt;" fill-rule="evenodd" class="shp4" d="M274.6 290.86C273.89 290.86 273.23 290.68 272.62 290.33C271.03 289.41 270.11 287.36 270.11 284.7C270.12 279.9 272.97 274.49 276.61 272.4C278.34 271.4 280.04 271.29 281.41 272.08C283.01 273.01 283.92 275.06 283.92 277.71L283.92 277.71C283.92 282.52 281.06 287.92 277.43 290.02C276.46 290.57 275.5 290.86 274.6 290.86ZM279.43 273.22C278.7 273.22 277.99 273.52 277.44 273.84C274.32 275.63 271.78 280.51 271.78 284.71C271.78 286.75 272.39 288.28 273.46 288.89C274.52 289.51 275.75 289.06 276.59 288.58C279.71 286.78 282.25 281.91 282.26 277.71C282.26 275.67 281.65 274.14 280.58 273.52C280.21 273.31 279.82 273.22 279.43 273.22Z" />
					</g>
					<g id="&lt;Group&gt;">
						<g id="&lt;Group&gt;">
							<path id="&lt;Path&gt;" class="shp6" d="M228.45 305.4L225.25 304.5L233.52 266.25C234.19 263.88 235.49 262.1 237.2 261.24C238.24 260.7 239.99 260.25 242.34 261.12L244.28 261.88L243.07 264.97L241.15 264.22C240.19 263.86 239.38 263.86 238.7 264.2C237.85 264.63 237.13 265.71 236.72 267.15L228.45 305.4Z" />
						</g>
						<g id="&lt;Group&gt;">
							<path id="&lt;Compound Path&gt;" fill-rule="evenodd" class="shp4" d="M224.54 316.18C223.86 316.18 223.22 316.02 222.64 315.68C221.11 314.8 220.23 312.83 220.24 310.29C220.24 305.7 222.96 300.54 226.44 298.54C228.1 297.59 229.74 297.48 231.05 298.24C232.58 299.13 233.46 301.09 233.46 303.63C233.45 308.22 230.73 313.38 227.25 315.38C226.33 315.92 225.41 316.18 224.54 316.18ZM229.14 299.4C228.46 299.4 227.79 299.68 227.27 299.98C224.31 301.68 221.9 306.31 221.9 310.29C221.9 312.22 222.47 313.66 223.47 314.24C224.47 314.82 225.63 314.4 226.42 313.94C229.38 312.24 231.79 307.61 231.79 303.63L231.79 303.63C231.8 301.7 231.22 300.26 230.22 299.68C229.87 299.48 229.5 299.4 229.14 299.4Z" />
						</g>
						<path id="&lt;Path&gt;" class="shp2" d="M230.75 304.71C230.75 307.59 229 310.92 226.84 312.17C224.68 313.41 222.94 312.09 222.94 309.21C222.94 306.34 224.69 303 226.85 301.76C229.01 300.52 230.75 301.84 230.75 304.71Z" />
						<g id="&lt;Group&gt;">
							<g id="&lt;Group&gt;">
								<path id="&lt;Path&gt;" class="shp8" d="M228.79 344.7L230.46 343.44L230.46 269.1L228.79 270.93L228.79 344.7Z" />
							</g>
							<g id="&lt;Group&gt;">
								<path id="&lt;Path&gt;" class="shp8" d="M207.93 344.55L249.41 272.57C249.84 272.94 250.26 273.32 250.67 273.7L209.18 345.72C208.73 345.37 208.35 344.95 207.93 344.55Z" />
							</g>
							<g id="&lt;Group&gt;">
								<path id="&lt;Path&gt;" class="shp8" d="M256.06 292.07C256.1 292.71 256.08 293.35 256.08 293.98L200.22 326.58L199.38 325.15L256.06 292.07Z" />
							</g>
							<g id="&lt;Group&gt;">
								<path id="&lt;Path&gt;" class="shp8" d="M249.9 323.49L205.83 293.68L206.76 292.31L250.82 322.11C250.54 322.58 250.24 323.05 249.9 323.49Z" />
							</g>
						</g>
						<path id="&lt;Path&gt;" class="shp2" d="M246.14 268.18L242.25 266.17C241.75 266.91 241.53 267.25 241.61 267.18C241.69 267.1 243.2 267.89 246.14 269.52L246.14 268.18Z" />
						<path id="&lt;Path&gt;" class="shp2" d="M206.55 345.14L209.43 346.68L209.78 345.3L207.59 344.26L206.55 345.14Z" />
						<path id="&lt;Compound Path&gt;" fill-rule="evenodd" class="shp2" d="M205.52 344.47C198.48 339.58 194.62 329.83 194.93 317.72C195.49 296.07 209.32 273.08 225.76 266.46C232.9 263.59 239.83 264.09 245.28 267.87C252.32 272.76 256.18 282.51 255.87 294.62C255.31 316.27 241.48 339.27 225.03 345.88C221.98 347.11 218.96 347.72 216.08 347.72C212.23 347.72 208.63 346.64 205.52 344.47ZM242.39 272.51C238.05 269.51 232.68 269.16 226.83 271.51C212.27 277.37 200.02 297.93 199.52 317.35C199.25 327.77 202.43 336.06 208.23 340.09C212.56 343.09 217.94 343.44 223.78 341.09C238.34 335.23 250.59 314.67 251.09 295.25C251.36 284.83 248.19 276.54 242.39 272.51Z" />
						<g id="&lt;Group&gt;">
							<path id="&lt;Compound Path&gt;" fill-rule="evenodd" class="shp0" d="M208.14 345.86C201.1 340.96 197.24 331.21 197.55 319.1C198.11 297.46 211.94 274.46 228.38 267.85C235.53 264.98 242.45 265.47 247.9 269.26C254.94 274.15 258.8 283.9 258.49 296.01C257.93 317.66 244.1 340.65 227.65 347.27C224.6 348.5 221.58 349.11 218.7 349.11C214.85 349.11 211.25 348.02 208.14 345.86ZM245.01 273.9C240.68 270.89 235.3 270.54 229.45 272.9C214.89 278.75 202.64 299.32 202.15 318.73C201.87 329.15 205.05 337.44 210.85 341.47C215.18 344.48 220.56 344.82 226.4 342.47C240.96 336.62 253.21 316.05 253.71 296.64C253.98 286.22 250.81 277.93 245.01 273.9Z" />
						</g>
					</g>
					<g id="&lt;Group&gt;">
						<path id="&lt;Path&gt;" class="shp6" d="M235.05 310.08L231.86 309.17L244.75 269.18C245.27 267.38 244.26 265.4 242.56 264.6L239.8 263.52L241.03 260.44L243.98 261.58C247.25 263.12 248.91 266.72 247.95 270.09L235.05 310.08Z" />
					</g>
					<g id="&lt;Group&gt;">
						<path id="&lt;Path&gt;" class="shp0" d="M252.49 238.28L251.66 238.18C251.67 238.14 252.15 234.11 251.66 230.21C251.24 226.76 249.68 224.84 248.03 222.8C247.15 221.72 246.25 220.6 245.51 219.22C243.36 215.23 246.26 208.28 246.39 207.98L247.15 208.31C247.12 208.38 244.28 215.19 246.24 218.83C246.94 220.13 247.82 221.22 248.68 222.28C250.33 224.32 252.03 226.43 252.49 230.11C252.98 234.11 252.51 238.12 252.49 238.28Z" />
					</g>
					<g id="&lt;Group&gt;">
						<path id="&lt;Path&gt;" class="shp0" d="M239.23 251.81L238.1 260.71C237.97 262.04 239.88 263.3 242.37 263.54C244.85 263.78 246.97 262.9 247.09 261.58L248.22 252.67L239.23 251.81Z" />
						<path id="&lt;Path&gt;" class="shp4" d="M239.23 251.81C239.1 253.13 241.01 254.39 243.5 254.63C245.98 254.87 248.1 253.99 248.22 252.67C248.35 251.35 246.44 250.09 243.96 249.85C241.48 249.61 239.36 250.48 239.23 251.81Z" />
						<path id="&lt;Path&gt;" class="shp6" d="M240.86 251.45C240.78 252.31 242.03 253.14 243.66 253.3C245.29 253.46 246.68 252.88 246.77 252.02C246.85 251.15 245.6 250.32 243.97 250.16C242.34 250 240.95 250.58 240.86 251.45Z" />
					</g>
					<g id="&lt;Group&gt;">
						<g id="&lt;Group&gt;">
							<path id="&lt;Compound Path&gt;" fill-rule="evenodd" class="shp4" d="M332.35 253.82C331.67 253.82 331.02 253.65 330.44 253.32C328.91 252.43 328.04 250.46 328.04 247.92C328.04 243.34 330.77 238.18 334.24 236.17C335.9 235.22 337.54 235.12 338.85 235.87C340.38 236.76 341.26 238.73 341.26 241.27C341.25 245.85 338.53 251.01 335.06 253.02C334.13 253.55 333.21 253.82 332.35 253.82ZM336.94 237.03C336.26 237.03 335.59 237.32 335.07 237.61C332.11 239.32 329.7 243.94 329.7 247.92C329.7 249.86 330.27 251.3 331.28 251.88C332.27 252.46 333.43 252.03 334.23 251.57C337.18 249.87 339.59 245.25 339.6 241.27L339.6 241.26C339.6 239.33 339.02 237.89 338.02 237.31C337.67 237.11 337.31 237.03 336.94 237.03Z" />
						</g>
						<path id="&lt;Path&gt;" class="shp2" d="M338.55 242.35C338.55 245.22 336.8 248.56 334.64 249.8C332.49 251.04 330.74 249.72 330.74 246.84C330.75 243.97 332.5 240.63 334.65 239.39C336.81 238.15 338.56 239.47 338.55 242.35Z" />
						<g id="&lt;Group&gt;">
							<g id="&lt;Group&gt;">
								<path id="&lt;Path&gt;" class="shp9" d="M336.6 282.33L338.26 281.08L338.26 206.74L336.6 208.56L336.6 282.33Z" />
							</g>
							<g id="&lt;Group&gt;">
								<path id="&lt;Path&gt;" class="shp9" d="M315.74 282.19L357.21 210.2C357.64 210.58 358.06 210.95 358.48 211.34L316.98 283.36C316.54 283 316.15 282.58 315.74 282.19Z" />
							</g>
							<g id="&lt;Group&gt;">
								<path id="&lt;Path&gt;" class="shp9" d="M363.86 229.71C363.9 230.34 363.88 230.98 363.88 231.62L308.02 264.22L307.18 262.78L363.86 229.71Z" />
							</g>
							<g id="&lt;Group&gt;">
								<path id="&lt;Path&gt;" class="shp9" d="M357.7 261.12L313.63 231.31L314.56 229.94L358.62 259.74C358.34 260.22 358.04 260.68 357.7 261.12Z" />
							</g>
						</g>
						<path id="&lt;Path&gt;" class="shp2" d="M353.94 205.81L350.05 203.81C349.55 204.55 349.34 204.88 349.41 204.81C349.49 204.74 351 205.52 353.94 207.16L353.94 205.81Z" />
						<path id="&lt;Path&gt;" class="shp2" d="M314.35 282.77L317.24 284.31L317.58 282.93L315.39 281.89L314.35 282.77Z" />
						<path id="&lt;Compound Path&gt;" fill-rule="evenodd" class="shp2" d="M313.32 282.11C306.28 277.21 302.42 267.46 302.73 255.35C303.29 233.7 317.12 210.71 333.57 204.09C340.71 201.22 347.63 201.72 353.08 205.5C360.12 210.4 363.98 220.15 363.67 232.26C363.11 253.91 349.28 276.9 332.84 283.52C329.78 284.75 326.76 285.36 323.88 285.36C320.04 285.36 316.44 284.27 313.32 282.11ZM350.19 210.15C345.86 207.14 340.48 206.79 334.63 209.14C320.08 215 307.83 235.57 307.33 254.98C307.06 265.4 310.23 273.69 316.03 277.72C320.36 280.72 325.74 281.07 331.58 278.72C346.14 272.87 358.39 252.3 358.9 232.88C359.16 222.46 355.99 214.18 350.19 210.15Z" />
						<g id="&lt;Group&gt;">
							<path id="&lt;Compound Path&gt;" fill-rule="evenodd" class="shp0" d="M315.94 283.49C308.9 278.6 305.04 268.85 305.35 256.74C305.91 235.09 319.74 212.1 336.19 205.48C343.33 202.61 350.26 203.11 355.7 206.89C362.74 211.78 366.61 221.53 366.29 233.64C365.73 255.29 351.9 278.28 335.46 284.9C332.4 286.13 329.38 286.74 326.5 286.74C322.66 286.74 319.06 285.65 315.94 283.49ZM352.81 211.53C348.48 208.53 343.1 208.18 337.26 210.53C322.7 216.39 310.45 236.95 309.95 256.37C309.68 266.79 312.85 275.08 318.65 279.1C322.98 282.11 328.36 282.46 334.21 280.11C348.76 274.25 361.01 253.69 361.52 234.27C361.78 223.85 358.61 215.56 352.81 211.53Z" />
						</g>
					</g>
					<g id="&lt;Group&gt;">
						<path id="&lt;Path&gt;" class="shp7" d="M355.97 182.59L349.71 185.26C347.72 184.46 345.05 183.87 341.87 184.44C334.94 185.68 326.76 188.61 320.97 191.96C314.09 195.93 307.34 203.53 304.85 206.79C303.16 209 305.95 210.94 307.92 211.96C309.69 213.1 313.05 214.71 316.88 213.73C322.52 212.3 335.68 208.4 342.56 204.43C348.36 201.08 353.45 196.36 355.59 192.36C355.89 191.8 355.97 191.27 355.94 190.77L355.97 190.75L355.97 182.59Z" />
						<g id="&lt;Group&gt;">
							<path id="&lt;Path&gt;" class="shp10" d="M355.59 188.07C353.45 192.07 348.36 196.79 342.56 200.14C335.68 204.11 322.52 208.01 316.88 209.45C313.05 210.42 309.69 208.81 307.92 207.67C306.66 207.02 305.08 205.99 304.53 204.75C303.7 206.71 306.13 208.4 307.92 209.33C309.69 210.47 313.05 212.08 316.88 211.11C322.52 209.67 335.68 205.77 342.56 201.8C348.36 198.45 353.45 193.73 355.59 189.73C355.89 189.17 355.97 188.64 355.94 188.14L355.97 188.12L355.97 186.46L355.94 186.48C355.97 186.98 355.89 187.51 355.59 188.07Z" />
						</g>
						<path id="&lt;Path&gt;" class="shp11" d="M341.87 176.28C334.94 177.51 326.76 180.45 320.97 183.8C314.09 187.77 307.34 195.37 304.85 198.63C303.16 200.84 305.95 202.78 307.92 203.8C309.69 204.94 313.05 206.55 316.88 205.57C322.52 204.14 335.68 200.24 342.56 196.27C348.36 192.92 353.45 188.2 355.59 184.2C357.05 181.47 354.11 179.36 352.09 178.3C350.24 177.13 346.6 175.44 341.87 176.28Z" />
						<path id="&lt;Path&gt;" class="shp5" d="M341.46 178.04C335.64 179.08 328.77 181.55 323.91 184.36C318.13 187.69 312.46 194.07 310.37 196.81C308.95 198.66 311.29 200.29 312.95 201.15C314.44 202.11 317.26 203.46 320.47 202.64C325.21 201.44 336.26 198.16 342.04 194.83C346.9 192.02 351.18 188.05 352.97 184.69C354.2 182.4 351.73 180.63 350.03 179.74C348.49 178.76 345.43 177.34 341.46 178.04Z" />
					</g>
					<g id="&lt;Group&gt;">
						<g id="&lt;Group&gt;">
							<path id="&lt;Path&gt;" class="shp6" d="M280.77 286.5L344.52 246.65L295.08 232.77L292.45 236.43L336.13 247.76L280.77 281.11L244.38 240.08L244.15 246.35C267.92 273.49 280.13 286.87 280.77 286.5Z" />
						</g>
						<g id="&lt;Group&gt;">
							<path id="&lt;Path&gt;" class="shp6" d="M283.37 281.14L305.58 207.16L299.71 208.18L277.5 282.15L283.37 281.14Z" />
						</g>
						<g id="&lt;Group&gt;">
							<path id="&lt;Path&gt;" class="shp6" d="M294.4 238.01L293.78 232.77L244.26 239.26L244.89 244.5L294.4 238.01Z" />
						</g>
						<g id="&lt;Group&gt;">
							<path id="&lt;Path&gt;" class="shp6" d="M240.86 251.45L246.77 252.02L250.89 222.18L245.26 219.77L240.86 251.45Z" />
						</g>
					</g>
					<g id="&lt;Group&gt;">
						<path id="&lt;Path&gt;" class="shp0" d="M332.15 250.2C329.23 250.2 326.27 249.34 323.99 247.27C322 245.45 320.58 243.48 319.21 241.58C317.62 239.35 315.97 237.05 313.37 235.01C308.16 230.87 302.32 234.68 302.27 234.71L301.81 234.02C301.87 233.98 308.2 229.86 313.89 234.35C316.57 236.48 318.26 238.82 319.89 241.09C321.23 242.97 322.62 244.9 324.55 246.65C328.7 250.43 335.29 249.88 339.4 247.45L339.82 248.16C337.7 249.42 334.94 250.2 332.15 250.2Z" />
					</g>
					<g id="&lt;Group&gt;">
						<path id="&lt;Path&gt;" class="shp0" d="M339.25 246.02C339.23 245.98 337.16 242.83 334.39 240.57C331.6 238.29 327.23 239.01 322.95 242.46C320.17 244.71 316.14 245.76 312.68 245.14C310.12 244.69 308.14 243.4 306.95 241.42C304.01 236.52 299.94 232.56 298.12 232.06L298.34 231.26C300.35 231.81 304.58 235.85 307.67 241C309 243.23 311.21 244.04 312.82 244.32C316.05 244.89 319.82 243.91 322.43 241.82C327.02 238.11 331.8 237.39 334.91 239.92C337.79 242.27 339.86 245.43 339.94 245.56L339.25 246.02Z" />
					</g>
					<g id="&lt;Group&gt;">
						<path id="&lt;Path&gt;" class="shp0" d="M345.16 245.56C345.16 248.43 343.41 251.77 341.25 253.01C339.1 254.25 337.35 252.93 337.35 250.06C337.36 247.18 339.11 243.85 341.26 242.6C343.42 241.36 345.17 242.68 345.16 245.56Z" />
						<g id="&lt;Group&gt;">
							<path id="&lt;Compound Path&gt;" fill-rule="evenodd" class="shp4" d="M338.96 257.03C338.28 257.03 337.63 256.86 337.05 256.53C335.52 255.64 334.64 253.68 334.65 251.13C334.65 246.55 337.38 241.39 340.85 239.39C342.52 238.43 344.15 238.33 345.46 239.09C346.99 239.97 347.87 241.94 347.87 244.48C347.86 249.07 345.14 254.23 341.67 256.23C340.74 256.76 339.82 257.03 338.96 257.03ZM343.55 240.24C342.87 240.24 342.2 240.53 341.68 240.83C338.72 242.53 336.31 247.16 336.31 251.14C336.31 253.07 336.88 254.51 337.89 255.09C338.88 255.67 340.04 255.25 340.84 254.79C343.79 253.08 346.2 248.46 346.21 244.48L346.21 244.48C346.21 242.55 345.63 241.11 344.63 240.52C344.28 240.32 343.92 240.24 343.55 240.24Z" />
						</g>
					</g>
					<g id="&lt;Group&gt;">
						<path id="&lt;Path&gt;" class="shp0" d="M281.79 290.86C281.56 290.86 281.34 290.84 281.14 290.8C279.08 290.46 277.58 289.02 277.12 286.96C276.46 283.98 277.96 279.25 284.17 274.94C300.82 263.37 331.55 245.83 336.74 244.46C341.74 243.16 342.88 246.89 342.89 246.93L342.13 247.15C342.09 247.03 341.18 244.12 336.94 245.23C331.92 246.55 300.85 264.32 284.62 275.59C278.73 279.68 277.28 284.05 277.89 286.79C278.28 288.55 279.52 289.73 281.27 290.03C285.76 290.75 301.53 281.72 325.81 264.52C338.88 255.25 341.26 251.52 341.28 251.48L341.96 251.89C341.87 252.05 339.55 255.75 326.27 265.16C309.55 277.01 288.56 290.85 281.79 290.86Z" />
					</g>
					<path id="&lt;Path&gt;" class="shp0" d="M237.36 307.92C237.36 310.8 235.61 314.14 233.45 315.38C231.29 316.62 229.55 315.3 229.55 312.42C229.55 309.55 231.3 306.21 233.46 304.97C235.62 303.73 237.36 305.05 237.36 307.92Z" />
					<g id="&lt;Group&gt;">
						<path id="&lt;Compound Path&gt;" fill-rule="evenodd" class="shp4" d="M231.15 319.4C230.47 319.4 229.83 319.23 229.25 318.9C227.72 318.01 226.84 316.04 226.85 313.5C226.85 308.92 229.57 303.75 233.05 301.75C234.71 300.8 236.35 300.7 237.66 301.45C239.19 302.34 240.07 304.31 240.07 306.85C240.06 311.43 237.34 316.59 233.86 318.6C232.94 319.13 232.01 319.4 231.15 319.4ZM235.75 302.61C235.07 302.61 234.4 302.89 233.88 303.19C230.92 304.9 228.51 309.52 228.51 313.5C228.51 315.44 229.08 316.88 230.08 317.46C231.08 318.04 232.24 317.61 233.03 317.15C235.99 315.45 238.4 310.83 238.4 306.84L238.4 306.84C238.4 304.91 237.83 303.47 236.83 302.89C236.48 302.69 236.11 302.61 235.75 302.61Z" />
					</g>
					<g id="&lt;Group&gt;">
						<path id="&lt;Path&gt;" class="shp2" d="M285.04 281.33C285.04 284.05 283.38 287.2 281.34 288.38C279.3 289.56 277.65 288.3 277.65 285.58C277.66 282.86 279.31 279.71 281.35 278.53C283.39 277.36 285.05 278.61 285.04 281.33Z" />
						<path id="&lt;Path&gt;" class="shp2" d="M280.44 289.43L278.83 288.51L283.78 278.35L285.13 279.15L280.44 289.43Z" />
						<path id="&lt;Path&gt;" class="shp0" d="M286.44 282.15C286.44 284.87 284.78 288.03 282.74 289.2C280.7 290.38 279.05 289.12 279.05 286.4C279.05 283.69 280.71 280.53 282.75 279.35C284.79 278.18 286.45 279.43 286.44 282.15Z" />
						<g id="&lt;Group&gt;">
							<path id="&lt;Compound Path&gt;" fill-rule="evenodd" class="shp4" d="M279.56 293.54C278.85 293.54 278.19 293.37 277.58 293.02C275.99 292.09 275.07 290.04 275.07 287.39C275.08 282.58 277.93 277.18 281.57 275.08C283.3 274.09 285 273.97 286.37 274.77C287.97 275.69 288.88 277.74 288.88 280.39L288.88 280.4C288.88 285.2 286.02 290.61 282.39 292.7C281.42 293.26 280.46 293.54 279.56 293.54ZM284.39 275.9C283.66 275.9 282.95 276.2 282.4 276.52C279.28 278.32 276.74 283.19 276.74 287.39C276.74 289.43 277.35 290.96 278.42 291.58C279.48 292.19 280.71 291.74 281.55 291.26C284.67 289.47 287.21 284.59 287.22 280.39C287.22 278.35 286.61 276.82 285.54 276.2C285.17 275.99 284.78 275.9 284.39 275.9Z" />
						</g>
						<path id="&lt;Path&gt;" class="shp11" d="M284.3 283.52C284.3 284.49 283.71 285.61 282.98 286.03C282.26 286.44 281.67 286 281.67 285.03C281.67 284.07 282.26 282.94 282.98 282.53C283.71 282.11 284.3 282.55 284.3 283.52Z" />
						<path id="&lt;Path&gt;" class="shp5" d="M283.69 284.09C283.69 284.49 283.44 284.95 283.14 285.13C282.84 285.3 282.6 285.11 282.6 284.72C282.6 284.32 282.84 283.85 283.14 283.68C283.44 283.51 283.69 283.69 283.69 284.09Z" />
					</g>
					<g id="&lt;Group&gt;">
						<path id="&lt;Path&gt;" class="shp4" d="M319.83 200.9C316.32 203.96 307.19 205.33 300.57 207.17C297.76 207.95 293.7 208.49 289.82 206.79C289.43 204.97 289.51 202.42 290.95 199.69C296.04 189.95 305.08 183.57 312.12 188.3C314.99 190.22 319.47 193.11 321.98 196.2C322.03 197.55 321.66 199.32 319.83 200.9Z" />
						<path id="&lt;Path&gt;" class="shp10" d="M321.82 204.11C317.14 207.92 310.15 208.55 299.5 211.15C296.13 211.97 292.25 210.73 290.8 209.06C290.42 208.62 290.04 207.82 289.82 206.79C293.7 208.49 297.76 207.95 300.57 207.17C307.19 205.33 316.32 203.96 319.83 200.9C321.66 199.32 322.03 197.55 321.98 196.2C324.14 198.85 324.86 201.64 321.82 204.11Z" />
					</g>
					<g id="&lt;Group&gt;">
						<g id="&lt;Group&gt;">
							<path id="&lt;Path&gt;" class="shp0" d="M230.59 180.94C230.59 182.16 229.84 183.58 228.93 184.11C228.01 184.63 227.27 184.07 227.27 182.85C227.27 181.63 228.01 180.21 228.93 179.68C229.85 179.16 230.59 179.72 230.59 180.94Z" />
							<path id="&lt;Path&gt;" class="shp0" d="M242.5 186.84L229.95 179.58L227.99 184.23L240.24 191.37L242.5 186.84Z" />
							<path id="&lt;Path&gt;" class="shp4" d="M243.05 188.16C243.05 189.38 242.31 190.8 241.39 191.33C240.47 191.85 239.73 191.29 239.73 190.07C239.73 188.85 240.48 187.43 241.39 186.9C242.31 186.37 243.05 186.94 243.05 188.16Z" />
							<path id="&lt;Path&gt;" class="shp5" d="M242.32 188.58C242.32 189.26 241.91 190.06 241.39 190.36C240.88 190.65 240.46 190.34 240.46 189.65C240.46 188.96 240.88 188.17 241.39 187.87C241.91 187.58 242.33 187.89 242.32 188.58Z" />
						</g>
						<g id="&lt;Group&gt;">
							<path id="&lt;Path&gt;" class="shp5" d="M240.74 190.37C241.05 189.43 241.55 188.71 241.85 187.76C247.32 191.34 248.16 193.43 245.72 199.56C244.13 203.54 246.43 205.14 250.62 207.62L251.45 208.11C255.2 210.36 259.78 211.89 261.35 209.42C262.8 207.15 266.65 201.11 270.78 203.62C274.12 205.64 276.71 207.14 276.72 207.15L275.46 209.3C273.73 208.29 271.74 207.11 269.49 205.75C268.09 204.92 266.13 206.56 263.46 210.76C262.43 212.37 260.78 213.17 258.66 213.17C256.31 213.17 253.4 212.19 250.16 210.25L249.35 209.76C245.41 207.43 240.95 204.79 243.4 198.64C245.16 194.24 244.79 193.08 240.74 190.37Z" />
						</g>
						<g id="&lt;Group&gt;">
							<path id="&lt;Path&gt;" class="shp0" d="M276.9 206.99C276.89 208.21 276.15 209.63 275.24 210.16C274.32 210.69 273.58 210.13 273.58 208.9C273.58 207.68 274.32 206.27 275.24 205.74C276.16 205.21 276.9 205.77 276.9 206.99Z" />
							<path id="&lt;Path&gt;" class="shp0" d="M288.81 212.9L276.26 205.63L274.3 210.29L286.55 217.42L288.81 212.9Z" />
							<path id="&lt;Path&gt;" class="shp4" d="M289.36 214.21C289.36 215.43 288.62 216.85 287.7 217.38C286.78 217.91 286.04 217.35 286.04 216.12C286.04 214.9 286.79 213.48 287.7 212.96C288.62 212.43 289.36 212.99 289.36 214.21Z" />
						</g>
					</g>
					<g id="&lt;Group&gt;">
						<g id="&lt;Group&gt;">
							<path id="&lt;Path&gt;" class="shp5" d="M293.9 305.51L294.59 304C294.56 303.99 291.55 302.61 289.94 301.76C288.75 301.13 288.33 300.34 288.23 296.93C288.17 294.81 288.18 292.89 288.19 291.46C288.2 290.58 288.2 289.89 288.19 289.45C288.08 286.32 286.35 285.24 283.5 283.65L282.8 285.15C285.72 286.76 286.46 287.44 286.52 289.5C286.54 289.93 286.53 290.6 286.53 291.45C286.52 292.89 286.5 294.84 286.57 296.98C286.67 300.41 287.07 302.13 289.17 303.23C290.81 304.1 293.78 305.45 293.9 305.51Z" />
						</g>
						<g id="&lt;Group&gt;">
							<path id="&lt;Path&gt;" class="shp2" d="M297.9 310.72L290.52 306.46C288.78 305.45 289 303.68 291.02 302.51C293.03 301.35 296.11 301.22 297.85 302.23L305.23 306.48C306.97 307.49 306.75 309.27 304.73 310.43C302.72 311.6 299.64 311.72 297.9 310.72Z" />
							<path id="&lt;Path&gt;" class="shp2" d="M306.39 306.47L306.39 308.28L289.35 304.63L289.35 302.84L306.39 306.47Z" />
							<path id="&lt;Path&gt;" class="shp0" d="M297.9 308.87L290.52 304.61C288.78 303.61 289 301.83 291.02 300.67C293.03 299.5 296.11 299.38 297.85 300.38L305.23 304.64C306.97 305.65 306.75 307.42 304.73 308.59C302.72 309.75 299.64 309.88 297.9 308.87Z" />
						</g>
					</g>
					<g id="&lt;Group&gt;">
						<path id="&lt;Path&gt;" class="shp0" d="M289.01 245.15C288.03 245.15 287.11 244.98 286.26 244.66C284.1 243.83 282.39 241.96 281.17 239.09C279.04 234.08 276.2 232.83 274.27 233.35C273.09 233.66 272.28 234.62 272.39 235.58L271.56 235.67C271.41 234.31 272.48 232.96 274.05 232.55C276.35 231.95 279.6 233.27 281.94 238.76C283.07 241.42 284.62 243.14 286.55 243.88C288.71 244.7 291.33 244.36 294.58 242.84C297.71 241.37 298.47 238.05 298.48 238.01L299.29 238.19C299.26 238.34 298.44 241.95 294.94 243.59C292.72 244.63 290.76 245.15 289.01 245.15Z" />
					</g>
					<g id="&lt;Group&gt;">
						<path id="&lt;Path&gt;" class="shp0" d="M277.86 244.29C276.88 244.29 275.92 244.05 275.09 243.58C273.92 242.93 273.22 241.9 273.16 240.76L273.99 240.71C274.04 241.58 274.57 242.34 275.49 242.86C276.92 243.66 278.8 243.66 280.31 242.85C282.45 241.7 283.94 238.1 285.15 235.21C285.5 234.37 285.83 233.57 286.14 232.94C288.49 228.1 293.2 229.76 293.25 229.77L292.97 230.55C292.8 230.5 288.9 229.15 286.88 233.3C286.59 233.92 286.26 234.7 285.91 235.53C284.66 238.54 283.1 242.29 280.7 243.58C279.83 244.05 278.84 244.29 277.86 244.29Z" />
					</g>
					<g id="&lt;Group&gt;">
						<path id="&lt;Path&gt;" class="shp0" d="M255.28 245.4C255.21 245.4 255.14 245.39 255.06 245.39C253.95 245.31 253.18 244.6 252.97 243.46L253.79 243.31C253.93 244.08 254.38 244.51 255.12 244.56C256.95 244.69 260.35 242.46 261.83 238.1C263.35 233.63 266.23 233.31 267.42 233.37C269.12 233.47 270.66 234.54 270.93 235.8L270.12 235.98C269.95 235.19 268.85 234.29 267.37 234.2C266.41 234.15 263.96 234.44 262.61 238.37C261.16 242.65 257.71 245.4 255.28 245.4Z" />
					</g>
					<g id="&lt;Group&gt;">
						<path id="&lt;Path&gt;" class="shp0" d="M265.69 245.12C263.45 245.12 261.14 244.22 259.23 242.59C257.16 240.81 255.91 238.48 255.82 236.2C255.49 228.25 250.71 224.98 250.66 224.95L251.12 224.26C251.33 224.4 256.3 227.77 256.65 236.17C256.73 238.19 257.9 240.35 259.77 241.96C261.76 243.67 264.21 244.5 266.52 244.24C271.34 243.7 271.4 241.08 271.4 240.97L272.23 240.96C272.24 241.1 272.22 244.44 266.61 245.07C266.31 245.1 266 245.12 265.69 245.12Z" />
					</g>
					<g id="&lt;Group&gt;">
						<path id="&lt;Path&gt;" class="shp0" d="M262.45 210.37C261.34 210.37 260.19 210.09 259.08 209.33C257.54 208.29 256.18 207.89 255.24 208.22C254.56 208.46 254.26 209.02 254.13 209.45L253.33 209.2C253.6 208.34 254.18 207.71 254.97 207.44C255.81 207.13 257.28 207.11 259.55 208.65C262.36 210.56 265.62 208.96 267.82 207.6C271.91 205.05 276.31 208.76 276.5 208.92L275.96 209.55C275.92 209.51 271.82 206.08 268.26 208.3C267.2 208.96 264.93 210.37 262.45 210.37Z" />
					</g>
					<g id="&lt;Group&gt;">
						<path id="&lt;Path&gt;" class="shp0" d="M243.97 222.3C242.53 220.88 240.37 217.51 242.56 214.9C244.5 212.58 247.23 212.56 249.42 212.55C251.25 212.54 252.3 212.49 252.57 211.61L253.37 211.85C252.9 213.36 251.21 213.37 249.43 213.38C247.3 213.39 244.89 213.4 243.19 215.43C240.95 218.11 244.52 221.68 244.56 221.71L243.97 222.3Z" />
					</g>
					<g id="&lt;Group&gt;">
						<path id="&lt;Path&gt;" class="shp0" d="M248.01 205.97L247.33 205.49C247.34 205.48 247.95 204.59 247.72 203.76C247.6 203.3 247.22 202.92 246.6 202.63C245.97 202.34 245.08 202.59 244.12 202.86C242.79 203.23 241.28 203.65 240.17 202.55C238.49 200.89 239.78 198.13 240.81 195.91C240.95 195.6 241.09 195.31 241.22 195.02C242.21 192.8 241.13 191.43 240.74 190.37L241.9 191.05C241.92 191.07 243.22 192.58 241.98 195.36C241.85 195.65 241.71 195.95 241.56 196.26C240.59 198.34 239.49 200.71 240.75 201.96C241.53 202.73 242.68 202.4 243.9 202.06C244.95 201.76 246.04 201.46 246.94 201.88C247.8 202.27 248.34 202.83 248.53 203.55C248.85 204.76 248.04 205.92 248.01 205.97Z" />
					</g>
					<g id="&lt;Group&gt;">
						<path id="&lt;Path&gt;" class="shp7" d="M275.07 280.91L264.53 269.43L259.37 274.92L269.91 286.4C270.71 287.16 272.52 286.54 273.95 285.03C275.38 283.51 275.88 281.66 275.07 280.91Z" />
						<path id="&lt;Path&gt;" class="shp5" d="M259.37 274.92C260.18 275.68 261.99 275.07 263.41 273.55C264.84 272.03 265.34 270.19 264.53 269.43C263.73 268.67 261.92 269.28 260.49 270.8C259.06 272.32 258.56 274.16 259.37 274.92Z" />
					</g>
					<path id="&lt;Path&gt;" class="shp0" d="M244.69 217.3L243.68 225.32C243.56 226.51 245.28 227.65 247.52 227.87C249.75 228.08 251.66 227.29 251.77 226.1L252.79 218.09L244.69 217.3Z" />
					<path id="&lt;Path&gt;" class="shp4" d="M244.69 217.3C244.58 218.49 246.3 219.63 248.53 219.85C250.77 220.06 252.67 219.27 252.79 218.09C252.9 216.9 251.18 215.76 248.95 215.54C246.71 215.33 244.81 216.12 244.69 217.3Z" />
					<path id="&lt;Path&gt;" class="shp5" d="M246.53 217.36C246.47 218.02 247.42 218.64 248.65 218.76C249.87 218.88 250.92 218.45 250.98 217.79C251.05 217.14 250.1 216.51 248.87 216.39C247.65 216.28 246.6 216.71 246.53 217.36Z" />
					<path id="&lt;Path&gt;" class="shp5" d="M248.23 207.7L246.53 217.36L250.98 217.79L252.08 209.7L248.23 207.7Z" />
					<g id="&lt;Group&gt;">
						<path id="&lt;Path&gt;" class="shp0" d="M261.71 272.41C261.65 272.34 260.08 270.7 259.09 269.08C257.17 265.96 259.66 263.93 259.69 263.91L260.1 264.43C260.02 264.5 258.05 266.13 259.65 268.73C260.61 270.29 262.18 271.93 262.19 271.94L261.71 272.41Z" />
					</g>
					<path id="&lt;Path&gt;" class="shp6" d="M298.12 221.51C298.37 221.12 316.79 209.77 320.11 207.95C323.44 206.13 328.56 203.81 329.12 206.71C329.45 208.45 326.23 210.04 323.05 210.79C319.86 211.55 316.23 214.39 309.93 218.78C305.73 221.71 301.79 224.51 298.12 227.18L298.12 221.51Z" />
					<path id="&lt;Path&gt;" class="shp4" d="M326.45 206.37C325.08 206.89 325.64 209 326.87 208.71C328.42 208.35 328.5 205.6 326.45 206.37Z" />
				</g>
				<g id="&lt;Group&gt;">
					<g id="&lt;Group&gt;">
						<path id="&lt;Path&gt;" class="shp5" d="M257.98 289.5L249.21 284.51L249.2 284.51C246.46 282.99 242.92 283.14 239.07 285.37L224.37 293.85C215.74 298.83 208.69 312.32 208.69 323.82L208.69 361.8L217.63 366.89L223.99 356.2L221.05 354.67L254.75 335.21L254.75 297.22C254.75 295.57 254.59 294.06 254.32 292.68L257.98 289.5Z" />
						<path id="&lt;Path&gt;" class="shp7" d="M263.7 340.29L263.7 302.31C263.7 290.81 256.64 285.47 248.01 290.45L233.32 298.94C224.69 303.92 217.63 317.41 217.63 328.91L217.63 366.89L263.7 340.29Z" />
					</g>
					<path id="&lt;Path&gt;" class="shp5" d="M183.1 346.97L217.63 366.89L217.63 358.24L183.1 337.84L183.1 346.97Z" />
				</g>
			</g>
			<g id="&lt;Group&gt;">
				<g id="&lt;Group&gt;">
					<path id="&lt;Path&gt;" class="shp5" d="M286.22 305.85L277.45 300.86L277.44 300.86C274.7 299.34 271.16 299.49 267.31 301.72L252.61 310.2C243.99 315.18 236.93 328.67 236.93 340.17L236.93 378.16L245.87 383.24L252.23 372.55L249.29 371.02L283 351.56L283 313.58C283 311.92 282.83 310.42 282.56 309.03L286.22 305.85Z" />
					<path id="&lt;Path&gt;" class="shp7" d="M291.94 356.65L291.94 318.66C291.94 307.16 284.88 301.82 276.25 306.81L261.56 315.29C252.93 320.27 245.87 333.76 245.87 345.26L245.87 383.24L291.94 356.65Z" />
					<path id="&lt;Path&gt;" class="shp8" d="M245.77 374.34L262.61 384.29L262.61 364.57L245.77 374.34Z" />
				</g>
				<g id="&lt;Group&gt;">
					<g id="&lt;Group&gt;">
						<path id="&lt;Path&gt;" class="shp5" d="M311.81 320.68L303.03 315.69L303.02 315.69C300.28 314.17 296.75 314.32 292.89 316.55L278.2 325.03C269.57 330.01 262.51 343.5 262.51 355L262.51 392.99L271.45 398.07L277.81 387.38L274.87 385.85L308.58 366.39L308.58 328.41C308.58 326.75 308.42 325.25 308.14 323.86L311.81 320.68Z" />
						<path id="&lt;Path&gt;" class="shp7" d="M317.52 371.48L317.52 333.49C317.52 321.99 310.46 316.65 301.84 321.64L287.14 330.12C278.51 335.1 271.45 348.59 271.45 360.09L271.45 398.07L317.52 371.48Z" />
					</g>
					<path id="&lt;Path&gt;" class="shp5" d="M236.93 378.16L271.45 398.07L271.45 389.42L236.93 369.02L236.93 378.16Z" />
				</g>
			</g>
		</g>
	</g>
</svg>