<svg version="1.2" baseProfile="tiny-ps" xmlns="http://www.w3.org/2000/svg" viewBox="0 0 252 150" width="252" height="150">
	<title>&lt;Group&gt;</title>
	<style>
		tspan { white-space:pre }
		.shp0 { fill: #ffdab8 } 
		.shp1 { opacity: 0.2;fill: #000000 } 
		.shp2 { fill: #f7cea8 } 
		.shp3 { fill: #1da8b5 } 
		.shp4 { fill: #f0f0f0 } 
		.shp5 { opacity: 0.102;fill: #000000 } 
		.shp6 { fill: #ffc300 } 
		.shp7 { opacity: 0.302;fill: #ffffff } 
		.shp8 { fill: #0b929f } 
		.shp9 { fill: #424b4e } 
		.shp10 { fill: #32393b } 
	</style>
	<g id="&lt;Group&gt;">
		<path id="&lt;Path&gt;" class="shp0" d="M183.84 116.97L183.84 116.99C183.79 117.33 183.7 117.68 183.6 118.02C182.29 122.01 177.64 126.63 171.96 124.32C174.08 129.29 165.81 135.71 158.75 131.7C159.66 137.85 151 142.03 144.9 138.17C146.55 141.74 136.86 147.27 128.42 141.88C127.78 141.49 127.12 141.05 126.4 140.61C122.79 138.29 118.21 135.34 113.14 132.04C113.12 132.04 113.12 132.02 113.09 132.02C108.91 129.31 104.41 126.39 99.88 123.41C95.43 120.51 90.95 117.53 86.75 114.7C83.18 112.32 79.79 110 76.76 107.91C75.8 107.25 74.87 106.49 73.93 105.62C71 102.99 68.2 99.74 65.76 97.85C64.86 97.14 63.99 96.62 63.21 96.4C62.91 96.3 62.61 96.25 62.32 96.25L80.75 48.38C81.04 48.45 81.43 48.53 81.93 48.6C82.69 48.73 83.67 48.9 84.85 49.07C94.42 50.52 115.95 53.3 120.84 54.09C121.83 54.24 122.91 54.7 124.06 55.37C130.86 59.33 139.98 70.92 144.7 74.85C150.24 79.47 183.13 113.37 183.65 114.48C183.96 115.14 184.01 116.01 183.84 116.97Z" />
		<g id="&lt;Group&gt;">
			<path id="&lt;Path&gt;" class="shp1" d="M129.45 137.18L126.4 140.61C122.79 138.29 118.21 135.34 113.14 132.04L117.77 126.83C119.91 124.42 123.72 124.32 126.3 126.61L128.64 128.67C131.22 130.96 131.59 134.77 129.45 137.18Z" />
			<path id="&lt;Path&gt;" class="shp1" d="M119.17 125.18L113.09 132.02C108.91 129.31 104.41 126.39 99.88 123.41L107.49 114.82C109.63 112.41 113.44 112.32 116 114.6L118.36 116.69C120.94 118.96 121.28 122.77 119.17 125.18Z" />
			<path id="&lt;Path&gt;" class="shp1" d="M110.14 111.82L107.49 114.82L99.88 123.41C95.43 120.51 90.95 117.53 86.75 114.7L97.01 103.12L98.46 101.49C100.6 99.08 104.41 98.98 106.99 101.27L109.33 103.34C111.91 105.62 112.26 109.44 110.14 111.82Z" />
			<path id="&lt;Path&gt;" class="shp1" d="M97.01 103.12L86.75 114.7C83.18 112.32 79.79 110 76.76 107.91C75.8 107.25 74.87 106.49 73.93 105.62L85.32 92.78C87.46 90.37 91.27 90.27 93.86 92.56L96.19 94.63C98.78 96.92 99.15 100.73 97.01 103.12Z" />
		</g>
		<path id="&lt;Path&gt;" class="shp2" d="M127.41 129.92L125.07 127.84C122.49 125.56 118.67 125.66 116.54 128.06L108.77 136.84C107.02 138.81 106.37 141.31 106.81 143.46C107.06 144.63 107.63 145.7 108.55 146.5L110.88 148.57C113.17 150.6 116.79 150.34 119.46 148.13C119.81 147.85 120.14 147.53 120.45 147.18L128.23 138.41C130.36 135.99 129.99 132.2 127.41 129.92Z" />
		<path id="&lt;Path&gt;" class="shp2" d="M117.13 117.92L114.78 115.83C112.2 113.55 108.38 113.65 106.26 116.05L93.59 130.36C91.46 132.77 91.82 136.57 94.4 138.84L96.75 140.93C99.33 143.21 103.14 143.11 105.27 140.71L117.94 126.4C120.06 124 119.7 120.2 117.13 117.92Z" />
		<path id="&lt;Path&gt;" class="shp2" d="M108.09 104.57L105.76 102.5C103.18 100.22 99.36 100.32 97.23 102.72L81.91 120.02C79.78 122.43 80.15 126.23 82.72 128.51L85.06 130.58C87.64 132.86 91.46 132.77 93.59 130.36L108.91 113.06C111.04 110.66 110.68 106.85 108.09 104.57Z" />
		<path id="&lt;Path&gt;" class="shp2" d="M94.97 95.87L92.63 93.79C90.05 91.51 86.23 91.61 84.1 94.01L70.23 109.68C68.09 112.08 68.46 115.88 71.04 118.17L73.38 120.24C75.96 122.52 79.78 122.43 81.91 120.02L95.78 104.36C97.91 101.95 97.54 98.14 94.97 95.87Z" />
		<path id="&lt;Path&gt;" class="shp1" d="M81.88 120.04C82.96 118.55 84.11 117.12 85.27 115.7C86.42 114.27 87.62 112.89 88.83 111.51C90.05 110.15 91.28 108.79 92.55 107.47L94.47 105.51C95.13 104.86 95.77 104.21 96.45 103.59C95.92 104.34 95.35 105.06 94.8 105.79L93.07 107.93C91.92 109.36 90.71 110.74 89.51 112.11C88.28 113.47 87.06 114.84 85.78 116.16C84.52 117.48 83.24 118.79 81.88 120.04Z" />
		<path id="&lt;Path&gt;" class="shp1" d="M108.07 137.61C109.35 135.63 110.83 133.84 112.35 132.08C113.92 130.35 115.52 128.66 117.33 127.15C116.05 129.14 114.57 130.93 113.03 132.68C111.48 134.41 109.88 136.1 108.07 137.61Z" />
		<path id="&lt;Path&gt;" class="shp1" d="M92.84 131.21C93.88 129.76 94.98 128.38 96.09 127.01C97.2 125.63 98.36 124.31 99.52 122.98C100.69 121.67 101.87 120.36 103.11 119.09L104.95 117.2C105.6 116.59 106.21 115.96 106.88 115.36C106.37 116.08 105.81 116.77 105.28 117.48L103.62 119.56C102.52 120.93 101.36 122.26 100.2 123.58C99.02 124.9 97.84 126.21 96.6 127.47C95.39 128.74 94.15 130 92.84 131.21Z" />
		<path id="&lt;Path&gt;" class="shp1" d="M147.82 105.02C149.27 105.98 158.6 113.19 159.99 114.23C161.38 115.26 162.74 116.35 164.09 117.42C165.43 118.52 166.79 119.62 168.09 120.76L170.04 122.48C170.67 123.07 171.33 123.65 171.94 124.26C171.22 123.79 170.51 123.28 169.8 122.78L167.7 121.23C166.31 120.21 164.95 119.12 163.6 118.04C162.26 116.95 160.91 115.85 159.6 114.7C158.29 113.57 149.07 106.24 147.82 105.02Z" />
		<path id="&lt;Path&gt;" class="shp1" d="M125.61 122.87C127.73 124.17 137.61 131.85 139.54 133.37C141.45 134.93 143.32 136.53 145.04 138.32C142.92 137.02 140.96 135.53 139.04 133.99C137.13 132.44 127.33 124.66 125.61 122.87Z" />
		<path id="&lt;Path&gt;" class="shp1" d="M135.33 113.02C136.73 113.94 146 121.11 147.35 122.11C148.69 123.1 149.99 124.13 151.3 125.18C152.6 126.23 153.89 127.29 155.15 128.4L157.03 130.06C157.63 130.63 158.26 131.18 158.85 131.78C158.15 131.33 157.47 130.83 156.79 130.35L154.76 128.87C153.41 127.88 152.1 126.84 150.8 125.8C149.51 124.74 148.21 123.69 146.96 122.58C145.7 121.48 136.52 114.19 135.33 113.02Z" />
		<path id="&lt;Path&gt;" class="shp1" d="M183.84 116.97C165.47 97.88 146.65 76.5 129.72 71.85C125.86 70.79 116.81 78.44 103.35 78.69C94.42 78.86 85.07 70.35 85.35 65.31C85.62 60.26 96.19 64.89 100.94 64.37C104.8 63.95 115.16 58.37 124.06 55.37C130.86 59.33 139.98 70.92 144.7 74.85C150.24 79.47 183.13 113.37 183.65 114.48C183.96 115.14 184.01 116.01 183.84 116.97Z" />
		<path id="&lt;Path&gt;" class="shp2" d="M192.87 100.85C192.57 101.29 192.19 101.88 191.71 102.62C191.2 103.43 190.53 104.47 189.79 105.65C187.78 108.9 185.27 113.08 183.94 115.93C164.85 96.25 147.33 74.24 129.72 69.39C125.86 68.33 115.18 77.01 101.73 77.26C92.8 77.43 85.07 70.35 85.35 65.31C85.62 60.26 96.19 62.43 100.94 61.91C105.71 61.39 120.35 53.03 129.94 51.33C138.77 49.76 159.54 50.05 168.12 50.25C169.52 50.28 170.61 50.3 171.25 50.33C171.54 50.34 171.77 50.35 171.94 50.35L192.87 100.85Z" />
		<path id="&lt;Path&gt;" class="shp3" d="M43.8 105.03L0.53 83.28L0.53 0.23L70.53 36.73L43.8 105.03Z" />
		<path id="&lt;Path&gt;" class="shp4" d="M59.09 106.99L45.17 101.54L69.16 40.21L83.09 45.66L59.09 106.99Z" />
		<path id="&lt;Path&gt;" class="shp1" d="M84.85 49.07L65.76 97.85C64.86 97.14 63.99 96.62 63.21 96.4L81.93 48.6C82.69 48.73 83.67 48.9 84.85 49.07Z" />
		<path id="&lt;Path&gt;" class="shp5" d="M47.39 102.41L45.17 101.54L69.16 40.21L71.39 41.09L47.39 102.41Z" />
		<g id="&lt;Group&gt;">
			<path id="&lt;Path&gt;" class="shp1" d="M42.76 89.48C41.59 92.46 38.23 93.94 35.23 92.77C32.24 91.6 30.77 88.23 31.94 85.24C33.11 82.24 36.48 80.77 39.47 81.93C42.47 83.11 43.93 86.48 42.76 89.48Z" />
			<path id="&lt;Path&gt;" class="shp6" d="M42.34 88.52C41.18 91.51 37.81 92.98 34.82 91.81C31.83 90.64 30.35 87.27 31.52 84.28C32.69 81.29 36.06 79.81 39.05 80.98C42.05 82.15 43.52 85.53 42.34 88.52Z" />
			<path id="&lt;Path&gt;" class="shp7" d="M40.59 82.69C40.08 82.13 39.45 81.67 38.69 81.38C36.06 80.34 33.09 81.64 32.05 84.28C31.76 85.04 31.67 85.82 31.74 86.58C33.89 83.92 37.18 82.47 40.59 82.69Z" />
		</g>
		<path id="&lt;Path&gt;" class="shp8" d="M45.16 101.55L0.53 79.81L0.53 78.21L45.79 99.95L45.16 101.55Z" />
		<path id="&lt;Path&gt;" class="shp9" d="M208.69 105.03L251.97 83.28L251.97 0.23L181.97 36.73L208.69 105.03Z" />
		<path id="&lt;Path&gt;" class="shp4" d="M193.41 106.99L207.33 101.54L183.34 40.21L169.41 45.66L193.41 106.99Z" />
		<path id="&lt;Path&gt;" class="shp1" d="M191.71 102.62C191.2 103.43 190.53 104.47 189.79 105.65L168.12 50.25C169.52 50.28 170.61 50.3 171.25 50.33L191.71 102.62Z" />
		<path id="&lt;Path&gt;" class="shp5" d="M205.1 102.41L207.33 101.54L183.34 40.21L181.11 41.09L205.1 102.41Z" />
		<g id="&lt;Group&gt;">
			<path id="&lt;Path&gt;" class="shp1" d="M209.73 89.48C210.9 92.46 214.27 93.94 217.26 92.77C220.25 91.6 221.73 88.23 220.56 85.24C219.39 82.24 216.02 80.77 213.02 81.93C210.03 83.11 208.56 86.48 209.73 89.48Z" />
			<path id="&lt;Path&gt;" class="shp6" d="M210.15 88.52C211.32 91.51 214.69 92.98 217.68 91.81C220.67 90.64 222.14 87.27 220.98 84.28C219.81 81.29 216.43 79.81 213.44 80.98C210.45 82.15 208.98 85.53 210.15 88.52Z" />
			<path id="&lt;Path&gt;" class="shp7" d="M211.91 82.69C212.42 82.13 213.05 81.67 213.8 81.38C216.44 80.34 219.41 81.64 220.45 84.28C220.74 85.04 220.82 85.82 220.76 86.58C218.61 83.92 215.32 82.47 211.91 82.69Z" />
		</g>
		<path id="&lt;Path&gt;" class="shp10" d="M207.33 101.55L206.71 99.95L251.97 78.21L251.97 79.81L207.33 101.55Z" />
	</g>
</svg>