<svg version="1.2" baseProfile="tiny-ps" xmlns="http://www.w3.org/2000/svg" viewBox="0 0 196 196" width="196" height="196">
	<title>Launch</title>
	<style>
		tspan { white-space:pre }
		.shp0 { fill: #424b4e } 
		.shp1 { fill: #ff9f00 } 
		.shp2 { fill: #ffc300 } 
		.shp3 { fill: #295c6f } 
		.shp4 { fill: #fd3a0b } 
		.shp5 { fill: #e6e6e6 } 
		.shp6 { fill: #1da8b5 } 
		.shp7 { opacity: 0.2;fill: #000000 } 
		.shp8 { opacity: 0.302;fill: #ffffff } 
	</style>
	<g id="Launch">
		<path id="&lt;Path&gt;" class="shp0" d="M68.79 144.33L52.38 127.92C49.18 124.71 49.18 119.53 52.38 116.33L54.79 113.92L82.78 141.91L80.37 144.33C77.17 147.52 71.99 147.52 68.79 144.33Z" />
		<g id="&lt;Group&gt;">
			<path id="&lt;Path&gt;" class="shp1" d="M82.82 121.65L78.93 117.76L75.04 113.87C70.42 109.24 51.76 90.59 33.45 115.25C16.26 138.42 6.4 154.92 3.89 164.75L28.31 148.1L0.74 195.95L48.59 168.38L31.95 192.8C41.77 190.29 58.27 180.44 81.44 163.24C106.1 144.93 87.45 126.28 82.82 121.65Z" />
			<path id="&lt;Path&gt;" class="shp2" d="M36.22 151.96C37.96 148.95 37.44 145.16 35 142.72C34.93 142.65 34.86 142.58 34.79 142.51C32.77 140.64 29.97 140.04 27.45 140.77C30.89 135.43 35.19 129.17 40.55 121.96C44.55 116.57 48.62 113.68 52.62 113.39C59.27 112.9 65.76 119.39 67.89 121.52L75.17 128.8C77.31 130.93 83.79 137.42 83.31 144.07C83.01 148.08 80.12 152.14 74.73 156.14C67.52 161.5 61.26 165.8 55.92 169.25C56.66 166.72 56.05 163.92 54.18 161.9C54.11 161.83 54.04 161.76 53.98 161.69C51.53 159.25 47.74 158.73 44.73 160.47L24.66 172.04L36.22 151.96Z" />
		</g>
		<g id="&lt;Group&gt;">
			<path id="&lt;Path&gt;" class="shp3" d="M119.5 119.91C123.52 136.85 122.87 148.62 117.56 155.21C107.4 167.84 86.55 171.26 62.71 176.7C76.99 166.96 84.1 155.3 84.04 141.72C89.09 138.73 100.91 131.45 119.5 119.91Z" />
			<path id="&lt;Path&gt;" class="shp3" d="M76.8 77.2C59.86 73.18 48.09 73.83 41.49 79.14C28.87 89.31 25.44 110.15 20 133.99C29.74 119.71 41.4 112.6 54.98 112.66C57.98 107.61 65.25 95.79 76.8 77.2Z" />
		</g>
		<path id="&lt;Path&gt;" class="shp4" d="M125.19 119.35C110.89 128.73 97.03 137.33 83.6 145.15L51.56 113.1C59.37 99.67 67.97 85.81 77.35 71.51C82.02 81.32 88.68 90.88 97.25 99.45C105.83 108.02 115.38 114.68 125.19 119.35Z" />
		<path id="&lt;Path&gt;" class="shp5" d="M169.17 86.42C159.79 95.8 142.06 108.31 125.19 119.35C115.38 114.68 105.83 108.02 97.25 99.45C88.68 90.88 82.02 81.32 77.35 71.51C88.39 54.64 100.9 36.92 110.29 27.53C121.79 16.03 134.8 9.35 147.12 5.56C151.02 14.56 157.1 23.54 165.13 31.57C173.17 39.6 182.16 45.66 191.16 49.56C187.37 61.88 180.68 74.91 169.17 86.42Z" />
		<path id="&lt;Path&gt;" class="shp6" d="M155.18 74.33C146.12 83.4 131.42 83.4 122.36 74.33C113.29 65.27 113.29 50.58 122.36 41.52C131.42 32.45 146.12 32.45 155.18 41.52C164.24 50.58 164.24 65.27 155.18 74.33Z" />
		<path id="&lt;Path&gt;" class="shp7" d="M122.36 45.38C131.42 36.31 146.12 36.31 155.18 45.38C159.22 49.42 161.44 54.58 161.88 59.86C162.43 53.29 160.2 46.54 155.18 41.52C146.12 32.45 131.42 32.45 122.36 41.52C117.33 46.54 115.11 53.29 115.65 59.86C116.09 54.58 118.32 49.42 122.36 45.38Z" />
		<path id="&lt;Compound Path&gt;" fill-rule="evenodd" class="shp3" d="M119.94 76.75C109.56 66.37 109.56 49.48 119.94 39.1C130.32 28.72 147.21 28.72 157.59 39.1C167.97 49.48 167.97 66.37 157.59 76.75C147.21 87.13 130.32 87.13 119.94 76.75ZM153.73 42.96C145.48 34.71 132.06 34.71 123.8 42.96C115.55 51.21 115.55 64.64 123.8 72.89C132.06 81.14 145.48 81.14 153.73 72.89C161.98 64.64 161.98 51.21 153.73 42.96Z" />
		<path id="&lt;Path&gt;" class="shp4" d="M194.58 34.29C196.37 22.13 196.35 11.43 194.52 2.19C185.28 0.36 174.57 0.34 162.41 2.13C157.55 2.82 152.39 3.92 147.12 5.56C151.02 14.56 157.1 23.54 165.13 31.57C173.17 39.6 182.16 45.66 191.16 49.56C192.78 44.27 193.86 39.14 194.58 34.29Z" />
		<path id="&lt;Path&gt;" class="shp8" d="M119.94 37.19C137.29 19.45 162.15 7.78 194.52 2.19C186.56 1.64 176.51 2.27 164.34 4.06C159.48 4.75 154.32 5.85 149.05 7.49C136.73 11.28 123.72 17.96 112.22 29.46C102.83 38.85 90.32 56.57 79.28 73.44C69.9 87.74 61.3 101.6 53.48 115.03L61.21 122.75C69.02 109.33 77.62 95.46 87 81.16C98.05 64.29 110.66 46.67 119.94 37.19Z" />
		<path id="&lt;Path&gt;" class="shp3" d="M69.68 134.31C59.7 144.29 49.61 152.28 39.42 158.27C45.41 148.08 53.4 137.99 63.38 128.01C78.35 113.04 90.49 100.9 93.64 104.05C96.79 107.2 84.65 119.34 69.68 134.31Z" />
	</g>
</svg>