<svg version="1.2" baseProfile="tiny-ps" xmlns="http://www.w3.org/2000/svg" viewBox="0 0 650 650" width="650" height="650">
	<title>&lt;Group&gt;</title>
	<defs>
		<linearGradient id="grd1" gradientUnits="userSpaceOnUse"  x1="519.852" y1="145.159" x2="650.824" y2="320.519">
			<stop offset="0" stop-color="#09ccff"  />
			<stop offset="0.982" stop-color="#0067e0"  />
		</linearGradient>
		<linearGradient id="grd2" gradientUnits="userSpaceOnUse"  x1="213.012" y1="219.98" x2="429.449" y2="220.954">
			<stop offset="0" stop-color="#00bef0"  />
			<stop offset="0.982" stop-color="#0057bc"  />
		</linearGradient>
		<linearGradient id="grd3" gradientUnits="userSpaceOnUse"  x1="184.521" y1="272.672" x2="474.852" y2="255.39">
			<stop offset="0" stop-color="#00a2d1"  />
			<stop offset="0.982" stop-color="#00389b"  />
		</linearGradient>
		<linearGradient id="grd4" gradientUnits="userSpaceOnUse"  x1="256.063" y1="242.91" x2="442.558" y2="243.749">
			<stop offset="0" stop-color="#00a2d1"  />
			<stop offset="0.982" stop-color="#00389b"  />
		</linearGradient>
		<linearGradient id="grd5" gradientUnits="userSpaceOnUse"  x1="129.932" y1="503.702" x2="-1.043" y2="328.339">
			<stop offset="0" stop-color="#00ee61"  />
			<stop offset="0.982" stop-color="#00c491"  />
		</linearGradient>
		<linearGradient id="grd6" gradientUnits="userSpaceOnUse"  x1="436.77" y1="428.877" x2="220.33" y2="427.903">
			<stop offset="0" stop-color="#00d558"  />
			<stop offset="0.982" stop-color="#009f76"  />
		</linearGradient>
		<linearGradient id="grd7" gradientUnits="userSpaceOnUse"  x1="465.26" y1="376.185" x2="174.925" y2="393.466">
			<stop offset="0" stop-color="#00b44d"  />
			<stop offset="0.982" stop-color="#007c68"  />
		</linearGradient>
		<linearGradient id="grd8" gradientUnits="userSpaceOnUse"  x1="393.717" y1="405.949" x2="207.224" y2="405.11">
			<stop offset="0" stop-color="#00b44d"  />
			<stop offset="0.982" stop-color="#007c68"  />
		</linearGradient>
	</defs>
	<style>
		tspan { white-space:pre }
		.shp0 { fill: url(#grd1) } 
		.shp1 { fill: url(#grd2) } 
		.shp2 { fill: url(#grd3) } 
		.shp3 { fill: url(#grd4) } 
		.shp4 { fill: url(#grd5) } 
		.shp5 { fill: url(#grd6) } 
		.shp6 { fill: url(#grd7) } 
		.shp7 { fill: url(#grd8) } 
	</style>
	<g id="&lt;Group&gt;">
		<g id="&lt;Group&gt;">
			<path id="&lt;Path&gt;" class="shp0" d="M641.15 324.52C612.35 277.14 562.62 236.61 491.94 202.93C417.71 167.55 344.64 170 303.3 179.12C259.84 188.7 219.95 204.15 183.65 225.47C187.78 242.42 201.94 248.33 226.12 243.19C267.03 234.51 345.71 199.76 419.21 229.05C461.32 245.83 476.17 310.59 389.83 298.67C356.94 295.1 333.27 313.34 339.88 333.17C342.83 341.99 350.75 332.7 382.98 339.18C391.06 340.8 437.94 353.89 447.59 356.77C474.06 364.68 487.99 370.12 521.86 364.34C579.09 354.6 611.65 318.49 641.15 324.52Z" />
			<path id="&lt;Path&gt;" class="shp1" d="M429.35 243.19C425.54 240.21 421.18 237.61 416.47 235.66C398.18 228.06 378.58 224.32 356.57 224.22C319.88 224.05 284.88 234.21 256.76 242.37C245.63 245.61 236.01 248.4 227.61 250.18C222.48 251.27 217.59 251.81 213.06 251.79C213 251.79 212.93 251.79 212.87 251.79C216.51 258.29 226.68 270.07 251.63 266.91C287.3 262.39 322.14 245.63 371.55 240.99C391.57 239.11 411.82 240.59 429.35 243.19Z" />
			<path id="&lt;Path&gt;" class="shp2" d="M413.02 264.1C395.77 264.03 379.73 265.82 373.67 266.96C359.36 269.67 345.95 274.02 332.99 278.23C318.4 282.97 304.62 287.45 290.75 289.22C295.14 295.02 304.54 302.26 323.46 299.86C353.1 296.11 383.48 266.68 442.02 274.14C442.92 272.74 443.54 271.25 443.86 269.68C444.03 268.82 444.09 267.93 444.09 267.03C435.78 265.17 425.23 264.16 413.02 264.1Z" />
			<path id="&lt;Path&gt;" class="shp3" d="M391.28 247.29C384.7 247.26 378.28 247.54 372.22 248.11C344.95 250.67 322.57 256.91 300.92 262.95C285.46 267.26 270.8 271.32 255.92 273.51C261.69 279.1 271.95 284.41 289.68 282.16C315.05 278.94 341.43 265.79 372.34 259.94C382.08 258.09 416.87 254.57 442.49 259.38C441.45 256.87 439.93 254.34 438.05 251.88C424.2 249.38 407.97 247.37 391.28 247.29Z" />
		</g>
		<g id="&lt;Group&gt;">
			<path id="&lt;Path&gt;" class="shp4" d="M8.63 324.33C37.43 371.71 87.16 412.24 157.84 445.92C232.07 481.3 305.14 478.85 346.48 469.74C389.94 460.15 429.83 444.71 466.13 423.39C462 406.44 447.84 400.53 423.65 405.67C382.75 414.35 304.07 449.09 230.57 419.81C188.47 403.03 173.61 338.26 259.96 350.19C292.84 353.76 316.51 335.52 309.9 315.69C306.95 306.86 299.03 316.16 266.8 309.68C258.73 308.05 211.84 294.97 202.19 292.09C175.72 284.17 161.79 278.74 127.92 284.51C70.68 294.26 38.13 330.37 8.63 324.33Z" />
			<path id="&lt;Path&gt;" class="shp5" d="M220.43 405.67C224.24 408.64 228.6 411.24 233.31 413.2C251.6 420.8 271.2 424.54 293.21 424.64C329.9 424.81 364.9 414.65 393.02 406.48C404.15 403.25 413.77 400.46 422.17 398.67C427.29 397.59 432.19 397.04 436.72 397.07C436.79 397.07 436.85 397.07 436.91 397.07C433.27 390.57 423.11 378.78 398.15 381.95C362.48 386.46 327.64 403.23 278.23 407.87C258.2 409.75 237.95 408.26 220.43 405.67Z" />
			<path id="&lt;Path&gt;" class="shp6" d="M236.76 384.75C254.01 384.83 270.05 383.04 276.11 381.9C290.42 379.19 303.83 374.84 316.79 370.62C331.38 365.89 345.16 361.41 359.03 359.63C354.64 353.84 345.25 346.6 326.32 348.99C296.68 352.75 266.3 382.18 207.76 374.72C206.86 376.12 206.24 377.6 205.92 379.18C205.75 380.04 205.69 380.93 205.68 381.83C214 383.68 224.55 384.7 236.76 384.75Z" />
			<path id="&lt;Path&gt;" class="shp7" d="M258.51 401.56C265.08 401.59 271.5 401.32 277.56 400.75C304.83 398.19 327.21 391.95 348.86 385.91C364.32 381.6 378.98 377.53 393.86 375.34C388.09 369.75 377.83 364.45 360.1 366.7C334.73 369.91 308.35 383.07 277.44 388.92C267.7 390.76 232.91 394.29 207.29 389.48C208.33 391.98 209.85 394.52 211.73 396.98C225.58 399.48 241.81 401.48 258.51 401.56Z" />
		</g>
	</g>
</svg>