<svg version="1.2" baseProfile="tiny-ps" xmlns="http://www.w3.org/2000/svg" viewBox="0 0 365 377" width="365" height="377">
	<title>scooter</title>
	<style>
		tspan { white-space:pre }
		.shp0 { fill: #ffffff } 
		.shp1 { fill: #352820 } 
		.shp2 { fill: #49392e } 
		.shp3 { fill: #c8c8c8 } 
		.shp4 { fill: #f13d3d } 
		.shp5 { fill: #59473b } 
		.shp6 { fill: #47372e } 
		.shp7 { fill: #dfdfdf } 
		.shp8 { fill: #ed544c } 
		.shp9 { fill: #aeaeae } 
		.shp10 { fill: #5b493c } 
		.shp11 { fill: #dc3131 } 
		.shp12 { fill: #cd2525 } 
		.shp13 { fill: #725c50 } 
		.shp14 { fill: #eeeeee } 
	</style>
	<g id="bike">
		<g id="&lt;Group&gt;">
			<path id="&lt;Path&gt;" class="shp0" d="M263.72 292.77L264.67 291.17C264.67 291.17 262.23 289.71 260.79 288.75C259.91 288.16 259.71 286.83 260.19 284.69C260.68 282.47 262.84 273.57 263.41 271.91C264.59 268.48 262.16 267.45 258.15 265.76L257.42 267.47C262.1 269.45 262.16 269.83 261.65 271.3C261.03 273.14 258.81 282.32 258.38 284.28C258.13 285.38 257.39 288.71 259.76 290.29C260.74 290.95 262.06 291.77 263.72 292.77Z" />
		</g>
		<g id="&lt;Group&gt;">
			<path id="&lt;Path&gt;" class="shp1" d="M267.87 288.06C267.86 291.1 266.01 294.63 263.73 295.94C261.45 297.25 259.61 295.85 259.61 292.82C259.61 289.78 261.46 286.25 263.74 284.94C266.02 283.62 267.87 285.02 267.87 288.06Z" />
			<path id="&lt;Path&gt;" class="shp1" d="M262.72 297.12L260.92 296.08L266.45 284.73L267.96 285.63L262.72 297.12Z" />
			<path id="&lt;Path&gt;" class="shp2" d="M269.43 288.98C269.43 292.01 267.58 295.54 265.3 296.86C263.02 298.17 261.17 296.77 261.17 293.73C261.18 290.69 263.03 287.17 265.31 285.85C267.59 284.54 269.43 285.94 269.43 288.98Z" />
			<path id="&lt;Path&gt;" class="shp3" d="M266.41 291.08C266.41 291.64 266.07 292.28 265.65 292.52C265.24 292.76 264.9 292.51 264.9 291.95C264.9 291.4 265.24 290.75 265.66 290.52C266.07 290.28 266.41 290.53 266.41 291.08Z" />
		</g>
		<g id="&lt;Group&gt;">
			<path id="&lt;Path&gt;" class="shp4" d="M263.28 287.44C262.8 289.68 266.4 289.43 266.04 291.69L332.51 250.14L286.41 237.2L285.29 241.57L323.12 251.38L263.28 287.44Z" />
		</g>
		<g id="&lt;Group&gt;">
			<path id="&lt;Path&gt;" class="shp1" d="M251.49 268.15L243.25 263.39C241.3 262.27 241.55 260.28 243.8 258.98C246.05 257.68 249.49 257.54 251.44 258.67L259.67 263.42C261.62 264.55 261.38 266.53 259.13 267.83C256.87 269.13 253.44 269.27 251.49 268.15Z" />
			<path id="&lt;Path&gt;" class="shp1" d="M260.98 263.41L260.98 265.43L241.94 261.35L241.94 259.35L260.98 263.41Z" />
			<path id="&lt;Path&gt;" class="shp2" d="M251.49 266.09L243.25 261.33C241.3 260.21 241.55 258.22 243.8 256.92C246.05 255.62 249.49 255.48 251.44 256.61L259.67 261.36C261.62 262.49 261.38 264.47 259.13 265.77C256.87 267.07 253.44 267.21 251.49 266.09Z" />
		</g>
		<g id="&lt;Group&gt;">
			<path id="&lt;Compound Path&gt;" fill-rule="evenodd" class="shp5" d="M261.97 301.7C261.18 301.7 260.43 301.51 259.76 301.12C257.98 300.09 256.96 297.79 256.96 294.83C256.96 289.46 260.15 283.42 264.22 281.08C266.15 279.97 268.05 279.84 269.58 280.73C271.36 281.76 272.38 284.05 272.38 287.02L272.38 287.02C272.38 292.39 269.19 298.43 265.13 300.77C264.04 301.39 262.97 301.7 261.97 301.7ZM267.36 282C266.55 282 265.76 282.34 265.14 282.69C261.66 284.7 258.82 290.14 258.82 294.83C258.81 297.11 259.5 298.82 260.69 299.51C261.88 300.2 263.25 299.7 264.2 299.16C267.68 297.15 270.52 291.7 270.52 287.02C270.53 284.73 269.84 283.03 268.65 282.34C268.23 282.1 267.8 282 267.36 282Z" />
		</g>
		<g id="&lt;Group&gt;">
			<g id="&lt;Group&gt;">
				<path id="&lt;Path&gt;" class="shp4" d="M210.41 317.95L206.83 316.95L216.08 274.21C216.82 271.57 218.28 269.58 220.19 268.61C221.36 268.01 223.3 267.51 225.93 268.48L228.1 269.33L226.75 272.79L224.61 271.95C223.52 271.55 222.62 271.54 221.87 271.92C220.91 272.41 220.11 273.61 219.65 275.22L210.41 317.95Z" />
			</g>
			<g id="&lt;Group&gt;">
				<path id="&lt;Compound Path&gt;" fill-rule="evenodd" class="shp5" d="M206.05 330C205.29 330 204.57 329.81 203.92 329.44C202.21 328.45 201.23 326.25 201.24 323.41C201.24 318.29 204.28 312.52 208.17 310.29C210.03 309.22 211.85 309.11 213.32 309.95C215.03 310.94 216.01 313.14 216.01 315.98C216 321.1 212.96 326.87 209.08 329.1C208.04 329.7 207.01 330 206.05 330ZM211.19 311.24C210.42 311.24 209.67 311.56 209.09 311.9C205.79 313.8 203.1 318.97 203.09 323.41C203.09 325.57 203.73 327.18 204.85 327.83C205.97 328.48 207.26 328 208.15 327.49C211.45 325.59 214.14 320.42 214.15 315.98L214.15 315.97C214.15 313.82 213.51 312.21 212.39 311.56C212 311.34 211.59 311.24 211.19 311.24Z" />
			</g>
			<path id="&lt;Path&gt;" class="shp1" d="M212.98 317.18C212.98 320.39 211.02 324.12 208.62 325.51C206.21 326.9 204.26 325.42 204.26 322.21C204.26 319 206.22 315.27 208.63 313.88C211.04 312.5 212.99 313.97 212.98 317.18Z" />
			<g id="&lt;Group&gt;">
				<g id="&lt;Group&gt;">
					<path id="&lt;Path&gt;" class="shp0" d="M210.8 361.85L212.65 360.45L212.65 277.4L210.8 279.44L210.8 361.85Z" />
				</g>
				<g id="&lt;Group&gt;">
					<path id="&lt;Path&gt;" class="shp0" d="M187.49 361.69L233.83 281.27C234.3 281.69 234.78 282.11 235.24 282.54L188.89 363C188.39 362.6 187.96 362.13 187.49 361.69Z" />
				</g>
				<g id="&lt;Group&gt;">
					<path id="&lt;Path&gt;" class="shp0" d="M241.25 303.06C241.3 303.77 241.28 304.49 241.28 305.2L178.87 341.61L177.94 340.01L241.25 303.06Z" />
				</g>
				<g id="&lt;Group&gt;">
					<path id="&lt;Path&gt;" class="shp0" d="M234.37 338.16L185.15 304.86L186.18 303.32L235.4 336.61C235.09 337.15 234.76 337.66 234.37 338.16Z" />
				</g>
			</g>
			<path id="&lt;Path&gt;" class="shp1" d="M230.17 276.37L225.83 274.13C225.27 274.96 225.03 275.33 225.12 275.25C225.2 275.17 226.89 276.04 230.17 277.87L230.17 276.37Z" />
			<path id="&lt;Path&gt;" class="shp1" d="M185.95 362.34L189.17 364.06L189.56 362.52L187.11 361.36L185.95 362.34Z" />
			<path id="&lt;Compound Path&gt;" fill-rule="evenodd" class="shp1" d="M184.8 361.6C176.93 356.13 172.62 345.24 172.97 331.71C173.59 307.53 189.04 281.84 207.41 274.45C215.39 271.24 223.13 271.8 229.21 276.03C237.08 281.49 241.39 292.38 241.05 305.91C240.42 330.1 224.97 355.78 206.6 363.17C203.18 364.55 199.81 365.23 196.59 365.23C192.3 365.23 188.28 364.02 184.8 361.6ZM225.98 281.21C221.14 277.85 215.14 277.46 208.61 280.09C192.34 286.64 178.66 309.61 178.1 331.3C177.8 342.94 181.34 352.2 187.83 356.7C192.66 360.06 198.67 360.44 205.2 357.82C221.46 351.28 235.15 328.31 235.71 306.61C236.01 294.97 232.46 285.71 225.98 281.21Z" />
			<g id="&lt;Group&gt;">
				<path id="&lt;Compound Path&gt;" fill-rule="evenodd" class="shp2" d="M187.73 363.15C179.86 357.68 175.55 346.79 175.89 333.26C176.52 309.08 191.97 283.39 210.34 276C218.32 272.79 226.06 273.35 232.14 277.57C240.01 283.04 244.32 293.93 243.97 307.46C243.35 331.64 227.9 357.33 209.52 364.72C206.11 366.1 202.74 366.78 199.52 366.78C195.23 366.78 191.2 365.56 187.73 363.15ZM228.91 282.76C224.07 279.4 218.07 279.01 211.53 281.64C195.27 288.18 181.59 311.15 181.03 332.85C180.72 344.49 184.27 353.75 190.75 358.25C195.59 361.6 201.6 361.99 208.13 359.37C224.39 352.82 238.08 329.85 238.64 308.16C238.94 296.52 235.39 287.26 228.91 282.76Z" />
			</g>
		</g>
		<g id="&lt;Group&gt;">
			<path id="&lt;Path&gt;" class="shp4" d="M217.79 323.18L214.22 322.17L228.62 277.49C229.2 275.47 228.07 273.26 226.18 272.37L223.09 271.17L224.46 267.72L227.76 269C231.42 270.72 233.27 274.73 232.2 278.51L217.79 323.18Z" />
		</g>
		<g id="&lt;Group&gt;">
			<path id="&lt;Path&gt;" class="shp2" d="M237.27 242.97L236.35 242.86C236.35 242.82 236.89 238.3 236.35 233.96C235.87 230.1 234.13 227.95 232.29 225.67C231.31 224.46 230.3 223.21 229.47 221.68C227.07 217.22 230.31 209.45 230.45 209.12L231.31 209.48C231.27 209.56 228.1 217.17 230.29 221.24C231.07 222.7 232.06 223.91 233.01 225.09C234.85 227.37 236.76 229.72 237.27 233.84C237.82 238.31 237.29 242.78 237.27 242.97Z" />
		</g>
		<g id="&lt;Group&gt;">
			<path id="&lt;Path&gt;" class="shp2" d="M222.46 258.08L221.2 268.03C221.05 269.51 223.19 270.92 225.96 271.19C228.73 271.45 231.1 270.48 231.24 269L232.5 259.05L222.46 258.08Z" />
			<path id="&lt;Path&gt;" class="shp5" d="M222.46 258.08C222.32 259.55 224.45 260.97 227.22 261.23C230 261.5 232.36 260.52 232.5 259.05C232.65 257.57 230.51 256.16 227.74 255.89C224.97 255.62 222.6 256.6 222.46 258.08Z" />
			<path id="&lt;Path&gt;" class="shp4" d="M224.28 257.68C224.19 258.64 225.59 259.57 227.41 259.75C229.23 259.92 230.78 259.28 230.87 258.31C230.97 257.34 229.57 256.42 227.75 256.24C225.93 256.06 224.37 256.71 224.28 257.68Z" />
		</g>
		<g id="&lt;Group&gt;">
			<g id="&lt;Group&gt;">
				<path id="&lt;Compound Path&gt;" fill-rule="evenodd" class="shp5" d="M326.48 260.33C325.72 260.33 325 260.14 324.35 259.77C322.64 258.77 321.66 256.58 321.67 253.74C321.67 248.62 324.72 242.85 328.6 240.61C330.46 239.55 332.28 239.43 333.75 240.28C335.46 241.27 336.44 243.47 336.44 246.3C336.43 251.43 333.39 257.19 329.51 259.43C328.47 260.03 327.44 260.33 326.48 260.33ZM331.62 241.57C330.85 241.57 330.1 241.89 329.52 242.22C326.22 244.13 323.53 249.29 323.52 253.74C323.52 255.9 324.16 257.51 325.28 258.16C326.4 258.81 327.69 258.33 328.58 257.82C331.88 255.92 334.58 250.75 334.58 246.3L334.58 246.3C334.58 244.15 333.94 242.54 332.82 241.89C332.43 241.66 332.02 241.57 331.62 241.57Z" />
			</g>
			<path id="&lt;Path&gt;" class="shp1" d="M333.41 247.51C333.41 250.72 331.45 254.45 329.05 255.84C326.64 257.22 324.69 255.75 324.69 252.54C324.69 249.33 326.65 245.6 329.06 244.21C331.47 242.82 333.42 244.3 333.41 247.51Z" />
			<g id="&lt;Group&gt;">
				<g id="&lt;Group&gt;">
					<path id="&lt;Path&gt;" class="shp0" d="M331.23 292.18L333.08 290.78L333.08 207.73L331.23 209.77L331.23 292.18Z" />
				</g>
				<g id="&lt;Group&gt;">
					<path id="&lt;Path&gt;" class="shp0" d="M307.92 292.02L354.26 211.6C354.73 212.02 355.21 212.44 355.67 212.87L309.32 293.32C308.82 292.93 308.39 292.46 307.92 292.02Z" />
				</g>
				<g id="&lt;Group&gt;">
					<path id="&lt;Path&gt;" class="shp0" d="M361.68 233.39C361.73 234.1 361.71 234.81 361.71 235.52L299.3 271.94L298.37 270.34L361.68 233.39Z" />
				</g>
				<g id="&lt;Group&gt;">
					<path id="&lt;Path&gt;" class="shp0" d="M354.8 268.49L305.57 235.19L306.61 233.65L355.83 266.94C355.52 267.47 355.19 267.99 354.8 268.49Z" />
				</g>
			</g>
			<path id="&lt;Path&gt;" class="shp1" d="M350.6 206.7L346.26 204.46C345.7 205.28 345.46 205.66 345.55 205.58C345.63 205.49 347.32 206.37 350.6 208.2L350.6 206.7Z" />
			<path id="&lt;Path&gt;" class="shp1" d="M306.38 292.67L309.6 294.39L309.99 292.85L307.54 291.69L306.38 292.67Z" />
			<path id="&lt;Compound Path&gt;" fill-rule="evenodd" class="shp1" d="M305.23 291.93C297.36 286.46 293.05 275.57 293.4 262.04C294.02 237.86 309.47 212.17 327.84 204.78C335.82 201.57 343.56 202.13 349.64 206.35C357.51 211.82 361.82 222.71 361.48 236.24C360.85 260.42 345.4 286.11 327.03 293.5C323.61 294.88 320.24 295.56 317.02 295.56C312.73 295.56 308.71 294.34 305.23 291.93ZM346.41 211.54C341.57 208.18 335.57 207.79 329.04 210.42C312.77 216.96 299.09 239.94 298.53 261.63C298.23 273.27 301.77 282.53 308.26 287.03C313.09 290.38 319.1 290.77 325.63 288.15C341.89 281.6 355.58 258.63 356.14 236.94C356.44 225.3 352.89 216.04 346.41 211.54Z" />
			<g id="&lt;Group&gt;">
				<path id="&lt;Compound Path&gt;" fill-rule="evenodd" class="shp2" d="M308.16 293.48C300.29 288.01 295.98 277.12 296.32 263.59C296.95 239.4 312.4 213.72 330.77 206.33C338.75 203.12 346.49 203.68 352.57 207.9C360.44 213.37 364.75 224.26 364.4 237.79C363.78 261.97 348.33 287.66 329.95 295.05C326.54 296.42 323.17 297.11 319.95 297.11C315.66 297.11 311.63 295.89 308.16 293.48ZM349.34 213.09C344.5 209.73 338.5 209.34 331.96 211.97C315.7 218.51 302.02 241.48 301.46 263.17C301.15 274.82 304.7 284.07 311.18 288.57C316.02 291.93 322.03 292.32 328.56 289.69C344.82 283.15 358.51 260.18 359.07 238.49C359.37 226.85 355.82 217.59 349.34 213.09Z" />
			</g>
		</g>
		<g id="&lt;Group&gt;">
			<path id="&lt;Path&gt;" class="shp3" d="M352.87 180.75L345.87 183.73C343.66 182.84 340.67 182.19 337.12 182.82C329.38 184.2 320.24 187.48 313.77 191.22C306.08 195.66 298.54 204.14 295.76 207.79C293.87 210.25 296.99 212.42 299.19 213.56C301.17 214.84 304.93 216.64 309.2 215.55C315.51 213.94 330.21 209.59 337.89 205.15C344.37 201.41 350.05 196.14 352.44 191.67C352.78 191.04 352.87 190.45 352.84 189.89L352.87 189.87L352.87 180.75Z" />
			<g id="&lt;Group&gt;">
				<path id="&lt;Path&gt;" class="shp6" d="M352.44 186.87C350.05 191.35 344.37 196.62 337.89 200.36C330.21 204.8 315.51 209.15 309.2 210.76C304.93 211.84 301.17 210.05 299.19 208.77C297.78 208.04 296.02 206.89 295.41 205.51C294.47 207.7 297.19 209.59 299.19 210.63C301.17 211.9 304.93 213.7 309.2 212.61C315.51 211.01 330.21 206.65 337.89 202.21C344.37 198.48 350.05 193.2 352.44 188.73C352.78 188.1 352.87 187.52 352.84 186.95L352.87 186.94L352.87 185.08L352.84 185.1C352.87 185.66 352.78 186.25 352.44 186.87Z" />
			</g>
			<path id="&lt;Path&gt;" class="shp7" d="M337.12 173.7C329.38 175.09 320.24 178.37 313.77 182.1C306.08 186.54 298.54 195.03 295.76 198.67C293.87 201.14 296.99 203.31 299.19 204.45C301.17 205.72 304.93 207.52 309.2 206.43C315.51 204.82 330.21 200.47 337.89 196.03C344.37 192.3 350.05 187.02 352.44 182.55C354.07 179.5 350.79 177.15 348.53 175.96C346.47 174.66 342.4 172.76 337.12 173.7Z" />
			<path id="&lt;Path&gt;" class="shp0" d="M336.66 175.68C330.16 176.84 322.49 179.59 317.05 182.73C310.59 186.46 304.26 193.58 301.93 196.64C300.34 198.71 302.96 200.53 304.81 201.49C306.47 202.56 309.63 204.07 313.21 203.16C318.51 201.81 330.85 198.15 337.31 194.42C342.74 191.29 347.52 186.86 349.52 183.1C350.89 180.54 348.14 178.57 346.24 177.57C344.51 176.48 341.09 174.89 336.66 175.68Z" />
		</g>
		<g id="&lt;Group&gt;">
			<g id="&lt;Group&gt;">
				<path id="&lt;Path&gt;" class="shp4" d="M268.86 296.84L340.08 252.31L284.85 236.81L281.91 240.91L330.7 253.56L268.86 290.82L228.21 244.98L227.95 251.98C254.5 282.3 268.14 297.25 268.86 296.84Z" />
			</g>
			<g id="&lt;Group&gt;">
				<path id="&lt;Path&gt;" class="shp4" d="M271.77 290.85L296.58 208.2L290.02 209.34L265.21 291.98L271.77 290.85Z" />
			</g>
			<g id="&lt;Group&gt;">
				<path id="&lt;Path&gt;" class="shp4" d="M284.09 242.66L283.39 236.81L228.08 244.06L228.77 249.91L284.09 242.66Z" />
			</g>
			<g id="&lt;Group&gt;">
				<path id="&lt;Path&gt;" class="shp4" d="M224.28 257.68L230.87 258.31L235.48 224.98L229.2 222.29L224.28 257.68Z" />
			</g>
		</g>
		<g id="&lt;Group&gt;">
			<path id="&lt;Path&gt;" class="shp2" d="M326.26 256.29C322.99 256.29 319.69 255.32 317.14 253.01C314.92 250.98 313.34 248.78 311.81 246.65C310.03 244.17 308.18 241.6 305.29 239.31C299.46 234.69 292.94 238.94 292.88 238.98L292.36 238.21C292.43 238.16 299.51 233.56 305.86 238.58C308.86 240.95 310.74 243.58 312.56 246.11C314.06 248.2 315.61 250.36 317.77 252.32C322.4 256.54 329.77 255.93 334.36 253.21L334.83 254.01C332.46 255.41 329.38 256.29 326.26 256.29Z" />
		</g>
		<g id="&lt;Group&gt;">
			<path id="&lt;Path&gt;" class="shp2" d="M334.19 251.61C334.17 251.57 331.86 248.05 328.76 245.52C325.65 242.98 320.76 243.79 315.98 247.64C312.88 250.15 308.38 251.32 304.51 250.63C301.65 250.12 299.44 248.69 298.11 246.48C294.83 241.01 290.27 236.57 288.24 236.02L288.49 235.12C290.74 235.74 295.46 240.26 298.91 246C300.4 248.49 302.87 249.4 304.67 249.72C308.28 250.36 312.49 249.26 315.4 246.92C320.53 242.78 325.87 241.97 329.35 244.8C332.56 247.42 334.87 250.95 334.97 251.1L334.19 251.61Z" />
		</g>
		<g id="&lt;Group&gt;">
			<path id="&lt;Path&gt;" class="shp2" d="M340.8 251.1C340.79 254.31 338.84 258.04 336.43 259.42C334.02 260.81 332.07 259.33 332.07 256.12C332.08 252.91 334.03 249.19 336.44 247.8C338.85 246.41 340.8 247.89 340.8 251.1Z" />
			<g id="&lt;Group&gt;">
				<path id="&lt;Compound Path&gt;" fill-rule="evenodd" class="shp5" d="M333.86 263.91C333.1 263.91 332.39 263.73 331.74 263.35C330.03 262.36 329.05 260.17 329.05 257.33C329.06 252.21 332.1 246.44 335.98 244.2C337.84 243.14 339.67 243.02 341.13 243.87C342.84 244.86 343.82 247.06 343.82 249.89C343.82 255.02 340.77 260.78 336.89 263.02C335.85 263.62 334.83 263.91 333.86 263.91ZM339 245.16C338.24 245.16 337.49 245.48 336.91 245.81C333.6 247.72 330.91 252.88 330.91 257.33C330.91 259.49 331.55 261.1 332.67 261.75C333.78 262.4 335.08 261.92 335.96 261.41C339.27 259.51 341.96 254.34 341.96 249.89L341.96 249.89C341.96 247.73 341.32 246.13 340.2 245.48C339.81 245.25 339.4 245.16 339 245.16Z" />
			</g>
		</g>
		<g id="&lt;Group&gt;">
			<path id="&lt;Path&gt;" class="shp2" d="M270 301.7C269.74 301.7 269.5 301.68 269.28 301.64C266.98 301.26 265.3 299.65 264.79 297.35C264.04 294.02 265.72 288.74 272.66 283.92C291.26 271 325.59 251.4 331.38 249.88C336.97 248.42 338.24 252.59 338.26 252.63L337.41 252.88C337.37 252.74 336.34 249.49 331.61 250.73C326 252.2 291.29 272.05 273.16 284.64C266.58 289.22 264.96 294.1 265.64 297.16C266.08 299.12 267.46 300.44 269.43 300.78C274.43 301.58 292.06 291.49 319.18 272.28C333.78 261.93 336.44 257.76 336.46 257.72L337.22 258.18C337.12 258.35 334.53 262.48 319.69 273C301.01 286.23 277.56 301.7 270 301.7Z" />
		</g>
		<path id="&lt;Path&gt;" class="shp2" d="M220.37 320.77C220.36 323.98 218.41 327.71 216 329.1C213.59 330.48 211.64 329.01 211.64 325.8C211.65 322.59 213.6 318.86 216.01 317.47C218.42 316.08 220.37 317.56 220.37 320.77Z" />
		<g id="&lt;Group&gt;">
			<path id="&lt;Compound Path&gt;" fill-rule="evenodd" class="shp5" d="M213.43 333.59C212.67 333.59 211.96 333.4 211.31 333.03C209.6 332.03 208.62 329.84 208.62 327C208.62 321.88 211.67 316.11 215.55 313.87C217.41 312.81 219.24 312.69 220.7 313.54C222.41 314.53 223.39 316.73 223.39 319.57C223.39 324.69 220.34 330.46 216.46 332.69C215.42 333.29 214.4 333.59 213.43 333.59ZM218.57 314.83C217.81 314.83 217.06 315.15 216.48 315.48C213.17 317.39 210.48 322.56 210.48 327C210.48 329.16 211.12 330.77 212.24 331.42C213.35 332.07 214.65 331.59 215.53 331.08C218.84 329.18 221.53 324.01 221.53 319.56L221.53 319.56C221.53 317.41 220.89 315.8 219.77 315.15C219.38 314.92 218.97 314.83 218.57 314.83Z" />
		</g>
		<g id="&lt;Group&gt;">
			<path id="&lt;Path&gt;" class="shp1" d="M273.64 291.06C273.63 294.1 271.78 297.62 269.5 298.94C267.22 300.25 265.38 298.85 265.38 295.81C265.38 292.77 267.23 289.25 269.51 287.93C271.79 286.62 273.64 288.02 273.64 291.06Z" />
			<path id="&lt;Path&gt;" class="shp1" d="M268.49 300.11L266.69 299.08L272.22 287.73L273.73 288.63L268.49 300.11Z" />
			<path id="&lt;Path&gt;" class="shp2" d="M275.2 291.97C275.2 295.01 273.35 298.54 271.07 299.85C268.79 301.17 266.94 299.77 266.94 296.73C266.95 293.69 268.8 290.16 271.08 288.85C273.36 287.54 275.2 288.94 275.2 291.97Z" />
			<g id="&lt;Group&gt;">
				<path id="&lt;Compound Path&gt;" fill-rule="evenodd" class="shp5" d="M267.51 304.7C266.72 304.7 265.98 304.51 265.3 304.12C263.52 303.08 262.5 300.79 262.5 297.83C262.51 292.46 265.69 286.42 269.76 284.08C271.69 282.97 273.59 282.84 275.12 283.73C276.9 284.76 277.92 287.05 277.92 290.02L277.92 290.02C277.92 295.38 274.73 301.42 270.67 303.76C269.59 304.39 268.51 304.7 267.51 304.7ZM272.91 285C272.09 285 271.3 285.34 270.68 285.69C267.2 287.69 264.36 293.14 264.36 297.83C264.35 300.11 265.04 301.82 266.23 302.51C267.42 303.2 268.8 302.69 269.74 302.15C273.22 300.15 276.06 294.7 276.07 290.01C276.07 287.73 275.38 286.02 274.19 285.33C273.78 285.09 273.34 285 272.91 285Z" />
			</g>
			<path id="&lt;Path&gt;" class="shp3" d="M272.8 293.51C272.8 294.59 272.14 295.84 271.33 296.31C270.52 296.77 269.86 296.28 269.87 295.2C269.87 294.12 270.53 292.86 271.34 292.4C272.15 291.93 272.8 292.43 272.8 293.51Z" />
			<path id="&lt;Path&gt;" class="shp0" d="M272.12 294.14C272.12 294.59 271.85 295.11 271.51 295.3C271.18 295.49 270.91 295.29 270.91 294.84C270.91 294.4 271.18 293.88 271.51 293.68C271.85 293.49 272.12 293.7 272.12 294.14Z" />
		</g>
		<g id="&lt;Group&gt;">
			<path id="&lt;Path&gt;" class="shp5" d="M312.5 199.21C308.57 202.63 298.38 204.15 290.98 206.22C287.84 207.09 283.31 207.69 278.97 205.79C278.53 203.76 278.63 200.9 280.23 197.85C285.93 186.98 296.02 179.85 303.89 185.13C307.09 187.28 312.09 190.51 314.9 193.96C314.96 195.46 314.54 197.44 312.5 199.21Z" />
			<path id="&lt;Path&gt;" class="shp6" d="M314.72 204.8C309.49 209.06 301.68 209.75 289.78 212.66C286.03 213.57 281.69 212.19 280.07 210.33C279.64 209.83 279.22 208.94 278.97 207.79C283.31 209.69 287.84 209.09 290.98 208.22C298.38 206.15 308.57 204.63 312.5 201.21C314.54 199.44 314.96 197.46 314.9 195.96C317.31 198.92 318.11 202.04 314.72 204.8Z" />
		</g>
		<g id="&lt;Group&gt;">
			<g id="&lt;Group&gt;">
				<path id="&lt;Path&gt;" class="shp2" d="M212.8 178.91C212.8 180.27 211.97 181.86 210.94 182.45C209.92 183.04 209.09 182.41 209.09 181.05C209.09 179.68 209.93 178.1 210.95 177.51C211.97 176.92 212.8 177.55 212.8 178.91Z" />
				<path id="&lt;Path&gt;" class="shp2" d="M226.11 185.5L212.09 177.39L209.9 182.59L223.58 190.56L226.11 185.5Z" />
				<path id="&lt;Path&gt;" class="shp5" d="M226.73 186.97C226.72 188.34 225.89 189.92 224.87 190.51C223.85 191.1 223.02 190.48 223.02 189.11C223.02 187.75 223.85 186.16 224.87 185.57C225.9 184.98 226.73 185.61 226.73 186.97Z" />
				<path id="&lt;Path&gt;" class="shp0" d="M225.91 187.44C225.91 188.21 225.45 189.1 224.87 189.43C224.3 189.76 223.83 189.41 223.83 188.64C223.83 187.88 224.3 186.99 224.87 186.66C225.45 186.32 225.91 186.68 225.91 187.44Z" />
			</g>
			<g id="&lt;Group&gt;">
				<path id="&lt;Path&gt;" class="shp0" d="M224.14 189.45C224.49 188.4 225.04 187.59 225.38 186.53C231.5 190.53 232.43 192.87 229.7 199.72C227.93 204.16 230.5 205.94 235.18 208.72L236.11 209.27C240.3 211.78 245.41 213.49 247.17 210.73C248.79 208.19 253.09 201.44 257.71 204.25C261.44 206.51 264.33 208.18 264.33 208.19L262.93 210.59C260.99 209.47 258.77 208.15 256.26 206.63C254.7 205.7 252.51 207.53 249.52 212.23C248.38 214.02 246.53 214.92 244.16 214.92C241.54 214.92 238.29 213.82 234.67 211.65L233.77 211.11C229.36 208.51 224.38 205.55 227.12 198.69C229.08 193.77 228.66 192.47 224.14 189.45Z" />
			</g>
			<g id="&lt;Group&gt;">
				<path id="&lt;Path&gt;" class="shp2" d="M264.53 208.02C264.53 209.38 263.7 210.96 262.68 211.55C261.65 212.14 260.83 211.52 260.83 210.15C260.83 208.79 261.66 207.2 262.68 206.61C263.71 206.02 264.54 206.65 264.53 208.02Z" />
				<path id="&lt;Path&gt;" class="shp2" d="M277.85 214.61L263.82 206.5L261.63 211.7L275.32 219.66L277.85 214.61Z" />
				<path id="&lt;Path&gt;" class="shp5" d="M278.46 216.08C278.46 217.44 277.63 219.03 276.6 219.62C275.58 220.21 274.75 219.58 274.75 218.22C274.75 216.85 275.58 215.27 276.61 214.68C277.63 214.09 278.46 214.72 278.46 216.08Z" />
			</g>
		</g>
		<g id="&lt;Group&gt;">
			<g id="&lt;Group&gt;">
				<path id="&lt;Path&gt;" class="shp0" d="M283.53 318.08L284.3 316.39C284.27 316.37 280.9 314.83 279.11 313.89C277.78 313.18 277.31 312.3 277.2 308.49C277.12 306.12 277.14 303.97 277.15 302.38C277.16 301.4 277.16 300.62 277.15 300.13C277.03 296.64 275.1 295.42 271.91 293.66L271.13 295.32C274.39 297.13 275.21 297.89 275.29 300.19C275.31 300.67 275.3 301.42 275.29 302.37C275.28 303.98 275.27 306.15 275.34 308.55C275.46 312.38 275.9 314.29 278.25 315.53C280.08 316.49 283.39 318.01 283.53 318.08Z" />
			</g>
			<g id="&lt;Group&gt;">
				<path id="&lt;Path&gt;" class="shp1" d="M288 323.89L279.76 319.13C277.81 318.01 278.06 316.02 280.31 314.72C282.56 313.42 286 313.28 287.95 314.41L296.18 319.16C298.13 320.29 297.89 322.27 295.63 323.57C293.38 324.87 289.95 325.01 288 323.89Z" />
				<path id="&lt;Path&gt;" class="shp1" d="M297.49 319.15L297.49 321.17L278.45 317.09L278.45 315.09L297.49 319.15Z" />
				<path id="&lt;Path&gt;" class="shp2" d="M288 321.83L279.76 317.07C277.81 315.95 278.06 313.96 280.31 312.66C282.56 311.36 286 311.22 287.95 312.35L296.18 317.1C298.13 318.23 297.89 320.21 295.63 321.51C293.38 322.81 289.95 322.95 288 321.83Z" />
			</g>
		</g>
		<g id="&lt;Group&gt;">
			<path id="&lt;Path&gt;" class="shp2" d="M278.07 250.64C276.97 250.64 275.95 250.46 274.99 250.09C272.58 249.17 270.67 247.08 269.31 243.87C266.93 238.28 263.75 236.88 261.6 237.47C260.28 237.81 259.38 238.88 259.5 239.95L258.58 240.05C258.41 238.53 259.6 237.03 261.36 236.57C263.92 235.89 267.56 237.37 270.17 243.51C271.43 246.47 273.16 248.4 275.32 249.22C277.73 250.14 280.66 249.76 284.29 248.06C287.78 246.42 288.64 242.71 288.65 242.67L289.55 242.87C289.52 243.04 288.6 247.07 284.69 248.9C282.21 250.06 280.02 250.64 278.07 250.64Z" />
		</g>
		<g id="&lt;Group&gt;">
			<path id="&lt;Path&gt;" class="shp2" d="M265.61 249.68C264.52 249.68 263.44 249.42 262.51 248.89C261.21 248.16 260.43 247.01 260.36 245.73L261.29 245.69C261.34 246.65 261.94 247.5 262.97 248.08C264.56 248.98 266.66 248.97 268.35 248.07C270.74 246.79 272.41 242.77 273.75 239.54C274.14 238.6 274.51 237.71 274.86 237C277.48 231.6 282.75 233.45 282.81 233.46L282.49 234.34C282.31 234.27 277.95 232.77 275.69 237.41C275.36 238.09 274.99 238.97 274.61 239.9C273.21 243.26 271.47 247.45 268.78 248.89C267.81 249.42 266.7 249.68 265.61 249.68Z" />
		</g>
		<g id="&lt;Group&gt;">
			<path id="&lt;Path&gt;" class="shp2" d="M240.39 250.92C240.31 250.92 240.23 250.91 240.15 250.91C238.9 250.82 238.04 250.03 237.81 248.76L238.72 248.58C238.88 249.45 239.38 249.92 240.21 249.98C242.25 250.13 246.05 247.64 247.7 242.77C249.4 237.77 252.62 237.42 253.94 237.48C255.84 237.59 257.57 238.79 257.87 240.2L256.97 240.4C256.78 239.52 255.55 238.51 253.89 238.41C252.82 238.35 250.08 238.67 248.58 243.07C246.95 247.85 243.1 250.92 240.39 250.92Z" />
		</g>
		<g id="&lt;Group&gt;">
			<path id="&lt;Path&gt;" class="shp2" d="M252.02 250.61C249.51 250.61 246.93 249.61 244.8 247.78C242.48 245.8 241.09 243.2 240.99 240.65C240.62 231.76 235.28 228.11 235.23 228.08L235.74 227.3C235.97 227.46 241.52 231.22 241.91 240.61C242.01 242.87 243.31 245.28 245.4 247.08C247.63 248.99 250.37 249.91 252.94 249.63C258.32 249.03 258.4 246.1 258.4 245.97L259.33 245.96C259.33 246.12 259.31 249.85 253.05 250.55C252.71 250.59 252.36 250.61 252.02 250.61Z" />
		</g>
		<g id="&lt;Group&gt;">
			<path id="&lt;Path&gt;" class="shp2" d="M248.39 211.78C247.16 211.78 245.87 211.47 244.63 210.63C242.91 209.46 241.39 209.01 240.34 209.39C239.58 209.65 239.24 210.28 239.1 210.76L238.21 210.48C238.51 209.52 239.16 208.82 240.04 208.51C240.98 208.17 242.62 208.15 245.15 209.86C248.29 212 251.93 210.22 254.4 208.69C258.96 205.85 263.88 209.99 264.09 210.16L263.49 210.87C263.44 210.83 258.87 207 254.88 209.48C253.7 210.21 251.17 211.78 248.39 211.78Z" />
		</g>
		<g id="&lt;Group&gt;">
			<path id="&lt;Path&gt;" class="shp2" d="M227.75 225.12C226.14 223.53 223.73 219.76 226.17 216.85C228.35 214.25 231.39 214.24 233.84 214.22C235.88 214.21 237.06 214.16 237.36 213.17L238.25 213.44C237.73 215.13 235.84 215.14 233.85 215.15C231.47 215.17 228.78 215.18 226.88 217.45C224.38 220.43 228.36 224.42 228.41 224.46L227.75 225.12Z" />
		</g>
		<g id="&lt;Group&gt;">
			<path id="&lt;Path&gt;" class="shp2" d="M232.26 206.87L231.51 206.33C231.51 206.32 232.2 205.33 231.95 204.4C231.81 203.89 231.38 203.46 230.68 203.14C229.99 202.82 228.99 203.1 227.92 203.4C226.44 203.81 224.75 204.29 223.5 203.05C221.63 201.19 223.07 198.11 224.22 195.63C224.38 195.29 224.54 194.96 224.68 194.64C225.79 192.16 224.58 190.63 224.14 189.45L225.44 190.21C225.46 190.23 226.91 191.92 225.53 195.02C225.38 195.34 225.23 195.68 225.06 196.03C223.98 198.35 222.75 200.99 224.16 202.39C225.02 203.25 226.31 202.89 227.67 202.5C228.85 202.17 230.06 201.83 231.07 202.3C232.03 202.74 232.63 203.37 232.84 204.17C233.21 205.52 232.3 206.81 232.26 206.87Z" />
		</g>
		<g id="&lt;Group&gt;">
			<path id="&lt;Path&gt;" class="shp3" d="M262.49 290.59L250.72 277.76L244.96 283.9L256.73 296.72C257.63 297.57 259.65 296.89 261.24 295.19C262.84 293.5 263.4 291.43 262.49 290.59Z" />
			<path id="&lt;Path&gt;" class="shp0" d="M244.95 283.9C245.86 284.75 247.88 284.06 249.47 282.37C251.07 280.67 251.63 278.61 250.72 277.76C249.82 276.92 247.8 277.6 246.21 279.3C244.61 280.99 244.05 283.05 244.95 283.9Z" />
		</g>
		<path id="&lt;Path&gt;" class="shp2" d="M228.56 219.54L227.42 228.49C227.3 229.82 229.22 231.09 231.71 231.33C234.21 231.57 236.34 230.69 236.47 229.37L237.6 220.41L228.56 219.54Z" />
		<path id="&lt;Path&gt;" class="shp5" d="M228.56 219.54C228.43 220.86 230.35 222.14 232.85 222.38C235.35 222.62 237.47 221.74 237.6 220.41C237.73 219.08 235.81 217.81 233.31 217.57C230.82 217.33 228.69 218.21 228.56 219.54Z" />
		<path id="&lt;Path&gt;" class="shp0" d="M230.62 219.6C230.55 220.33 231.6 221.03 232.97 221.16C234.35 221.3 235.52 220.81 235.59 220.08C235.66 219.35 234.6 218.65 233.23 218.52C231.86 218.39 230.69 218.87 230.62 219.6Z" />
		<path id="&lt;Path&gt;" class="shp0" d="M232.51 208.8L230.62 219.6L235.59 220.08L236.81 211.04L232.51 208.8Z" />
		<g id="&lt;Group&gt;">
			<path id="&lt;Path&gt;" class="shp2" d="M247.6 281.06C247.53 280.99 245.78 279.16 244.67 277.36C242.55 273.9 245.31 271.65 245.33 271.63L245.75 272.15C245.65 272.23 243.43 274.06 245.24 277.01C246.31 278.75 248.06 280.58 248.08 280.6L247.6 281.06Z" />
		</g>
		<path id="&lt;Path&gt;" class="shp4" d="M288.24 224.23C288.52 223.8 309.1 211.11 312.81 209.08C316.53 207.05 322.25 204.46 322.87 207.7C323.24 209.65 319.65 211.42 316.09 212.26C312.53 213.1 308.48 216.28 301.44 221.18C296.75 224.45 292.35 227.58 288.24 230.57L288.24 224.23Z" />
		<path id="&lt;Path&gt;" class="shp5" d="M319.89 207.32C318.36 207.9 318.99 210.25 320.36 209.94C322.1 209.53 322.18 206.46 319.89 207.32Z" />
	</g>
	<g id="roller">
		<path id="&lt;Path&gt;" class="shp8" d="M257.18 60.31C261.78 59.75 264.54 61.34 265.46 65.07C266.37 68.8 263.56 71.33 257.03 72.68L257.18 60.31Z" />
		<g id="&lt;Group&gt;">
			<path id="&lt;Path&gt;" class="shp1" d="M257.03 102.95C257.02 115.09 249.62 129.19 240.5 134.44C231.39 139.69 224.01 134.1 224.02 121.96C224.04 109.81 231.43 95.71 240.55 90.46C249.66 85.21 257.04 90.8 257.03 102.95Z" />
			<path id="&lt;Path&gt;" class="shp1" d="M230.12 135.52L235.85 138.64L255.88 92.17L250.72 89.29L230.12 135.52Z" />
			<path id="&lt;Path&gt;" class="shp2" d="M262.69 106.04C262.68 118.19 255.28 132.29 246.17 137.54C237.05 142.79 229.68 137.2 229.69 125.06C229.7 112.91 237.1 98.81 246.21 93.56C255.33 88.31 262.7 93.9 262.69 106.04Z" />
			<path id="&lt;Path&gt;" class="shp0" d="M258.05 108.72C258.04 117.45 252.73 127.58 246.17 131.36C239.62 135.13 234.32 131.11 234.33 122.38C234.34 113.65 239.66 103.52 246.21 99.74C252.76 95.97 258.06 99.99 258.05 108.72Z" />
			<path id="&lt;Path&gt;" class="shp2" d="M252.86 112.06C252.85 116.52 250.13 121.7 246.79 123.62C243.44 125.55 240.73 123.5 240.74 119.04C240.74 114.58 243.46 109.4 246.8 107.47C250.15 105.55 252.86 107.6 252.86 112.06Z" />
			<path id="&lt;Path&gt;" class="shp5" d="M251.84 112.64C251.84 116.36 249.58 120.67 246.79 122.27C244 123.88 241.74 122.17 241.75 118.46C241.75 114.74 244.01 110.43 246.8 108.82C249.59 107.22 251.85 108.93 251.84 112.64Z" />
		</g>
		<path id="&lt;Path&gt;" class="shp0" d="M184.96 166.65C214.02 156.25 237.69 134.97 252.38 116.23C265.84 99.06 273.18 90.33 258.02 79.16C240.12 65.98 200.78 108.08 185.72 115.37C175.68 120.23 162.9 126.35 147.39 133.74L184.96 166.65Z" />
		<path id="&lt;Path&gt;" class="shp0" d="M167.99 52.15C174.4 54.65 177.09 58.13 183.47 72.18C186.87 79.69 183.83 99.52 180.64 114C178.52 123.65 179.96 141.2 184.96 166.65C174.26 169.42 163.61 165.06 153.02 153.56C137.12 136.32 135.85 113.74 140.15 91.02C143.23 74.77 144.21 56.94 154.26 51.12C157.07 49.49 163.77 50.5 167.99 52.15Z" />
		<path id="&lt;Path&gt;" class="shp5" d="M195.01 112.07C198 110.46 198.59 112.59 199.34 115.06C200.32 118.28 202.31 122.82 207.89 125.73C217.75 130.87 226.92 126.38 229.94 129.27C232.95 132.16 221.61 144.48 191.49 156.49C187.07 158.25 180.98 158.84 181.02 157.38L179.89 121.04C185.51 117.44 190.55 114.45 195.01 112.07Z" />
		<g id="&lt;Group&gt;">
			<path id="&lt;Path&gt;" class="shp1" d="M236.37 81.92C243.11 71.56 253.27 61.42 258.03 56.9C256.94 55.36 255.72 54.03 254.4 53.08C248.5 48.82 231 57.52 201.88 79.16C201.88 88.49 202.91 88.74 209 96.41C207.76 101.51 206.43 105.85 205.01 109.43C202.92 115.53 204.76 120.04 210.53 122.96C213.54 124.47 218.71 124.89 224.04 124.42C224.04 124.39 224.03 124.37 224.02 124.35C223.27 110.6 228.52 93.97 236.37 81.92Z" />
			<path id="&lt;Path&gt;" class="shp1" d="M255.88 98.33C259.4 88.41 261.17 74.13 261.31 68.57C261.42 64.09 260.91 60.94 258.03 56.9C253.27 61.42 243.11 71.56 236.37 81.92C228.52 93.97 223.27 110.6 224.02 124.35C224.03 124.37 224.04 124.39 224.04 124.42C230.6 123.84 237.18 121.63 240.74 119.04C249.8 112.45 253.14 106.06 255.88 98.33Z" />
		</g>
		<path id="&lt;Path&gt;" class="shp5" d="M174.79 56.94C168.56 63.98 163.47 77.64 159.5 97.9C155.17 120.01 154.66 135.04 157.96 142.99L145.62 139.39C142.64 134.25 141.89 121 143.35 99.63C145.62 66.42 152.23 52.03 154.26 51.12C159.8 48.64 167.33 49.3 174.79 56.94Z" />
		<path id="&lt;Path&gt;" class="shp5" d="M181.48 164.25C172 163.67 165.97 161.75 163.38 158.5C160.8 155.25 158.74 153.21 157.2 152.39L150.51 154.31L154.32 160.34C163.27 164.83 170.1 167.26 174.79 167.63C179.48 168 183.03 168 185.44 167.63C183.79 167.69 182.47 166.57 181.48 164.25Z" />
		<g id="&lt;Group&gt;">
			<g id="&lt;Group&gt;">
				<path id="&lt;Path&gt;" class="shp1" d="M154.97 160.71C154.96 172.86 147.56 186.96 138.44 192.21C129.33 197.46 121.95 191.87 121.96 179.73C121.98 167.58 129.37 153.48 138.49 148.23C147.6 142.98 154.98 148.57 154.97 160.71Z" />
				<path id="&lt;Path&gt;" class="shp1" d="M128.06 193.29L133.79 196.41L153.82 149.93L148.66 147.05L128.06 193.29Z" />
				<path id="&lt;Path&gt;" class="shp2" d="M160.63 163.81C160.62 175.96 153.22 190.06 144.11 195.31C134.99 200.56 127.62 194.97 127.63 182.82C127.64 170.68 135.04 156.58 144.15 151.33C153.27 146.08 160.64 151.67 160.63 163.81Z" />
				<path id="&lt;Path&gt;" class="shp0" d="M155.99 166.49C155.98 175.21 150.67 185.35 144.11 189.13C137.56 192.9 132.26 188.88 132.27 180.15C132.28 171.42 137.6 161.28 144.15 157.51C150.7 153.74 156 157.76 155.99 166.49Z" />
				<path id="&lt;Path&gt;" class="shp2" d="M150.8 169.83C150.79 174.29 148.07 179.46 144.73 181.39C141.38 183.32 138.67 181.27 138.68 176.81C138.68 172.35 141.4 167.17 144.74 165.24C148.09 163.31 150.8 165.37 150.8 169.83Z" />
				<path id="&lt;Path&gt;" class="shp5" d="M149.78 170.41C149.78 174.12 147.52 178.44 144.73 180.04C141.94 181.65 139.68 179.94 139.69 176.22C139.69 172.51 141.95 168.2 144.74 166.59C147.53 164.98 149.79 166.69 149.78 170.41Z" />
			</g>
			<g id="&lt;Group&gt;">
				<path id="&lt;Path&gt;" class="shp1" d="M160.87 140.94C161.79 142.04 162.68 143.27 163.46 144.78C166.09 149.82 167.81 156.96 168.62 166.2C158.28 168.85 150.09 170.58 144.06 171.39C140.68 171.85 136.41 171.24 132.4 170.3C134.52 164.3 137.37 157.79 140.94 153.01C147.09 144.79 156.15 141.92 160.87 140.94Z" />
				<path id="&lt;Path&gt;" class="shp2" d="M127.73 149.32C133.29 140.63 140.23 135.69 148.55 134.47C153.18 134.51 157.29 136.67 160.87 140.94C156.15 141.92 147.09 144.79 140.94 153.01C137.37 157.79 134.52 164.3 132.4 170.3C127.91 169.25 123.66 167.88 119.64 166.2C121.2 160.93 123.9 155.31 127.73 149.32Z" />
			</g>
		</g>
		<path id="&lt;Path&gt;" class="shp2" d="M159.74 78.13C160.55 66.56 153.11 65.99 149.07 70.97C147.72 72.62 146.82 74.93 146.37 77.89C147.59 74.1 149.62 72.88 152.46 74.24C155.25 75.58 155.86 79.16 154.71 84.31C154.18 86.69 152.83 88.7 150.67 90.33C156.15 90.33 159.18 86.26 159.74 78.13Z" />
		<path id="&lt;Path&gt;" class="shp8" d="M147.32 75.74C145.17 79.44 144.93 85.06 146.78 88.27C148.63 91.49 151.87 91.1 154.02 87.39C156.17 83.68 156.41 78.07 154.56 74.85C152.72 71.64 149.48 72.03 147.32 75.74Z" />
		<path id="&lt;Path&gt;" class="shp3" d="M184.37 68C189.73 84.27 183.39 111.85 181.45 131.06C180.54 140.04 182.12 150.4 186.19 162.13C197.41 159.28 207.76 154.37 217.25 147.41C225.3 141.51 241.75 128.48 255.34 112.45C261.22 105.52 264.93 98.56 266.46 91.59C267.41 97.26 264.27 105.29 257.03 115.7C249.67 126.27 240.74 132.21 230.43 141.77C218.6 152.76 188.72 171.58 183.51 166.9C177.3 161.32 177.08 141.88 177.78 132.76C179.88 105.18 183.16 97.31 182.92 83.22C182.67 69.03 177.55 61.75 172.36 56.64C165.42 49.79 159.39 47.95 154.26 51.12C164.84 43.06 179.16 52.15 184.37 68Z" />
		<g id="&lt;Group&gt;">
			<path id="&lt;Path&gt;" class="shp2" d="M249.8 65.39C239.87 72.83 230.91 68.94 222.17 72.68C213.44 76.41 204.64 86.42 197.55 83.5C195.81 82.79 194.51 82.02 193.52 81.25C192.33 75.02 194 68.63 201.85 62.96C211.92 55.68 221.02 55.97 230.54 50.73C240.06 45.49 246.8 43.71 257.03 50.73C257.16 50.82 257.26 50.92 257.39 51.01C258.24 55.47 257.1 59.92 249.8 65.39Z" />
			<path id="&lt;Path&gt;" class="shp2" d="M190.47 77.06C190.44 76.89 190.41 76.74 190.4 76.63C190.42 76.74 190.44 76.89 190.47 77.06Z" />
			<path id="&lt;Path&gt;" class="shp1" d="M258.05 64.9C251.76 71.81 248.09 78.09 239.02 78.09C227.56 78.09 221.83 81.56 215.18 88.42C205.27 98.65 197.66 92.51 195.13 86.49C194.41 84.77 193.85 83.02 193.52 81.25C194.51 82.02 195.81 82.79 197.55 83.5C204.64 86.42 213.44 76.41 222.17 72.68C230.91 68.94 239.87 72.83 249.8 65.39C257.1 59.92 258.24 55.47 257.39 51.01C262.52 54.72 263.23 59.22 258.05 64.9Z" />
		</g>
		<path id="&lt;Path&gt;" class="shp5" d="M206.72 63.82C209.34 63.82 212.9 65.06 217.37 66.75C222.97 68.87 217.83 71.84 209.66 73.84C203.85 75.27 199.37 81.3 197.23 75.85C195.64 71.8 199.73 68.15 200.97 66.76C202.73 64.78 204.39 63.82 206.72 63.82Z" />
		<path id="&lt;Path&gt;" class="shp5" d="M244.76 47.91C249.8 48.64 255.96 50.6 254.5 56.53C252.67 63.96 242.25 68 241.75 65.07C241.45 63.34 244.22 63.18 247.83 58.47C251.44 53.76 249.66 51.2 243 51.01C240.31 50.94 237.51 51.02 238.49 49.73C239.06 48.98 241.89 47.5 244.76 47.91Z" />
		<g id="&lt;Group&gt;">
			<path id="&lt;Path&gt;" class="shp2" d="M142.05 16.71C142.05 18.14 141.18 19.79 140.11 20.41C139.04 21.03 138.17 20.37 138.17 18.94C138.17 17.52 139.04 15.86 140.11 15.24C141.18 14.63 142.05 15.28 142.05 16.71Z" />
			<path id="&lt;Path&gt;" class="shp2" d="M155.96 23.6L141.3 15.12L139.01 20.56L153.32 28.89L155.96 23.6Z" />
			<path id="&lt;Path&gt;" class="shp5" d="M156.61 25.14C156.61 26.57 155.74 28.22 154.67 28.84C153.59 29.46 152.73 28.8 152.73 27.37C152.73 25.95 153.6 24.29 154.67 23.68C155.74 23.06 156.61 23.72 156.61 25.14Z" />
			<path id="&lt;Path&gt;" class="shp0" d="M156.06 25.61C156.06 26.44 155.55 27.41 154.92 27.77C154.3 28.13 153.79 27.74 153.79 26.91C153.79 26.08 154.3 25.11 154.93 24.75C155.55 24.39 156.06 24.77 156.06 25.61Z" />
		</g>
		<path id="&lt;Path&gt;" class="shp0" d="M197.4 49.57C196.83 48.94 182.94 40.67 155.74 24.74L154.08 27.75L195.76 52.24L197.4 49.57Z" />
		<g id="&lt;Group&gt;">
			<path id="&lt;Path&gt;" class="shp2" d="M197.91 49.14C197.91 50.57 197.04 52.23 195.97 52.84C194.9 53.46 194.03 52.8 194.04 51.38C194.04 49.95 194.91 48.29 195.98 47.68C197.05 47.06 197.91 47.72 197.91 49.14Z" />
			<path id="&lt;Path&gt;" class="shp2" d="M211.83 56.04L197.17 47.56L194.88 52.99L209.19 61.32L211.83 56.04Z" />
			<path id="&lt;Path&gt;" class="shp5" d="M212.47 57.58C212.47 59 211.6 60.66 210.53 61.28C209.46 61.89 208.59 61.24 208.6 59.81C208.6 58.38 209.47 56.73 210.54 56.11C211.61 55.49 212.47 56.15 212.47 57.58Z" />
		</g>
		<path id="&lt;Path&gt;" class="shp2" d="M157.27 5.03C157.27 8.74 159.53 13.06 162.32 14.66C165.11 16.27 167.36 14.56 167.36 10.84C167.36 7.13 165.09 2.81 162.31 1.21C159.52 -0.4 157.26 1.31 157.27 5.03Z" />
		<g id="&lt;Group&gt;">
			<path id="&lt;Path&gt;" class="shp2" d="M171.86 34.18L173.04 32.64C172.98 32.59 167.08 28.09 162.97 24.32C159.05 20.73 157.68 17.91 158.78 15.7C160.1 13.02 161.92 9.77 161.93 9.74L160.24 8.79C160.22 8.82 158.38 12.11 157.04 14.83C155.51 17.93 157.02 21.5 161.66 25.75C165.84 29.58 171.8 34.13 171.86 34.18Z" />
		</g>
		<g id="&lt;Group&gt;">
			<path id="&lt;Path&gt;" class="shp2" d="M194.99 41.6C195.82 41.6 196.53 41.47 197.04 41.15C199.14 39.87 202.32 36.24 204.43 33.84C205.13 33.04 205.92 32.14 206.12 31.98L205.61 31.35L205.61 30.2C205.05 30.2 204.89 30.38 202.98 32.56C201.07 34.73 197.88 38.37 196.03 39.49C194.3 40.55 186.72 37.58 181.9 35.13L181.02 36.87C182.79 37.76 190.61 41.6 194.99 41.6Z" />
		</g>
		<g id="&lt;Group&gt;">
			<path id="&lt;Path&gt;" class="shp2" d="M158.53 32.27C158.53 34.49 159.88 37.07 161.55 38.02C163.21 38.98 164.56 37.96 164.56 35.74C164.56 33.52 163.2 30.95 161.54 29.99C159.87 29.03 158.53 30.05 158.53 32.27Z" />
			<path id="&lt;Path&gt;" class="shp2" d="M161.36 39.55L163.7 38.06L159.48 29.9L157.53 31.16L161.36 39.55Z" />
			<path id="&lt;Path&gt;" class="shp8" d="M156.46 33.61C156.46 35.83 157.81 38.4 159.48 39.36C161.14 40.32 162.49 39.3 162.49 37.08C162.49 34.86 161.14 32.29 159.47 31.33C157.81 30.37 156.46 31.39 156.46 33.61Z" />
		</g>
		<g id="&lt;Group&gt;">
			<path id="&lt;Path&gt;" class="shp5" d="M172.38 48.76C170.11 49.61 164.35 47.05 159.93 44.76C159.82 44.24 159.76 43.68 159.8 43.07C160.01 40.16 161.67 34.9 164.79 27.3C169.39 24.44 173.59 24.4 177.39 27.18C180.53 29.47 182.48 33.3 183.63 36.3C180.51 40.62 175.07 47.76 172.38 48.76Z" />
			<path id="&lt;Path&gt;" class="shp2" d="M176 50.53C172.36 53.5 168.96 51.69 166.26 50.53C163.94 49.54 160.63 47.96 159.93 44.76C164.35 47.05 170.11 49.61 172.38 48.76C175.07 47.76 180.51 40.62 183.63 36.3C184.25 37.93 184.69 39.38 184.96 40.65C181.42 45.26 178.43 48.55 176 50.53Z" />
		</g>
		<path id="&lt;Path&gt;" class="shp2" d="M201.88 27.18C201.88 30.89 204.14 35.21 206.93 36.81C209.72 38.42 211.98 36.71 211.97 32.99C211.97 29.28 209.71 24.97 206.92 23.36C204.13 21.75 201.87 23.46 201.88 27.18Z" />
		<g id="&lt;Group&gt;">
			<path id="&lt;Path&gt;" class="shp5" d="M181.48 44.37C181.48 46.59 182.83 49.17 184.5 50.12C186.16 51.08 187.51 50.06 187.51 47.84C187.51 45.62 186.16 43.05 184.49 42.09C182.83 41.13 181.48 42.15 181.48 44.37Z" />
			<path id="&lt;Path&gt;" class="shp5" d="M184.31 51.65L186.65 50.16L182.43 42L180.48 43.26L184.31 51.65Z" />
			<path id="&lt;Path&gt;" class="shp8" d="M179.41 45.71C179.41 47.93 180.77 50.51 182.43 51.46C184.1 52.42 185.44 51.4 185.44 49.18C185.44 46.96 184.09 44.39 182.42 43.43C180.76 42.47 179.41 43.49 179.41 45.71Z" />
		</g>
		<path id="&lt;Path&gt;" class="shp8" d="M261.31 68.57C256.85 74.68 251.81 80.2 246.19 85.14C239.6 90.92 233.15 100.28 230.12 108.22C228.1 113.51 227.25 117.57 227.56 120.39C230.64 109.21 235.37 100.57 241.75 94.48C247.67 88.82 254.04 82.18 260.85 74.56L261.31 68.57Z" />
		<path id="&lt;Path&gt;" class="shp0" d="M255.88 83.27C250.61 88.4 246.31 92.63 243 95.95C239.69 99.27 236.51 104.77 233.46 112.45C240.77 107.26 246.62 102.11 251.02 96.99C254.41 93.05 256.03 88.48 255.88 83.27Z" />
	</g>
	<g id="scooter">
		<g id="&lt;Group&gt;">
			<path id="&lt;Path&gt;" class="shp3" d="M18.9 349.65L21.51 351.19L22.19 349.94C20.64 348.37 19.85 347.59 19.82 347.6C19.78 347.61 19.48 348.29 18.9 349.65Z" />
			<path id="&lt;Path&gt;" class="shp3" d="M21.39 295.93C17.91 300.03 16.05 314.37 15.33 326.75C14.62 339.14 16.82 347.01 18.41 349.22C20.19 351.69 22.2 344.45 23.17 335.33C24.14 326.21 26.07 315.19 26.07 310.62C26.07 303.58 24.47 292.29 21.39 295.93Z" />
			<path id="&lt;Path&gt;" class="shp3" d="M25.67 296.92L22.96 295.32L21.54 297.4L25.28 299.99L25.67 296.92Z" />
			<path id="&lt;Path&gt;" class="shp9" d="M24.01 297.47C20.52 301.57 18.66 315.91 17.95 328.29C17.23 340.68 19.44 348.55 21.03 350.76C22.8 353.23 24.82 345.99 25.79 336.87C26.75 327.75 28.69 316.73 28.69 312.16C28.69 305.12 27.09 293.84 24.01 297.47Z" />
		</g>
		<path id="&lt;Path&gt;" class="shp0" d="M123.69 289.35C117.59 284.83 112.86 281.51 109.52 279.39C104.28 276.08 97.36 284.38 103.45 289.16C107.4 292.26 112.4 296.06 118.45 300.57L123.69 289.35Z" />
		<g id="&lt;Group&gt;">
			<path id="&lt;Path&gt;" class="shp1" d="M133.08 284.74C133.07 296.03 126.19 309.15 117.71 314.03C109.23 318.92 102.37 313.72 102.38 302.42C102.39 291.12 109.27 278.01 117.75 273.12C126.23 268.24 133.09 273.44 133.08 284.74Z" />
			<path id="&lt;Path&gt;" class="shp1" d="M107.72 314.86L118.07 320.56L136.7 277.32L127.42 272.13L107.72 314.86Z" />
			<path id="&lt;Path&gt;" class="shp2" d="M143.04 290.23C143.03 301.53 136.15 314.65 127.67 319.53C119.19 324.41 112.33 319.21 112.34 307.92C112.35 296.62 119.23 283.5 127.71 278.62C136.19 273.74 143.05 278.94 143.04 290.23Z" />
			<path id="&lt;Path&gt;" class="shp4" d="M140.21 292.42C140.2 301.63 134.59 312.34 127.67 316.32C120.75 320.31 115.15 316.06 115.16 306.85C115.17 297.63 120.79 286.92 127.7 282.94C134.62 278.96 140.22 283.2 140.21 292.42Z" />
			<path id="&lt;Path&gt;" class="shp0" d="M134.31 295.83C134.3 299.98 131.78 304.79 128.66 306.58C125.55 308.38 123.03 306.47 123.04 302.32C123.04 298.17 125.57 293.36 128.68 291.56C131.79 289.77 134.31 291.68 134.31 295.83Z" />
			<path id="&lt;Path&gt;" class="shp9" d="M132.7 296.75C132.7 299.72 130.89 303.16 128.67 304.45C126.44 305.73 124.64 304.36 124.64 301.4C124.64 298.43 126.45 294.98 128.68 293.7C130.9 292.42 132.71 293.78 132.7 296.75Z" />
		</g>
		<path id="&lt;Path&gt;" class="shp0" d="M119.07 285.07L108.86 279.04L102.28 288.13L113.11 294.81L119.07 285.07Z" />
		<path id="&lt;Path&gt;" class="shp9" d="M131.43 293.58C126.81 290.17 122.83 287.41 119.48 285.29C114.24 281.98 107.32 290.29 113.41 295.07C117.36 298.16 121.52 301.33 125.9 304.56L131.43 293.58Z" />
		<g id="&lt;Group&gt;">
			<path id="&lt;Path&gt;" class="shp2" d="M71.44 343.72L71.44 319.97L106.47 299.75L106.47 323.5L71.44 343.72Z" />
			<path id="&lt;Path&gt;" class="shp10" d="M50.64 335.25L50.64 341.54L71.44 343.72L71.44 319.97L50.64 335.25Z" />
			<path id="&lt;Path&gt;" class="shp11" d="M34.41 327.1L50.64 336.47L73.79 330.09L108.82 309.86L114.88 298.91L108.42 295.18L106.8 294.25L100.33 290.51L81.37 294.01L46.34 314.24L34.41 327.1Z" />
			<path id="&lt;Path&gt;" class="shp4" d="M34.41 321.37L50.64 330.74L73.79 324.35L108.82 304.12L114.88 293.17L108.42 289.44L106.8 288.51L100.33 284.77L81.37 288.27L46.34 308.5L34.41 321.37Z" />
			<path id="&lt;Path&gt;" class="shp12" d="M73.79 330.09L73.79 324.35L108.82 304.12L108.82 309.86L73.79 330.09Z" />
			<path id="&lt;Path&gt;" class="shp11" d="M114.88 293.17L114.88 298.91L108.82 309.86L108.82 304.12L114.88 293.17Z" />
			<path id="&lt;Path&gt;" class="shp2" d="M34.41 326.43L34.41 332.17L50.64 341.54L50.64 335.8L34.41 326.43Z" />
			<path id="&lt;Path&gt;" class="shp12" d="M34.41 321.36L34.41 327.1L50.64 336.47L50.64 330.73L34.41 321.36Z" />
		</g>
		<path id="&lt;Path&gt;" class="shp0" d="M77.31 293.22L49.4 309.33L38.52 320.42L51.18 327.63L71.15 322.53L99.61 306.1L77.31 293.22Z" />
		<g id="&lt;Group&gt;">
			<path id="&lt;Path&gt;" class="shp1" d="M37.29 339.65C37.28 350.94 30.4 364.06 21.92 368.94C13.44 373.83 6.58 368.63 6.59 357.33C6.6 346.03 13.49 332.92 21.96 328.03C30.44 323.15 37.3 328.35 37.29 339.65Z" />
			<path id="&lt;Path&gt;" class="shp1" d="M11.94 369.77L22.28 375.47L40.92 332.23L31.63 327.04L11.94 369.77Z" />
			<path id="&lt;Path&gt;" class="shp2" d="M47.25 345.14C47.24 356.44 40.36 369.56 31.88 374.44C23.41 379.32 16.54 374.12 16.55 362.83C16.56 351.53 23.45 338.41 31.92 333.53C40.4 328.65 47.26 333.85 47.25 345.14Z" />
			<path id="&lt;Path&gt;" class="shp4" d="M44.43 347.33C44.42 356.54 38.8 367.25 31.89 371.23C24.97 375.22 19.37 370.97 19.38 361.76C19.39 352.54 25 341.83 31.92 337.85C38.84 333.87 44.44 338.11 44.43 347.33Z" />
			<path id="&lt;Path&gt;" class="shp0" d="M38.52 350.74C38.52 354.89 35.99 359.7 32.88 361.49C29.77 363.29 27.25 361.38 27.25 357.23C27.25 353.08 29.78 348.27 32.89 346.47C36.01 344.68 38.53 346.59 38.52 350.74Z" />
			<path id="&lt;Path&gt;" class="shp3" d="M36.92 351.66C36.91 354.63 35.11 358.07 32.88 359.36C30.65 360.64 28.85 359.27 28.85 356.31C28.86 353.34 30.66 349.89 32.89 348.61C35.12 347.33 36.92 348.7 36.92 351.66Z" />
		</g>
		<path id="&lt;Path&gt;" class="shp2" d="M35.82 354.47C35.81 355.28 35.32 356.22 34.71 356.57C34.1 356.92 33.61 356.54 33.61 355.73C33.61 354.92 34.11 353.98 34.72 353.63C35.32 353.28 35.82 353.66 35.82 354.47Z" />
		<path id="&lt;Path&gt;" class="shp1" d="M27.56 292.74L25.23 321.81C25.23 322.72 26.61 323.45 28.31 323.45C30.01 323.45 31.39 322.72 31.39 321.81L33.62 294.25C31.57 293.87 29.53 293.42 27.56 292.74Z" />
		<g id="&lt;Group&gt;">
			<path id="&lt;Path&gt;" class="shp4" d="M26.54 300.64C26.54 301.92 25.76 303.41 24.79 303.97C23.83 304.52 23.05 303.93 23.05 302.65C23.05 301.36 23.83 299.87 24.8 299.32C25.76 298.76 26.54 299.35 26.54 300.64Z" />
			<path id="&lt;Path&gt;" class="shp4" d="M35.61 305.89C35.61 307.17 34.83 308.66 33.87 309.22C32.9 309.77 32.12 309.18 32.12 307.9C32.12 306.61 32.91 305.12 33.87 304.57C34.83 304.01 35.61 304.6 35.61 305.89Z" />
			<path id="&lt;Path&gt;" class="shp4" d="M34.93 304.44L25.89 299.2L23.7 304.08L32.81 309.35L34.93 304.44Z" />
		</g>
		<g id="&lt;Group&gt;">
			<path id="&lt;Path&gt;" class="shp1" d="M33.5 197.37L33.9 208.6C34.12 210.06 34.16 211.54 34.02 213.01L26.83 302.72C26.83 303.62 28.21 304.36 29.91 304.36C31.61 304.36 32.99 303.62 32.99 302.72L40.11 214.82C40.2 213.8 40.19 212.77 40.06 211.74L39.66 197.37L33.5 197.37Z" />
		</g>
		<g id="&lt;Group&gt;">
			<path id="&lt;Path&gt;" class="shp3" d="M31.42 357.16L34.03 358.7L34.71 357.44C33.17 355.87 32.38 355.09 32.34 355.1C32.31 355.11 32 355.8 31.42 357.16Z" />
			<path id="&lt;Path&gt;" class="shp3" d="M33.92 303.43C30.43 307.53 28.57 321.87 27.86 334.25C27.14 346.64 29.35 354.51 30.94 356.72C32.71 359.19 34.73 351.95 35.7 342.83C36.66 333.71 38.6 322.69 38.6 318.12C38.6 311.08 37 299.8 33.92 303.43Z" />
			<path id="&lt;Path&gt;" class="shp3" d="M38.2 304.42L35.48 302.83L34.07 304.9L37.81 307.49L38.2 304.42Z" />
			<path id="&lt;Path&gt;" class="shp9" d="M36.53 304.97C33.05 309.08 31.19 323.41 30.47 335.8C29.76 348.18 31.96 356.05 33.55 358.27C35.33 360.74 37.34 353.5 38.31 344.37C39.28 335.25 41.21 324.23 41.21 319.66C41.21 312.62 39.61 301.34 36.53 304.97Z" />
		</g>
		<g id="&lt;Group&gt;">
			<g id="&lt;Group&gt;">
				<path id="&lt;Path&gt;" class="shp2" d="M4.85 162.73C4.85 164.43 3.81 166.41 2.53 167.15C1.25 167.89 0.21 167.1 0.22 165.4C0.22 163.69 1.26 161.71 2.54 160.97C3.82 160.24 4.85 161.02 4.85 162.73Z" />
				<path id="&lt;Path&gt;" class="shp2" d="M21.49 170.97L3.96 160.83L1.22 167.33L18.33 177.29L21.49 170.97Z" />
				<path id="&lt;Path&gt;" class="shp5" d="M22.26 172.81C22.26 174.52 21.22 176.5 19.94 177.23C18.66 177.97 17.62 177.19 17.62 175.48C17.63 173.78 18.67 171.79 19.95 171.06C21.23 170.32 22.26 171.11 22.26 172.81Z" />
				<path id="&lt;Path&gt;" class="shp0" d="M21.24 173.4C21.24 174.35 20.66 175.47 19.94 175.88C19.22 176.29 18.64 175.85 18.64 174.9C18.64 173.94 19.22 172.83 19.94 172.41C20.66 172 21.24 172.44 21.24 173.4Z" />
			</g>
			<path id="&lt;Path&gt;" class="shp0" d="M35.69 198.2L34.84 197.7C28.99 194.23 25.78 191.99 27.99 186.45C31.41 177.88 28.23 177.26 20.58 172.26C20.16 173.58 19.46 174.59 19.03 175.91C24.68 179.68 27.21 179.01 24.76 185.16C21.33 193.74 27.57 197.43 33.07 200.69L34.2 201.37C34.71 201.67 35.2 201.9 35.69 202.17L35.69 198.2Z" />
		</g>
		<g id="&lt;Group&gt;">
			<path id="&lt;Path&gt;" class="shp13" d="M30.42 196.8L30.42 201.01C30.42 201.07 30.39 201.13 30.39 201.19C30.39 202.98 32.92 204.43 36.04 204.43C39.16 204.43 41.69 202.98 41.69 201.19L41.69 196.8L30.42 196.8Z" />
			<path id="&lt;Path&gt;" class="shp3" d="M30.39 196.8C30.39 198.59 32.92 200.04 36.04 200.04C39.16 200.04 41.69 198.59 41.69 196.8C41.69 195.01 39.16 193.56 36.04 193.56C32.92 193.56 30.39 195.01 30.39 196.8Z" />
		</g>
		<g id="&lt;Group&gt;">
			<path id="&lt;Path&gt;" class="shp9" d="M91.34 291.88L91.34 295.35C91.33 295.4 91.31 295.45 91.31 295.5C91.31 296.98 93.4 298.18 95.98 298.18C98.55 298.18 100.64 296.98 100.64 295.5L100.64 291.88L91.34 291.88Z" />
			<path id="&lt;Path&gt;" class="shp14" d="M91.31 291.88C91.31 293.36 93.4 294.55 95.98 294.55C98.55 294.55 100.64 293.36 100.64 291.88C100.64 290.4 98.55 289.2 95.98 289.2C93.4 289.2 91.31 290.4 91.31 291.88Z" />
		</g>
		<g id="&lt;Group&gt;">
			<path id="&lt;Path&gt;" class="shp1" d="M92.95 243.92L92.95 291.12C92.95 291.15 92.93 291.18 92.93 291.22C92.93 292.18 94.3 292.96 95.98 292.96C97.66 292.96 99.02 292.18 99.02 291.22L99.02 243.92L92.95 243.92Z" />
		</g>
		<g id="&lt;Group&gt;">
			<path id="&lt;Path&gt;" class="shp13" d="M91.34 242.1L91.34 245.58C91.33 245.63 91.31 245.68 91.31 245.73C91.31 247.21 93.4 248.41 95.98 248.41C98.55 248.41 100.64 247.21 100.64 245.73L100.64 242.1L91.34 242.1Z" />
			<path id="&lt;Path&gt;" class="shp3" d="M91.31 242.1C91.31 243.58 93.4 244.78 95.98 244.78C98.55 244.78 100.64 243.58 100.64 242.1C100.64 240.62 98.55 239.43 95.98 239.43C93.4 239.43 91.31 240.62 91.31 242.1Z" />
		</g>
		<g id="&lt;Group&gt;">
			<path id="&lt;Path&gt;" class="shp11" d="M29.71 195.49L27.42 195.49L27.42 198.17L29.71 198.17L29.71 195.49Z" />
			<path id="&lt;Path&gt;" class="shp11" d="M45.41 193.33L43.13 193.33L43.13 195.88L45.41 195.88L45.41 193.33Z" />
			<path id="&lt;Path&gt;" class="shp11" d="M36.69 190.85C33.66 192.66 31.37 194.01 29.84 194.89C27.55 196.22 26.22 198.65 28.95 200.23C29.02 200.26 29.27 200.41 29.33 200.45C32.06 202.02 36.27 201.25 38.57 199.93C40.1 199.05 42.38 197.7 45.41 195.88L36.69 190.85Z" />
			<path id="&lt;Path&gt;" class="shp4" d="M36.69 188.31C33.66 190.12 31.37 191.47 29.84 192.35C27.55 193.68 26.22 196.11 28.95 197.69C29.02 197.72 29.27 197.87 29.33 197.91C32.06 199.49 36.27 198.71 38.57 197.39C40.1 196.51 42.38 195.16 45.41 193.34L36.69 188.31Z" />
		</g>
		<g id="&lt;Group&gt;">
			<path id="&lt;Path&gt;" class="shp0" d="M60.99 194.4C55.22 190.89 51.85 197.04 49.83 200.22C48.01 203.08 42.94 201.77 39.74 200.32L38.55 203.63C41.25 204.78 43.94 205.45 46.06 205.45C49.02 205.45 51.34 204.33 52.77 202.09C56.5 196.21 57.23 196.22 59.19 197.38C62.32 199.28 65.1 200.93 67.53 202.34L69.28 199.33C69.27 199.33 65.66 197.23 60.99 194.4Z" />
			<g id="&lt;Group&gt;">
				<path id="&lt;Path&gt;" class="shp2" d="M69.53 199.12C69.53 200.82 68.49 202.8 67.21 203.54C65.93 204.28 64.89 203.49 64.89 201.79C64.89 200.08 65.93 198.1 67.21 197.36C68.49 196.63 69.53 197.41 69.53 199.12Z" />
				<path id="&lt;Path&gt;" class="shp2" d="M86.17 207.36L68.64 197.22L65.9 203.72L83.01 213.68L86.17 207.36Z" />
				<path id="&lt;Path&gt;" class="shp5" d="M86.94 209.2C86.93 210.9 85.9 212.88 84.62 213.62C83.34 214.36 82.3 213.57 82.3 211.87C82.3 210.16 83.34 208.18 84.62 207.44C85.9 206.71 86.94 207.49 86.94 209.2Z" />
				<path id="&lt;Path&gt;" class="shp0" d="M40.31 201.33C40.31 202.18 39.8 203.16 39.16 203.52C38.53 203.89 38.02 203.5 38.02 202.65C38.02 201.81 38.53 200.83 39.17 200.46C39.8 200.1 40.31 200.49 40.31 201.33Z" />
			</g>
		</g>
		<g id="&lt;Group&gt;">
			<path id="&lt;Path&gt;" class="shp10" d="M111.96 234.67C107.78 238.31 96.94 239.93 89.07 242.12C85.73 243.05 80.91 243.69 76.3 241.67C75.83 239.51 75.94 236.47 77.64 233.23C83.69 221.66 94.43 214.08 102.8 219.7C106.2 221.99 111.52 225.42 114.51 229.09C114.57 230.69 114.13 232.79 111.96 234.67Z" />
			<path id="&lt;Path&gt;" class="shp2" d="M114.32 238.49C108.76 243.02 100.45 243.76 87.8 246.85C83.8 247.82 79.19 246.35 77.46 244.37C77.01 243.84 76.56 242.9 76.3 241.67C80.91 243.69 85.73 243.05 89.07 242.12C96.94 239.93 107.78 238.31 111.96 234.67C114.13 232.79 114.57 230.69 114.51 229.09C117.08 232.23 117.93 235.55 114.32 238.49Z" />
		</g>
	</g>
</svg>